<svg width="24" height="18" viewBox="0 0 24 18" fill="none" xmlns="http://www.w3.org/2000/svg">
<g id="Group">
<path id="Vector" d="M14.2868 6.91688C14.1509 6.6369 13.8989 6.39448 13.5654 6.22303C13.232 6.05159 12.8336 5.95958 12.4251 5.9597H10.8968C10.4608 5.95804 10.0395 6.07397 9.71423 6.28506C9.38898 6.49615 9.18297 6.78742 9.13602 7.10253C9.08907 7.41764 9.20452 7.73422 9.46006 7.99104C9.71559 8.24786 10.093 8.42667 10.5194 8.49291L12.8466 8.862C13.3224 8.93773 13.7429 9.13861 14.0274 9.42605C14.3119 9.71349 14.4402 10.0672 14.3878 10.4192C14.3353 10.7713 14.1057 11.0968 13.7431 11.3333C13.3805 11.5697 12.9105 11.7005 12.4234 11.7003H11.1084C10.2486 11.7003 9.51749 11.3017 9.2467 10.7444M11.7668 5.9597V4.52393M11.7668 13.1361V11.7016M3.53467 16.9944V13.9186H7.7658" stroke="#FA902D" stroke-linecap="round" stroke-linejoin="round"/>
<path id="Vector_2" d="M22.8114 7.52855C23.2607 9.2697 22.902 11.07 21.7915 12.6469C20.6811 14.2239 18.8818 15.4881 16.6761 16.2413C14.4703 16.9944 11.983 17.1939 9.60444 16.8082C7.22591 16.4226 5.09085 15.4738 3.53435 14.1107M1.18861 10.4715C0.739302 8.7303 1.09802 6.92998 2.20846 5.35306C3.3189 3.77614 5.1182 2.51188 7.32395 1.75873C9.5297 1.00557 12.017 0.806149 14.3956 1.19176C16.7741 1.57737 18.9092 2.52619 20.4657 3.88929" stroke="#FA902D" stroke-linecap="round" stroke-linejoin="round"/>
<path id="Vector_3" d="M20.466 1.00598V4.08176H16.2349" stroke="#FA902D" stroke-linecap="round" stroke-linejoin="round"/>
</g>
</svg>
