<svg width="16" height="14" viewBox="0 0 16 14" fill="none" xmlns="http://www.w3.org/2000/svg">
<g id="Group">
<path id="Vector" d="M8.00039 9.66649C9.16019 9.66649 10.1004 8.77107 10.1004 7.6665C10.1004 6.56193 9.16019 5.6665 8.00039 5.6665C6.84059 5.6665 5.90039 6.56193 5.90039 7.6665C5.90039 8.77107 6.84059 9.66649 8.00039 9.66649Z" stroke="white" stroke-width="1.5"/>
<path id="Vector_2" d="M6.4446 13H9.5554C11.7401 13 12.8328 13 13.6175 12.51C13.9561 12.2987 14.2477 12.0259 14.4757 11.7073C15 10.974 15 9.95201 15 7.90935C15 5.86602 15 4.84469 14.4757 4.11136C14.2477 3.79276 13.9561 3.52003 13.6175 3.30869C13.1135 2.99336 12.4821 2.88069 11.5154 2.84069C11.0541 2.84069 10.6572 2.51403 10.5669 2.09069C10.4979 1.78061 10.3186 1.50272 10.0593 1.304C9.8 1.10527 9.47662 0.997903 9.1438 1.00003H6.8562C6.1646 1.00003 5.5689 1.4567 5.4331 2.09069C5.3428 2.51403 4.9459 2.84069 4.4846 2.84069C3.5186 2.88069 2.8872 2.99403 2.3825 3.30869C2.04413 3.52007 1.75276 3.79281 1.525 4.11136C1 4.84469 1 5.86602 1 7.90935C1 9.95201 1 10.9733 1.5243 11.7073C1.7511 12.0247 2.0423 12.2973 2.3825 12.51C3.1672 13 4.2599 13 6.4446 13Z" stroke="white" stroke-width="1.5"/>
<path id="Vector_3" d="M12.9002 5.6665H12.2002" stroke="white" stroke-width="1.5" stroke-linecap="round"/>
</g>
</svg>
