<svg width="14" height="14" viewBox="0 0 14 14" fill="none" xmlns="http://www.w3.org/2000/svg">
<path id="Vector" d="M7 9.36476C7.14052 9.36476 7.25537 9.31776 7.34456 9.22375C7.43374 9.12975 7.47833 9.00869 7.47833 8.86057C7.47833 8.71246 7.43374 8.59113 7.34456 8.49658C7.25537 8.40257 7.14052 8.35557 7 8.35557C6.85948 8.35557 6.74463 8.40257 6.65544 8.49658C6.56626 8.59113 6.52167 8.71246 6.52167 8.86057C6.52167 9.00814 6.56626 9.1292 6.65544 9.22375C6.74463 9.31776 6.85948 9.36476 7 9.36476ZM6.61111 6.93728H7.38889V1.95526H6.61111V6.93728ZM0 14V1.324C0 0.946887 0.120037 0.632078 0.360111 0.379575C0.599667 0.126525 0.898333 0 1.25611 0H12.7439C13.1017 0 13.4003 0.126525 13.6399 0.379575C13.88 0.632078 14 0.946887 14 1.324V10.1534C14 10.5305 13.8802 10.8456 13.6407 11.0987C13.4006 11.3512 13.1017 11.4774 12.7439 11.4774H2.39322L0 14ZM2.06111 10.6576H12.7439C12.8631 10.6576 12.9728 10.6051 13.0729 10.5002C13.1724 10.3947 13.2222 10.2791 13.2222 10.1534V1.324C13.2222 1.1983 13.1724 1.0827 13.0729 0.977221C12.9728 0.872284 12.8631 0.819816 12.7439 0.819816H1.25611C1.13685 0.819816 1.02719 0.872284 0.927111 0.977221C0.827555 1.0827 0.777778 1.1983 0.777778 1.324V12.0062L2.06111 10.6576Z" fill="#FA902D"/>
</svg>
