<svg width="22" height="16" viewBox="0 0 22 16" fill="none" xmlns="http://www.w3.org/2000/svg">
<path id="Vector" d="M11.5 14.5L11 14.849L10.5 14.5C5.275 10.742 1 7.31553 1 4.79564C1 3.05177 3.8 1 6 1C7.694 1 10.296 1.81417 10.879 3H11.11C11.693 1.81417 14.306 1 16 1C18.2 1 21 3.05177 21 4.79564C21 7.31553 16.736 10.742 11.5 14.5ZM15.95 0C14.036 0 12.199 0.706267 11 1.81362C9.801 0.706267 7.964 0 6.05 0C2.662 0 0 2.10136 0 4.79564C0 8.08283 3.74 10.7771 9.405 14.849L11 16L12.595 14.849C18.26 10.7771 22 8.08283 22 4.79564C22 2.10136 19.338 0 15.95 0Z" fill="#FA902D"/>
</svg>
