<svg width="14" height="14" viewBox="0 0 14 14" fill="none" xmlns="http://www.w3.org/2000/svg">
<path id="Vector" d="M0.0198701 4.70702C0.321937 3.7944 0.818271 2.95469 1.4762 2.24316C1.53061 2.18437 1.60165 2.14272 1.68031 2.12349C1.75898 2.10427 1.84171 2.10833 1.91801 2.13516L3.48725 2.68393C3.59896 2.72294 3.71801 2.73772 3.83615 2.72727C3.95429 2.71681 4.06869 2.68136 4.17143 2.62337C4.27416 2.56539 4.36277 2.48625 4.43111 2.39146C4.49945 2.29666 4.5459 2.18846 4.56722 2.07437L4.86667 0.469657C4.88113 0.39154 4.91904 0.319399 4.97557 0.262416C5.0321 0.205433 5.1047 0.166188 5.18412 0.149675C6.14262 -0.0498915 7.13336 -0.0498915 8.09187 0.149675C8.17128 0.166188 8.24388 0.205433 8.30041 0.262416C8.35694 0.319399 8.39485 0.39154 8.40932 0.469657L8.70876 2.07437C8.73009 2.18846 8.77653 2.29666 8.84487 2.39146C8.91322 2.48625 9.00182 2.56539 9.10456 2.62337C9.20729 2.68136 9.32169 2.71681 9.43983 2.72727C9.55797 2.73772 9.67702 2.72294 9.78874 2.68393L11.3588 2.13516C11.4352 2.10842 11.518 2.10449 11.5966 2.12386C11.6753 2.14323 11.7463 2.18503 11.8006 2.24396C12.4584 2.95526 12.9548 3.79469 13.2569 4.70702C13.2818 4.78246 13.2831 4.86341 13.2609 4.93961C13.2386 5.01581 13.1936 5.08381 13.1318 5.135L11.8595 6.19094C11.8392 6.20777 11.8198 6.22566 11.8014 6.24454C11.5244 6.15014 11.2386 6.08262 10.9481 6.04295C11.0422 5.87176 11.169 5.71497 11.3302 5.58057L12.3889 4.70222C12.1498 4.07692 11.8055 3.49507 11.3702 2.98072L10.0645 3.43669C9.84103 3.5147 9.60293 3.54427 9.36665 3.52336C9.13037 3.50244 8.90157 3.43154 8.6961 3.31557C8.49063 3.1996 8.31341 3.04133 8.17673 2.85174C8.04004 2.66214 7.94716 2.44575 7.90451 2.21756L7.65497 0.882434C6.98164 0.772621 6.29435 0.772621 5.62102 0.882434L5.37229 2.21756C5.32975 2.44582 5.23694 2.6623 5.10029 2.85199C4.96365 3.04168 4.78644 3.20004 4.58097 3.3161C4.37548 3.43215 4.14665 3.50312 3.91032 3.52408C3.67399 3.54504 3.43583 3.5155 3.21234 3.43749L1.90574 2.98072C1.47079 3.49513 1.12679 4.07697 0.887941 4.70222L1.94583 5.58057C2.12686 5.73077 2.2723 5.91768 2.37205 6.12834C2.4718 6.339 2.52347 6.56836 2.52347 6.80051C2.52347 7.03265 2.4718 7.26201 2.37205 7.47267C2.2723 7.68333 2.12686 7.87024 1.94583 8.02044L0.887941 8.89879C1.12684 9.52435 1.47129 10.1067 1.90574 10.6203L3.21152 10.1643C3.43501 10.0863 3.67317 10.0568 3.9095 10.0777C4.14583 10.0987 4.37467 10.1697 4.58015 10.2857C4.78563 10.4018 4.96283 10.5601 5.09948 10.7498C5.23612 10.9395 5.32893 11.156 5.37148 11.3843L5.62102 12.7186C5.76256 12.741 5.90492 12.7594 6.04891 12.773L5.87137 13.3433C5.84971 13.4122 5.83465 13.4829 5.82637 13.5545C5.61074 13.5297 5.39642 13.495 5.18412 13.4505C5.10481 13.4341 5.03229 13.395 4.97577 13.3381C4.91925 13.2813 4.88128 13.2093 4.86667 13.1314L4.56722 11.5266C4.5459 11.4125 4.49945 11.3044 4.43111 11.2096C4.36277 11.1148 4.27416 11.0356 4.17143 10.9776C4.06869 10.9197 3.95429 10.8842 3.83615 10.8737C3.71801 10.8633 3.59896 10.8781 3.48725 10.9171L1.91801 11.4658C1.84163 11.4926 1.75885 11.4965 1.68018 11.4772C1.60151 11.4578 1.53051 11.416 1.4762 11.3571C0.81835 10.6458 0.322019 9.80633 0.0198701 8.89399C-0.00507059 8.81863 -0.00656593 8.73773 0.0155737 8.66153C0.0377134 8.58534 0.0824911 8.51729 0.144231 8.46601L1.41647 7.41007C1.50685 7.33497 1.57945 7.24156 1.62924 7.13631C1.67903 7.03105 1.70481 6.91647 1.70481 6.80051C1.70481 6.68454 1.67903 6.56996 1.62924 6.4647C1.57945 6.35945 1.50685 6.26604 1.41647 6.19094L0.144231 5.135C0.0824911 5.08372 0.0377134 5.01567 0.0155737 4.93948C-0.00656593 4.86329 -0.00507059 4.78238 0.0198701 4.70702ZM6.64699 13.6001C6.63435 13.656 6.63688 13.7142 6.65434 13.7688C6.6718 13.8234 6.70357 13.8726 6.7465 13.9115C6.78943 13.9504 6.84203 13.9777 6.89907 13.9905C6.9561 14.0034 7.01559 14.0015 7.07162 13.9849L8.53531 13.5497C9.09125 13.8506 9.71737 14.0057 10.3528 13.9998C10.9881 13.994 11.6112 13.8275 12.1613 13.5165C12.7113 13.2055 13.1697 12.7606 13.4918 12.2251C13.814 11.6896 13.9888 11.0816 13.9995 10.4605C14.0101 9.83926 13.8561 9.22595 13.5525 8.68018C13.2489 8.13441 12.806 7.67476 12.2669 7.34594C11.7278 7.01712 11.1108 6.83031 10.476 6.8037C9.84113 6.77709 9.21005 6.91158 8.64413 7.19408C7.95484 7.53962 7.39393 8.08805 7.04053 8.762C6.77509 9.26906 6.6371 9.83068 6.63799 10.4003C6.63799 11.0339 6.80572 11.629 7.09944 12.1458L6.89735 12.7946L6.65354 13.5769C6.65137 13.5846 6.64946 13.5923 6.64781 13.6001H6.64699ZM10.3205 10.8003C10.429 10.8003 10.5331 10.8424 10.6098 10.9174C10.6865 10.9924 10.7296 11.0942 10.7296 11.2003C10.7296 11.3063 10.6865 11.4081 10.6098 11.4831C10.5331 11.5581 10.429 11.6002 10.3205 11.6002H8.68422C8.57572 11.6002 8.47167 11.5581 8.39495 11.4831C8.31824 11.4081 8.27514 11.3063 8.27514 11.2003C8.27514 11.0942 8.31824 10.9924 8.39495 10.9174C8.47167 10.8424 8.57572 10.8003 8.68422 10.8003H10.3205ZM11.9569 10.0003H8.68422C8.57572 10.0003 8.47167 9.95819 8.39495 9.88318C8.31824 9.80817 8.27514 9.70643 8.27514 9.60035C8.27514 9.49427 8.31824 9.39253 8.39495 9.31752C8.47167 9.24251 8.57572 9.20037 8.68422 9.20037H11.9569C12.0654 9.20037 12.1694 9.24251 12.2461 9.31752C12.3229 9.39253 12.366 9.49427 12.366 9.60035C12.366 9.70643 12.3229 9.80817 12.2461 9.88318C12.1694 9.95819 12.0654 10.0003 11.9569 10.0003ZM6.63799 4.80062C7.59852 4.80062 8.40522 5.44858 8.62449 6.32373C8.35613 6.43013 8.10087 6.56132 7.86115 6.71411C7.84423 6.48473 7.76025 6.26494 7.61922 6.0809C7.47818 5.89686 7.28602 5.75632 7.06562 5.67601C6.84522 5.59571 6.60586 5.57902 6.37603 5.62794C6.14621 5.67686 5.9356 5.78932 5.76929 5.95193C5.60297 6.11455 5.48795 6.32047 5.43792 6.54518C5.38789 6.76989 5.40496 7.00392 5.48709 7.21942C5.56922 7.43491 5.71296 7.6228 5.90119 7.76069C6.08942 7.89859 6.31421 7.9807 6.54881 7.99724C6.39159 8.23267 6.25789 8.48234 6.14955 8.7428C5.6652 8.62497 5.2416 8.33813 4.95847 7.93624C4.67533 7.53436 4.55219 7.04515 4.61222 6.56068C4.67224 6.07622 4.9113 5.62992 5.28439 5.30576C5.65748 4.9816 6.13888 4.80195 6.63799 4.80062Z" fill="#FA902D"/>
</svg>
