<svg width="14" height="14" viewBox="0 0 14 14" fill="none" xmlns="http://www.w3.org/2000/svg">
<path id="Vector" d="M5.76471 0C4.89105 0 4.05318 0.347058 3.43541 0.964825C2.81765 1.58259 2.47059 2.42046 2.47059 3.29412C2.47059 4.16777 2.81765 5.00564 3.43541 5.62341C4.05318 6.24118 4.89105 6.58824 5.76471 6.58824C6.63836 6.58824 7.47623 6.24118 8.094 5.62341C8.71177 5.00564 9.05882 4.16777 9.05882 3.29412C9.05882 2.42046 8.71177 1.58259 8.094 0.964825C7.47623 0.347058 6.63836 0 5.76471 0ZM3.29412 3.29412C3.29412 2.63888 3.55441 2.01047 4.01774 1.54715C4.48106 1.08382 5.10947 0.823529 5.76471 0.823529C6.41995 0.823529 7.04835 1.08382 7.51168 1.54715C7.975 2.01047 8.23529 2.63888 8.23529 3.29412C8.23529 3.94936 7.975 4.57776 7.51168 5.04109C7.04835 5.50441 6.41995 5.76471 5.76471 5.76471C5.10947 5.76471 4.48106 5.50441 4.01774 5.04109C3.55441 4.57776 3.29412 3.94936 3.29412 3.29412ZM1.65447 7.41176C1.43758 7.4109 1.22266 7.45285 1.02202 7.53523C0.821383 7.6176 0.63898 7.73877 0.485272 7.89179C0.331565 8.04481 0.209576 8.22667 0.126302 8.42693C0.0430277 8.6272 0.000106657 8.84193 0 9.05882C0 10.4514 0.686 11.5014 1.75824 12.1858C2.814 12.8586 4.23706 13.1765 5.76471 13.1765C6.10235 13.1765 6.43671 13.1608 6.76118 13.1295C6.56466 12.8849 6.3941 12.6205 6.25224 12.3406C6.09247 12.3488 5.92941 12.3529 5.76471 12.3529C4.33588 12.3529 3.08247 12.0532 2.20129 11.4907C1.33659 10.9389 0.823529 10.1376 0.823529 9.05882C0.823529 8.60341 1.19247 8.23529 1.65447 8.23529H6.258C6.40953 7.94047 6.59153 7.66459 6.79988 7.41176H1.65447ZM10.2941 14C11.277 14 12.2196 13.6096 12.9146 12.9146C13.6096 12.2196 14 11.277 14 10.2941C14 9.31126 13.6096 8.36865 12.9146 7.67366C12.2196 6.97868 11.277 6.58824 10.2941 6.58824C9.31126 6.58824 8.36865 6.97868 7.67366 7.67366C6.97868 8.36865 6.58824 9.31126 6.58824 10.2941C6.58824 11.277 6.97868 12.2196 7.67366 12.9146C8.36865 13.6096 9.31126 14 10.2941 14ZM10.2941 8.23529C10.4033 8.23529 10.5081 8.27868 10.5853 8.3559C10.6625 8.43312 10.7059 8.53785 10.7059 8.64706V9.88235H11.9412C12.0504 9.88235 12.1551 9.92573 12.2323 10.003C12.3096 10.0802 12.3529 10.1849 12.3529 10.2941C12.3529 10.4033 12.3096 10.5081 12.2323 10.5853C12.1551 10.6625 12.0504 10.7059 11.9412 10.7059H10.7059V11.9412C10.7059 12.0504 10.6625 12.1551 10.5853 12.2323C10.5081 12.3096 10.4033 12.3529 10.2941 12.3529C10.1849 12.3529 10.0802 12.3096 10.003 12.2323C9.92573 12.1551 9.88235 12.0504 9.88235 11.9412V10.7059H8.64706C8.53785 10.7059 8.43312 10.6625 8.3559 10.5853C8.27868 10.5081 8.23529 10.4033 8.23529 10.2941C8.23529 10.1849 8.27868 10.0802 8.3559 10.003C8.43312 9.92573 8.53785 9.88235 8.64706 9.88235H9.88235V8.64706C9.88235 8.53785 9.92573 8.43312 10.003 8.3559C10.0802 8.27868 10.1849 8.23529 10.2941 8.23529Z" fill="#FA902D"/>
</svg>
