<svg width="22" height="16" viewBox="0 0 22 16" fill="none" xmlns="http://www.w3.org/2000/svg">
<path id="Vector" d="M20.7778 0H1.22222C0.898069 0 0.587192 0.133082 0.357981 0.36997C0.12877 0.606858 0 0.928148 0 1.26316V14.7368C0 15.0719 0.12877 15.3931 0.357981 15.63C0.587192 15.8669 0.898069 16 1.22222 16H20.7778C21.1019 16 21.4128 15.8669 21.642 15.63C21.8712 15.3931 22 15.0719 22 14.7368V1.26316C22 0.928148 21.8712 0.606858 21.642 0.36997C21.4128 0.133082 21.1019 0 20.7778 0ZM1.22222 0.842105H20.7778C20.8858 0.842105 20.9895 0.886466 21.0659 0.965429C21.1423 1.04439 21.1852 1.15149 21.1852 1.26316V4.21053H0.814815V1.26316C0.814815 1.15149 0.857738 1.04439 0.934142 0.965429C1.01055 0.886466 1.11417 0.842105 1.22222 0.842105ZM20.7778 15.1579H1.22222C1.11417 15.1579 1.01055 15.1135 0.934142 15.0346C0.857738 14.9556 0.814815 14.8485 0.814815 14.7368V5.05263H21.1852V14.7368C21.1852 14.8485 21.1423 14.9556 21.0659 15.0346C20.9895 15.1135 20.8858 15.1579 20.7778 15.1579ZM18.7407 12.2105C18.7407 12.3222 18.6978 12.4293 18.6214 12.5083C18.545 12.5872 18.4414 12.6316 18.3333 12.6316H15.0741C14.966 12.6316 14.8624 12.5872 14.786 12.5083C14.7096 12.4293 14.6667 12.3222 14.6667 12.2105C14.6667 12.0989 14.7096 11.9918 14.786 11.9128C14.8624 11.8338 14.966 11.7895 15.0741 11.7895H18.3333C18.4414 11.7895 18.545 11.8338 18.6214 11.9128C18.6978 11.9918 18.7407 12.0989 18.7407 12.2105ZM12.2222 12.2105C12.2222 12.3222 12.1793 12.4293 12.1029 12.5083C12.0265 12.5872 11.9229 12.6316 11.8148 12.6316H10.1852C10.0771 12.6316 9.97351 12.5872 9.8971 12.5083C9.8207 12.4293 9.77778 12.3222 9.77778 12.2105C9.77778 12.0989 9.8207 11.9918 9.8971 11.9128C9.97351 11.8338 10.0771 11.7895 10.1852 11.7895H11.8148C11.9229 11.7895 12.0265 11.8338 12.1029 11.9128C12.1793 11.9918 12.2222 12.0989 12.2222 12.2105Z" fill="#FA902D"/>
</svg>
