<svg width="207" height="27" viewBox="0 0 207 27" fill="none" xmlns="http://www.w3.org/2000/svg">
<path d="M6.46 21.5C6.796 21.596 7.228 21.668 7.756 21.716C8.284 21.74 8.788 21.752 9.268 21.752C10.228 21.752 11.02 21.56 11.644 21.176C12.292 20.768 12.616 20.144 12.616 19.304C12.616 18.512 12.352 17.948 11.824 17.612C11.296 17.276 10.492 17.108 9.412 17.108H6.46V21.5ZM6.46 12.716H9.088C10.12 12.716 10.864 12.524 11.32 12.14C11.8 11.756 12.04 11.192 12.04 10.448C12.04 9.8 11.764 9.284 11.212 8.9C10.684 8.516 9.88 8.324 8.8 8.324C8.44 8.324 8.02 8.336 7.54 8.36C7.084 8.384 6.724 8.42 6.46 8.468V12.716ZM8.8 26.576C8.392 26.576 7.912 26.564 7.36 26.54C6.808 26.516 6.232 26.468 5.632 26.396C5.056 26.324 4.48 26.228 3.904 26.108C3.328 26.012 2.8 25.868 2.32 25.676C1 25.172 0.34 24.296 0.34 23.048V6.236C0.34 5.732 0.472 5.348 0.736 5.084C1.024 4.796 1.408 4.568 1.888 4.4C2.704 4.112 3.724 3.908 4.948 3.788C6.172 3.644 7.432 3.572 8.728 3.572C11.8 3.572 14.164 4.088 15.82 5.12C17.476 6.152 18.304 7.748 18.304 9.908C18.304 10.988 17.992 11.924 17.368 12.716C16.744 13.484 15.904 14.048 14.848 14.408C16.048 14.744 17.044 15.356 17.836 16.244C18.652 17.132 19.06 18.248 19.06 19.592C19.06 21.968 18.172 23.732 16.396 24.884C14.644 26.012 12.112 26.576 8.8 26.576ZM29.6156 25.964C29.3756 26.036 28.9916 26.108 28.4636 26.18C27.9596 26.252 27.4316 26.288 26.8796 26.288C26.3516 26.288 25.8716 26.252 25.4396 26.18C25.0316 26.108 24.6836 25.964 24.3956 25.748C24.1076 25.532 23.8796 25.244 23.7116 24.884C23.5676 24.5 23.4956 24.008 23.4956 23.408V12.608C23.4956 12.056 23.5916 11.588 23.7836 11.204C23.9996 10.796 24.2996 10.436 24.6836 10.124C25.0676 9.812 25.5356 9.536 26.0876 9.296C26.6636 9.032 27.2756 8.804 27.9236 8.612C28.5716 8.42 29.2436 8.276 29.9396 8.18C30.6356 8.06 31.3316 8 32.0276 8C33.1796 8 34.0916 8.228 34.7636 8.684C35.4356 9.116 35.7716 9.836 35.7716 10.844C35.7716 11.18 35.7236 11.516 35.6276 11.852C35.5316 12.164 35.4116 12.452 35.2676 12.716C34.7636 12.716 34.2476 12.74 33.7196 12.788C33.1916 12.836 32.6756 12.908 32.1716 13.004C31.6676 13.1 31.1876 13.208 30.7316 13.328C30.2996 13.424 29.9276 13.544 29.6156 13.688V25.964ZM39.7364 8.756C39.9764 8.684 40.3484 8.612 40.8524 8.54C41.3804 8.468 41.9204 8.432 42.4724 8.432C43.0004 8.432 43.4684 8.468 43.8764 8.54C44.3084 8.612 44.6684 8.756 44.9564 8.972C45.2444 9.188 45.4604 9.488 45.6044 9.872C45.7724 10.232 45.8564 10.712 45.8564 11.312V19.052C45.8564 20.036 46.0964 20.744 46.5764 21.176C47.0564 21.584 47.7524 21.788 48.6644 21.788C49.2164 21.788 49.6604 21.74 49.9964 21.644C50.3564 21.548 50.6324 21.452 50.8244 21.356V8.756C51.0644 8.684 51.4364 8.612 51.9404 8.54C52.4684 8.468 53.0084 8.432 53.5604 8.432C54.0884 8.432 54.5564 8.468 54.9644 8.54C55.3964 8.612 55.7564 8.756 56.0444 8.972C56.3324 9.188 56.5484 9.488 56.6924 9.872C56.8604 10.232 56.9444 10.712 56.9444 11.312V22.256C56.9444 23.456 56.4404 24.356 55.4324 24.956C54.5924 25.484 53.5844 25.88 52.4084 26.144C51.2564 26.432 49.9964 26.576 48.6284 26.576C47.3324 26.576 46.1324 26.432 45.0284 26.144C43.9484 25.856 43.0124 25.412 42.2204 24.812C41.4284 24.212 40.8164 23.444 40.3844 22.508C39.9524 21.548 39.7364 20.396 39.7364 19.052V8.756ZM73.2175 14.912C73.2175 14.168 73.0015 13.628 72.5695 13.292C72.1615 12.932 71.5975 12.752 70.8775 12.752C70.3975 12.752 69.9175 12.812 69.4375 12.932C68.9815 13.052 68.5855 13.232 68.2495 13.472V25.964C68.0095 26.036 67.6255 26.108 67.0975 26.18C66.5935 26.252 66.0655 26.288 65.5135 26.288C64.9855 26.288 64.5055 26.252 64.0735 26.18C63.6655 26.108 63.3175 25.964 63.0295 25.748C62.7415 25.532 62.5135 25.244 62.3455 24.884C62.2015 24.5 62.1295 24.008 62.1295 23.408V12.608C62.1295 11.96 62.2615 11.432 62.5255 11.024C62.8135 10.616 63.1975 10.244 63.6775 9.908C64.4935 9.332 65.5135 8.864 66.7375 8.504C67.9855 8.144 69.3655 7.964 70.8775 7.964C73.5895 7.964 75.6775 8.564 77.1415 9.764C78.6055 10.94 79.3375 12.584 79.3375 14.696V25.964C79.0975 26.036 78.7135 26.108 78.1855 26.18C77.6815 26.252 77.1535 26.288 76.6015 26.288C76.0735 26.288 75.5935 26.252 75.1615 26.18C74.7535 26.108 74.4055 25.964 74.1175 25.748C73.8295 25.532 73.6015 25.244 73.4335 24.884C73.2895 24.5 73.2175 24.008 73.2175 23.408V14.912ZM94.4218 12.788C93.8218 12.788 93.2458 12.884 92.6938 13.076C92.1658 13.268 91.6978 13.556 91.2898 13.94C90.9058 14.3 90.5938 14.756 90.3538 15.308C90.1138 15.86 89.9938 16.508 89.9938 17.252C89.9938 18.74 90.4138 19.856 91.2538 20.6C92.1178 21.344 93.1618 21.716 94.3858 21.716C95.1058 21.716 95.7298 21.632 96.2578 21.464C96.7858 21.296 97.2538 21.116 97.6618 20.924C98.1418 21.26 98.5018 21.632 98.7418 22.04C98.9818 22.424 99.1018 22.892 99.1018 23.444C99.1018 24.428 98.6338 25.196 97.6978 25.748C96.7618 26.276 95.4658 26.54 93.8098 26.54C92.2978 26.54 90.9298 26.324 89.7058 25.892C88.4818 25.436 87.4258 24.812 86.5378 24.02C85.6738 23.204 85.0018 22.232 84.5218 21.104C84.0418 19.976 83.8018 18.728 83.8018 17.36C83.8018 15.776 84.0538 14.396 84.5578 13.22C85.0858 12.02 85.7938 11.036 86.6818 10.268C87.5698 9.5 88.5898 8.924 89.7418 8.54C90.9178 8.156 92.1538 7.964 93.4498 7.964C95.1778 7.964 96.5098 8.276 97.4458 8.9C98.3818 9.524 98.8498 10.328 98.8498 11.312C98.8498 11.768 98.7418 12.2 98.5258 12.608C98.3098 12.992 98.0578 13.328 97.7698 13.616C97.3618 13.424 96.8698 13.244 96.2938 13.076C95.7178 12.884 95.0938 12.788 94.4218 12.788ZM120.891 25.964C120.651 26.036 120.267 26.108 119.739 26.18C119.235 26.252 118.707 26.288 118.155 26.288C117.627 26.288 117.147 26.252 116.715 26.18C116.307 26.108 115.959 25.964 115.671 25.748C115.383 25.532 115.155 25.244 114.987 24.884C114.843 24.5 114.771 24.008 114.771 23.408V15.416C114.771 14.432 114.519 13.748 114.015 13.364C113.535 12.956 112.935 12.752 112.215 12.752C111.735 12.752 111.279 12.812 110.847 12.932C110.415 13.052 110.067 13.196 109.803 13.364V25.964C109.563 26.036 109.179 26.108 108.651 26.18C108.147 26.252 107.619 26.288 107.067 26.288C106.539 26.288 106.059 26.252 105.627 26.18C105.219 26.108 104.871 25.964 104.583 25.748C104.295 25.532 104.067 25.244 103.899 24.884C103.755 24.5 103.683 24.008 103.683 23.408V2.528C103.947 2.48 104.331 2.42 104.835 2.348C105.363 2.252 105.891 2.204 106.419 2.204C106.947 2.204 107.415 2.24 107.823 2.312C108.255 2.384 108.615 2.528 108.903 2.744C109.191 2.96 109.407 3.26 109.551 3.644C109.719 4.004 109.803 4.484 109.803 5.084V8.612C110.115 8.492 110.583 8.36 111.207 8.216C111.855 8.048 112.563 7.964 113.331 7.964C115.707 7.964 117.555 8.564 118.875 9.764C120.219 10.94 120.891 12.704 120.891 15.056V25.964ZM132.698 21.5C133.034 21.596 133.466 21.668 133.994 21.716C134.522 21.74 135.026 21.752 135.506 21.752C136.466 21.752 137.258 21.56 137.882 21.176C138.53 20.768 138.854 20.144 138.854 19.304C138.854 18.512 138.59 17.948 138.062 17.612C137.534 17.276 136.73 17.108 135.65 17.108H132.698V21.5ZM132.698 12.716H135.326C136.358 12.716 137.102 12.524 137.558 12.14C138.038 11.756 138.278 11.192 138.278 10.448C138.278 9.8 138.002 9.284 137.45 8.9C136.922 8.516 136.118 8.324 135.038 8.324C134.678 8.324 134.258 8.336 133.778 8.36C133.322 8.384 132.962 8.42 132.698 8.468V12.716ZM135.038 26.576C134.63 26.576 134.15 26.564 133.598 26.54C133.046 26.516 132.47 26.468 131.87 26.396C131.294 26.324 130.718 26.228 130.142 26.108C129.566 26.012 129.038 25.868 128.558 25.676C127.238 25.172 126.578 24.296 126.578 23.048V6.236C126.578 5.732 126.71 5.348 126.974 5.084C127.262 4.796 127.646 4.568 128.126 4.4C128.942 4.112 129.962 3.908 131.186 3.788C132.41 3.644 133.67 3.572 134.966 3.572C138.038 3.572 140.402 4.088 142.058 5.12C143.714 6.152 144.542 7.748 144.542 9.908C144.542 10.988 144.23 11.924 143.606 12.716C142.982 13.484 142.142 14.048 141.086 14.408C142.286 14.744 143.282 15.356 144.074 16.244C144.89 17.132 145.298 18.248 145.298 19.592C145.298 21.968 144.41 23.732 142.634 24.884C140.882 26.012 138.35 26.576 135.038 26.576ZM156.067 25.964C155.803 26.012 155.407 26.072 154.879 26.144C154.375 26.24 153.859 26.288 153.331 26.288C152.803 26.288 152.323 26.252 151.891 26.18C151.483 26.108 151.135 25.964 150.847 25.748C150.559 25.532 150.331 25.244 150.163 24.884C150.019 24.5 149.947 24.008 149.947 23.408V2.528C150.211 2.48 150.595 2.42 151.099 2.348C151.627 2.252 152.155 2.204 152.683 2.204C153.211 2.204 153.679 2.24 154.087 2.312C154.519 2.384 154.879 2.528 155.167 2.744C155.455 2.96 155.671 3.26 155.815 3.644C155.983 4.004 156.067 4.484 156.067 5.084V25.964ZM161.225 3.644C161.225 2.732 161.525 1.964 162.125 1.34C162.749 0.715999 163.565 0.403999 164.573 0.403999C165.581 0.403999 166.385 0.715999 166.985 1.34C167.609 1.964 167.921 2.732 167.921 3.644C167.921 4.556 167.609 5.324 166.985 5.948C166.385 6.572 165.581 6.884 164.573 6.884C163.565 6.884 162.749 6.572 162.125 5.948C161.525 5.324 161.225 4.556 161.225 3.644ZM167.633 25.964C167.369 26.012 166.973 26.072 166.445 26.144C165.941 26.24 165.425 26.288 164.897 26.288C164.369 26.288 163.889 26.252 163.457 26.18C163.049 26.108 162.701 25.964 162.413 25.748C162.125 25.532 161.897 25.244 161.729 24.884C161.585 24.5 161.513 24.008 161.513 23.408V8.756C161.777 8.708 162.161 8.648 162.665 8.576C163.193 8.48 163.721 8.432 164.249 8.432C164.777 8.432 165.245 8.468 165.653 8.54C166.085 8.612 166.445 8.756 166.733 8.972C167.021 9.188 167.237 9.488 167.381 9.872C167.549 10.232 167.633 10.712 167.633 11.312V25.964ZM187.729 20.78C187.729 22.604 187.045 24.032 185.677 25.064C184.309 26.096 182.293 26.612 179.629 26.612C178.621 26.612 177.685 26.54 176.821 26.396C175.957 26.252 175.213 26.036 174.589 25.748C173.989 25.436 173.509 25.052 173.149 24.596C172.813 24.14 172.645 23.6 172.645 22.976C172.645 22.4 172.765 21.92 173.005 21.536C173.245 21.128 173.533 20.792 173.869 20.528C174.565 20.912 175.357 21.26 176.245 21.572C177.157 21.86 178.201 22.004 179.377 22.004C180.121 22.004 180.685 21.896 181.069 21.68C181.477 21.464 181.681 21.176 181.681 20.816C181.681 20.48 181.537 20.216 181.249 20.024C180.961 19.832 180.481 19.676 179.809 19.556L178.729 19.34C176.641 18.932 175.081 18.296 174.049 17.432C173.041 16.544 172.537 15.284 172.537 13.652C172.537 12.764 172.729 11.96 173.113 11.24C173.497 10.52 174.037 9.92 174.733 9.44C175.429 8.96 176.257 8.588 177.217 8.324C178.201 8.06 179.281 7.928 180.457 7.928C181.345 7.928 182.173 8 182.941 8.144C183.733 8.264 184.417 8.456 184.993 8.72C185.569 8.984 186.025 9.332 186.361 9.764C186.697 10.172 186.865 10.664 186.865 11.24C186.865 11.792 186.757 12.272 186.541 12.68C186.349 13.064 186.097 13.388 185.785 13.652C185.593 13.532 185.305 13.412 184.921 13.292C184.537 13.148 184.117 13.028 183.661 12.932C183.205 12.812 182.737 12.716 182.257 12.644C181.801 12.572 181.381 12.536 180.997 12.536C180.205 12.536 179.593 12.632 179.161 12.824C178.729 12.992 178.513 13.268 178.513 13.652C178.513 13.916 178.633 14.132 178.873 14.3C179.113 14.468 179.569 14.624 180.241 14.768L181.357 15.02C183.661 15.548 185.293 16.28 186.253 17.216C187.237 18.128 187.729 19.316 187.729 20.78ZM206.887 20.78C206.887 22.604 206.203 24.032 204.835 25.064C203.467 26.096 201.451 26.612 198.787 26.612C197.779 26.612 196.843 26.54 195.979 26.396C195.115 26.252 194.371 26.036 193.747 25.748C193.147 25.436 192.667 25.052 192.307 24.596C191.971 24.14 191.803 23.6 191.803 22.976C191.803 22.4 191.923 21.92 192.163 21.536C192.403 21.128 192.691 20.792 193.027 20.528C193.723 20.912 194.515 21.26 195.403 21.572C196.315 21.86 197.359 22.004 198.535 22.004C199.279 22.004 199.843 21.896 200.227 21.68C200.635 21.464 200.839 21.176 200.839 20.816C200.839 20.48 200.695 20.216 200.407 20.024C200.119 19.832 199.639 19.676 198.967 19.556L197.887 19.34C195.799 18.932 194.239 18.296 193.207 17.432C192.199 16.544 191.695 15.284 191.695 13.652C191.695 12.764 191.887 11.96 192.271 11.24C192.655 10.52 193.195 9.92 193.891 9.44C194.587 8.96 195.415 8.588 196.375 8.324C197.359 8.06 198.439 7.928 199.615 7.928C200.503 7.928 201.331 8 202.099 8.144C202.891 8.264 203.575 8.456 204.151 8.72C204.727 8.984 205.183 9.332 205.519 9.764C205.855 10.172 206.023 10.664 206.023 11.24C206.023 11.792 205.915 12.272 205.699 12.68C205.507 13.064 205.255 13.388 204.943 13.652C204.751 13.532 204.463 13.412 204.079 13.292C203.695 13.148 203.275 13.028 202.819 12.932C202.363 12.812 201.895 12.716 201.415 12.644C200.959 12.572 200.539 12.536 200.155 12.536C199.363 12.536 198.751 12.632 198.319 12.824C197.887 12.992 197.671 13.268 197.671 13.652C197.671 13.916 197.791 14.132 198.031 14.3C198.271 14.468 198.727 14.624 199.399 14.768L200.515 15.02C202.819 15.548 204.451 16.28 205.411 17.216C206.395 18.128 206.887 19.316 206.887 20.78Z" fill="#FF6635"/>
<path d="M6.46 21.5H5.46V22.2543L6.18528 22.4615L6.46 21.5ZM7.756 21.716L7.66547 22.7119L7.68799 22.7139L7.71059 22.715L7.756 21.716ZM11.644 21.176L12.1681 22.0277L12.1768 22.0222L11.644 21.176ZM11.824 17.612L11.2871 18.4557L11.824 17.612ZM6.46 17.108V16.108H5.46V17.108H6.46ZM6.46 12.716H5.46V13.716H6.46V12.716ZM11.32 12.14L10.6953 11.3591L10.6855 11.367L10.6759 11.3751L11.32 12.14ZM11.212 8.9L10.6238 9.70873L10.6323 9.71491L10.6409 9.7209L11.212 8.9ZM7.54 8.36L7.49006 7.36124L7.48744 7.36138L7.54 8.36ZM6.46 8.468L6.28111 7.48413L5.46 7.63342V8.468H6.46ZM5.632 26.396L5.50796 27.3883L5.51286 27.3889L5.632 26.396ZM3.904 26.108L4.10795 25.129L4.08825 25.1249L4.0684 25.1216L3.904 26.108ZM2.32 25.676L2.69139 24.7475L2.68407 24.7446L2.6767 24.7418L2.32 25.676ZM0.736 5.084L1.44311 5.79111L1.44311 5.79111L0.736 5.084ZM1.888 4.4L2.21835 5.34386L2.22082 5.34299L1.888 4.4ZM4.948 3.788L5.04557 4.78323L5.05522 4.78228L5.06484 4.78115L4.948 3.788ZM15.82 5.12L16.3489 4.27131V4.27131L15.82 5.12ZM17.368 12.716L18.1441 13.3466L18.1488 13.3408L18.1535 13.3349L17.368 12.716ZM14.848 14.408L14.5253 13.4615L11.474 14.5017L14.5784 15.371L14.848 14.408ZM17.836 16.244L17.0897 16.9096L17.0946 16.9152L17.0997 16.9206L17.836 16.244ZM16.396 24.884L16.9373 25.7248L16.9402 25.723L16.396 24.884ZM6.18528 22.4615C6.6038 22.5811 7.10356 22.6608 7.66547 22.7119L7.84654 20.7201C7.35244 20.6752 6.9882 20.6109 6.73472 20.5385L6.18528 22.4615ZM7.71059 22.715C8.25223 22.7396 8.77144 22.752 9.268 22.752V20.752C8.80457 20.752 8.31577 20.7404 7.80141 20.717L7.71059 22.715ZM9.268 22.752C10.3569 22.752 11.3447 22.5344 12.1681 22.0277L11.1199 20.3243C10.6953 20.5856 10.0991 20.752 9.268 20.752V22.752ZM12.1768 22.0222C13.1477 21.4109 13.616 20.4478 13.616 19.304H11.616C11.616 19.8402 11.4363 20.1251 11.1112 20.3298L12.1768 22.0222ZM13.616 19.304C13.616 18.2735 13.2549 17.3373 12.3609 16.7683L11.2871 18.4557C11.4491 18.5587 11.616 18.7505 11.616 19.304H13.616ZM12.3609 16.7683C11.5939 16.2803 10.5606 16.108 9.412 16.108V18.108C10.4234 18.108 10.9981 18.2717 11.2871 18.4557L12.3609 16.7683ZM9.412 16.108H6.46V18.108H9.412V16.108ZM5.46 17.108V21.5H7.46V17.108H5.46ZM6.46 13.716H9.088V11.716H6.46V13.716ZM9.088 13.716C10.1993 13.716 11.2364 13.5178 11.9641 12.9049L10.6759 11.3751C10.4916 11.5302 10.0407 11.716 9.088 11.716V13.716ZM11.9447 12.9209C12.7122 12.3069 13.04 11.425 13.04 10.448H11.04C11.04 10.959 10.8878 11.2051 10.6953 11.3591L11.9447 12.9209ZM13.04 10.448C13.04 9.45824 12.5917 8.64165 11.7831 8.07909L10.6409 9.7209C10.9363 9.92635 11.04 10.1418 11.04 10.448H13.04ZM11.8002 8.09126C11.0218 7.52518 9.96554 7.324 8.8 7.324V9.324C9.79446 9.324 10.3462 9.50682 10.6238 9.70873L11.8002 8.09126ZM8.8 7.324C8.41891 7.324 7.98158 7.33667 7.49006 7.36125L7.58994 9.35875C8.05842 9.33533 8.46109 9.324 8.8 9.324V7.324ZM7.48744 7.36138C7.01401 7.3863 6.6058 7.4251 6.28111 7.48413L6.63889 9.45187C6.8422 9.4149 7.15399 9.3817 7.59256 9.35862L7.48744 7.36138ZM5.46 8.468V12.716H7.46V8.468H5.46ZM8.8 25.576C8.41052 25.576 7.94565 25.5645 7.40344 25.5409L7.31656 27.5391C7.87835 27.5635 8.37348 27.576 8.8 27.576V25.576ZM7.40344 25.5409C6.87896 25.5181 6.3283 25.4724 5.75115 25.4031L5.51286 27.3889C6.1357 27.4636 6.73704 27.5139 7.31656 27.5391L7.40344 25.5409ZM5.75604 25.4037C5.2072 25.3351 4.65786 25.2436 4.10795 25.129L3.70005 27.087C4.30214 27.2124 4.9048 27.3129 5.50797 27.3883L5.75604 25.4037ZM4.0684 25.1216C3.55431 25.0359 3.09674 24.9097 2.69139 24.7475L1.94861 26.6045C2.50326 26.8263 3.10169 26.9881 3.7396 27.0944L4.0684 25.1216ZM2.6767 24.7418C2.14245 24.5378 1.8222 24.2895 1.63369 24.0392C1.452 23.7981 1.34 23.4862 1.34 23.048H-0.66C-0.66 23.8578 -0.441995 24.6079 0.036315 25.2427C0.507796 25.8685 1.17755 26.3102 1.9633 26.6102L2.6767 24.7418ZM1.34 23.048V6.236H-0.66V23.048H1.34ZM1.34 6.236C1.34 5.90176 1.4248 5.80942 1.44311 5.79111L0.0288942 4.37689C-0.480795 4.88658 -0.66 5.56224 -0.66 6.236H1.34ZM1.44311 5.79111C1.60185 5.63236 1.84576 5.47426 2.21835 5.34386L1.55765 3.45614C0.970236 3.66173 0.446147 3.95964 0.0288928 4.37689L1.44311 5.79111ZM2.22082 5.34299C2.93638 5.09044 3.87113 4.89837 5.04557 4.78323L4.85043 2.79277C3.57687 2.91763 2.47162 3.13356 1.55518 3.45701L2.22082 5.34299ZM5.06484 4.78115C6.24813 4.64194 7.46906 4.572 8.728 4.572V2.572C7.39495 2.572 6.09587 2.64606 4.83116 2.79485L5.06484 4.78115ZM8.728 4.572C11.7112 4.572 13.8604 5.0771 15.2911 5.96869L16.3489 4.27131C14.4676 3.0989 11.8888 2.572 8.728 2.572V4.572ZM15.2911 5.96869C16.6186 6.79594 17.304 8.0492 17.304 9.908H19.304C19.304 7.4468 18.3334 5.50806 16.3489 4.27131L15.2911 5.96869ZM17.304 9.908C17.304 10.7806 17.0573 11.4945 16.5825 12.0971L18.1535 13.3349C18.9267 12.3535 19.304 11.1954 19.304 9.908H17.304ZM16.5919 12.0854C16.101 12.6896 15.4268 13.1542 14.5253 13.4615L15.1707 15.3545C16.3812 14.9418 17.387 14.2784 18.1441 13.3466L16.5919 12.0854ZM14.5784 15.371C15.6035 15.658 16.4311 16.1712 17.0897 16.9096L18.5823 15.5784C17.6569 14.5408 16.4925 13.83 15.1176 13.445L14.5784 15.371ZM17.0997 16.9206C17.7262 17.6025 18.06 18.4676 18.06 19.592H20.06C20.06 18.0284 19.5778 16.6615 18.5723 15.5674L17.0997 16.9206ZM18.06 19.592C18.06 21.6781 17.3048 23.1025 15.8518 24.045L16.9402 25.723C19.0392 24.3615 20.06 22.2579 20.06 19.592H18.06ZM15.8547 24.0432C14.3333 25.0227 12.0234 25.576 8.8 25.576V27.576C12.2006 27.576 14.9547 27.0013 16.9373 25.7248L15.8547 24.0432ZM29.6156 25.964L29.9029 26.9218L30.6156 26.708V25.964H29.6156ZM28.4636 26.18L28.3285 25.1891L28.3222 25.1901L28.4636 26.18ZM25.4396 26.18L25.2658 27.1648L25.2752 27.1664L25.4396 26.18ZM24.3956 25.748L24.9956 24.948L24.3956 25.748ZM23.7116 24.884L22.7753 25.2351L22.7889 25.2716L22.8054 25.3069L23.7116 24.884ZM23.7836 11.204L22.8998 10.7361L22.8944 10.7464L22.8892 10.7568L23.7836 11.204ZM24.6836 10.124L25.3142 10.9001H25.3142L24.6836 10.124ZM26.0876 9.296L26.4863 10.2131L26.4953 10.2092L26.5042 10.2051L26.0876 9.296ZM27.9236 8.612L28.2077 9.5708H28.2077L27.9236 8.612ZM29.9396 8.18L30.0762 9.17062L30.0929 9.16832L30.1095 9.16546L29.9396 8.18ZM34.7636 8.684L34.2021 9.51147L34.2124 9.51846L34.2228 9.52518L34.7636 8.684ZM35.6276 11.852L36.5834 12.1461L36.5863 12.1364L36.5891 12.1267L35.6276 11.852ZM35.2676 12.716V13.716H35.8612L36.1455 13.1949L35.2676 12.716ZM33.7196 12.788L33.8101 13.7839L33.7196 12.788ZM32.1716 13.004L31.9845 12.0217L32.1716 13.004ZM30.7316 13.328L30.9485 14.3042L30.9674 14.3L30.9861 14.2951L30.7316 13.328ZM29.6156 13.688L29.1965 12.78L28.6156 13.0482V13.688H29.6156ZM29.3282 25.0062C29.1676 25.0544 28.849 25.1182 28.3285 25.1892L28.5987 27.1708C29.1342 27.0978 29.5836 27.0176 29.9029 26.9218L29.3282 25.0062ZM28.3222 25.1901C27.8687 25.2548 27.3882 25.288 26.8796 25.288V27.288C27.475 27.288 28.0504 27.2492 28.605 27.1699L28.3222 25.1901ZM26.8796 25.288C26.3959 25.288 25.972 25.2549 25.604 25.1936L25.2752 27.1664C25.7712 27.2491 26.3073 27.288 26.8796 27.288V25.288ZM25.6134 25.1952C25.3366 25.1464 25.1403 25.0565 24.9956 24.948L23.7956 26.548C24.2269 26.8715 24.7266 27.0696 25.2658 27.1648L25.6134 25.1952ZM24.9956 24.948C24.8523 24.8405 24.7236 24.6879 24.6178 24.4611L22.8054 25.3069C23.0356 25.8001 23.3629 26.2235 23.7956 26.548L24.9956 24.948ZM24.6479 24.5329C24.5607 24.3003 24.4956 23.9386 24.4956 23.408H22.4956C22.4956 24.0774 22.5745 24.6997 22.7753 25.2351L24.6479 24.5329ZM24.4956 23.408V12.608H22.4956V23.408H24.4956ZM24.4956 12.608C24.4956 12.1683 24.5724 11.8625 24.678 11.6512L22.8892 10.7568C22.6108 11.3135 22.4956 11.9437 22.4956 12.608H24.4956ZM24.6674 11.6719C24.8161 11.3909 25.0269 11.1336 25.3142 10.9001L24.053 9.34789C23.5723 9.73843 23.1831 10.2011 22.8998 10.7361L24.6674 11.6719ZM25.3142 10.9001C25.6144 10.6562 26.0003 10.4244 26.4863 10.2131L25.6889 8.37893C25.0709 8.64763 24.5208 8.96778 24.053 9.34789L25.3142 10.9001ZM26.5042 10.2051C27.0346 9.96201 27.602 9.75026 28.2077 9.5708L27.6395 7.6532C26.9492 7.85774 26.2926 8.10199 25.6709 8.38693L26.5042 10.2051ZM28.2077 9.5708C28.8055 9.39365 29.4282 9.26001 30.0762 9.17062L29.803 7.18938C29.059 7.29199 28.3376 7.44634 27.6395 7.6532L28.2077 9.5708ZM30.1095 9.16546C30.7502 9.05499 31.3894 9 32.0276 9V7C31.2738 7 30.521 7.06501 29.7697 7.19454L30.1095 9.16546ZM32.0276 9C33.0598 9 33.7518 9.20589 34.2021 9.51147L35.3251 7.85652C34.4314 7.25011 33.2993 7 32.0276 7V9ZM34.2228 9.52518C34.5327 9.72437 34.7716 10.0749 34.7716 10.844H36.7716C36.7716 9.59707 36.3385 8.50763 35.3044 7.84282L34.2228 9.52518ZM34.7716 10.844C34.7716 11.0834 34.7376 11.327 34.6661 11.5773L36.5891 12.1267C36.7096 11.705 36.7716 11.2766 36.7716 10.844H34.7716ZM34.6718 11.5579C34.5939 11.8113 34.499 12.0367 34.3897 12.2371L36.1455 13.1949C36.3242 12.8673 36.4693 12.5167 36.5834 12.1461L34.6718 11.5579ZM35.2676 11.716C34.7319 11.716 34.1856 11.7415 33.6291 11.7921L33.8101 13.7839C34.3096 13.7385 34.7953 13.716 35.2676 13.716V11.716ZM33.6291 11.7921C33.0697 11.843 32.5215 11.9194 31.9845 12.0217L32.3587 13.9863C32.8297 13.8966 33.3134 13.829 33.8101 13.7839L33.6291 11.7921ZM31.9845 12.0217C31.4598 12.1216 30.9572 12.2346 30.4771 12.3609L30.9861 14.2951C31.418 14.1814 31.8754 14.0784 32.3587 13.9863L31.9845 12.0217ZM30.5147 12.3518C30.0318 12.4591 29.5887 12.599 29.1965 12.78L30.0347 14.596C30.2665 14.489 30.5674 14.3889 30.9485 14.3042L30.5147 12.3518ZM28.6156 13.688V25.964H30.6156V13.688H28.6156ZM39.7364 8.756L39.449 7.79817L38.7364 8.01197V8.756H39.7364ZM40.8524 8.54L40.7173 7.54915L40.711 7.55005L40.8524 8.54ZM43.8764 8.54L43.7026 9.52483L43.712 9.52639L43.8764 8.54ZM44.9564 8.972L45.5564 8.172L44.9564 8.972ZM45.6044 9.872L44.668 10.2231L44.6817 10.2596L44.6982 10.2949L45.6044 9.872ZM46.5764 21.176L45.9074 21.9193L45.9179 21.9288L45.9287 21.9379L46.5764 21.176ZM49.9964 21.644L49.7387 20.6778L49.7302 20.68L49.7217 20.6825L49.9964 21.644ZM50.8244 21.356L51.2716 22.2504L51.8244 21.974V21.356H50.8244ZM50.8244 8.756L50.537 7.79817L49.8244 8.01197V8.756H50.8244ZM51.9404 8.54L51.8053 7.54915L51.799 7.55005L51.9404 8.54ZM54.9644 8.54L54.7906 9.52483L54.8 9.52639L54.9644 8.54ZM56.0444 8.972L55.4444 9.772L55.4444 9.772L56.0444 8.972ZM56.6924 9.872L55.756 10.2231L55.7697 10.2596L55.7862 10.2949L56.6924 9.872ZM55.4324 24.956L54.9209 24.0967L54.9105 24.1029L54.9002 24.1094L55.4324 24.956ZM52.4084 26.144L52.1893 25.1683L52.1776 25.1709L52.1658 25.1739L52.4084 26.144ZM45.0284 26.144L44.7707 27.1102L44.776 27.1116L45.0284 26.144ZM42.2204 24.812L41.6165 25.6091L42.2204 24.812ZM40.3844 22.508L39.4724 22.9184L39.4764 22.9271L40.3844 22.508ZM40.0237 9.71383C40.1889 9.66428 40.4997 9.60053 40.9938 9.52995L40.711 7.55005C40.1971 7.62346 39.7639 7.70371 39.449 7.79817L40.0237 9.71383ZM40.9875 9.53083C41.4691 9.46515 41.964 9.432 42.4724 9.432V7.432C41.8768 7.432 41.2916 7.47085 40.7173 7.54917L40.9875 9.53083ZM42.4724 9.432C42.9571 9.432 43.365 9.46522 43.7026 9.52478L44.0502 7.55522C43.5717 7.47078 43.0436 7.432 42.4724 7.432V9.432ZM43.712 9.52639C44.0198 9.57769 44.2214 9.67078 44.3564 9.772L45.5564 8.172C45.1153 7.84122 44.597 7.64631 44.0408 7.55361L43.712 9.52639ZM44.3564 9.772C44.4713 9.85819 44.5815 9.99224 44.668 10.2231L46.5407 9.52088C46.3393 8.98376 46.0174 8.5178 45.5564 8.172L44.3564 9.772ZM44.6982 10.2949C44.781 10.4724 44.8564 10.7903 44.8564 11.312H46.8564C46.8564 10.6337 46.7637 9.99162 46.5106 9.44911L44.6982 10.2949ZM44.8564 11.312V19.052H46.8564V11.312H44.8564ZM44.8564 19.052C44.8564 20.1712 45.1272 21.2171 45.9074 21.9193L47.2453 20.4327C47.0656 20.2709 46.8564 19.9008 46.8564 19.052H44.8564ZM45.9287 21.9379C46.6555 22.5557 47.6191 22.788 48.6644 22.788V20.788C47.8857 20.788 47.4573 20.6123 47.224 20.4141L45.9287 21.9379ZM48.6644 22.788C49.2622 22.788 49.8096 22.7374 50.2711 22.6055L49.7217 20.6825C49.5111 20.7426 49.1706 20.788 48.6644 20.788V22.788ZM50.254 22.6102C50.6393 22.5075 50.9906 22.3909 51.2716 22.2504L50.3772 20.4616C50.2742 20.5131 50.0735 20.5885 49.7387 20.6778L50.254 22.6102ZM51.8244 21.356V8.756H49.8244V21.356H51.8244ZM51.1117 9.71383C51.2769 9.66428 51.5877 9.60053 52.0818 9.52995L51.799 7.55005C51.2851 7.62346 50.8519 7.70371 50.537 7.79817L51.1117 9.71383ZM52.0755 9.53083C52.5571 9.46515 53.052 9.432 53.5604 9.432V7.432C52.9648 7.432 52.3796 7.47085 51.8053 7.54917L52.0755 9.53083ZM53.5604 9.432C54.0451 9.432 54.453 9.46522 54.7906 9.52478L55.1382 7.55522C54.6597 7.47078 54.1316 7.432 53.5604 7.432V9.432ZM54.8 9.52639C55.1078 9.57769 55.3094 9.67078 55.4444 9.772L56.6444 8.172C56.2033 7.84122 55.685 7.64631 55.1288 7.55361L54.8 9.52639ZM55.4444 9.772C55.5593 9.8582 55.6695 9.99224 55.756 10.2231L57.6287 9.52088C57.4273 8.98376 57.1054 8.5178 56.6444 8.172L55.4444 9.772ZM55.7862 10.2949C55.869 10.4724 55.9444 10.7903 55.9444 11.312H57.9444C57.9444 10.6337 57.8517 9.99162 57.5986 9.44911L55.7862 10.2949ZM55.9444 11.312V22.256H57.9444V11.312H55.9444ZM55.9444 22.256C55.9444 23.1134 55.6175 23.682 54.9209 24.0967L55.9439 25.8153C57.2632 25.03 57.9444 23.7986 57.9444 22.256H55.9444ZM54.9002 24.1094C54.1746 24.5654 53.2774 24.924 52.1893 25.1683L52.6274 27.1197C53.8913 26.836 55.0101 26.4026 55.9646 25.8026L54.9002 24.1094ZM52.1658 25.1739C51.1041 25.4393 49.9267 25.576 48.6284 25.576V27.576C50.066 27.576 51.4087 27.4247 52.6509 27.1141L52.1658 25.1739ZM48.6284 25.576C47.4062 25.576 46.2921 25.4402 45.2808 25.1764L44.776 27.1116C45.9727 27.4238 47.2585 27.576 48.6284 27.576V25.576ZM45.286 25.1778C44.3157 24.919 43.5008 24.5274 42.8242 24.0149L41.6165 25.6091C42.524 26.2966 43.581 26.793 44.7707 27.1102L45.286 25.1778ZM42.8242 24.0149C42.1681 23.5178 41.6582 22.8817 41.2923 22.0889L39.4764 22.9271C39.9745 24.0063 40.6887 24.9062 41.6165 25.6091L42.8242 24.0149ZM41.2963 22.0976C40.9361 21.2971 40.7364 20.2922 40.7364 19.052H38.7364C38.7364 20.4998 38.9687 21.7989 39.4725 22.9184L41.2963 22.0976ZM40.7364 19.052V8.756H38.7364V19.052H40.7364ZM72.5695 13.292L71.9079 14.0418L71.9311 14.0623L71.9556 14.0814L72.5695 13.292ZM69.4375 12.932L69.1949 11.9618L69.183 11.9649L69.4375 12.932ZM68.2495 13.472L67.6683 12.6583L67.2495 12.9574V13.472H68.2495ZM68.2495 25.964L68.5368 26.9218L69.2495 26.708V25.964H68.2495ZM67.0975 26.18L66.9624 25.1891L66.9561 25.1901L67.0975 26.18ZM64.0735 26.18L63.8997 27.1648L63.9091 27.1664L64.0735 26.18ZM63.0295 25.748L63.6295 24.948L63.0295 25.748ZM62.3455 24.884L61.4092 25.2351L61.4228 25.2716L61.4393 25.3069L62.3455 24.884ZM62.5255 11.024L61.7085 10.4473L61.6969 10.4638L61.6859 10.4807L62.5255 11.024ZM63.6775 9.908L64.251 10.7272L64.2542 10.725L63.6775 9.908ZM66.7375 8.504L66.4603 7.54316L66.4553 7.54463L66.7375 8.504ZM77.1415 9.764L76.5075 10.5374L76.5153 10.5436L77.1415 9.764ZM79.3375 25.964L79.6248 26.9218L80.3375 26.708V25.964H79.3375ZM78.1855 26.18L78.0504 25.1891L78.0441 25.1901L78.1855 26.18ZM75.1615 26.18L74.9877 27.1648L74.9971 27.1664L75.1615 26.18ZM74.1175 25.748L73.5175 26.548L74.1175 25.748ZM73.4335 24.884L72.4972 25.2351L72.5108 25.2716L72.5273 25.3069L73.4335 24.884ZM74.2175 14.912C74.2175 13.9781 73.9395 13.0907 73.1834 12.5026L71.9556 14.0814C72.0635 14.1653 72.2175 14.3579 72.2175 14.912H74.2175ZM73.2311 12.5422C72.5882 11.9749 71.7611 11.752 70.8775 11.752V13.752C71.4339 13.752 71.7348 13.8891 71.9079 14.0418L73.2311 12.5422ZM70.8775 11.752C70.3132 11.752 69.7518 11.8226 69.195 11.9619L69.68 13.9021C70.0832 13.8014 70.4818 13.752 70.8775 13.752V11.752ZM69.183 11.9649C68.6262 12.1115 68.1159 12.3385 67.6683 12.6583L68.8307 14.2857C69.0551 14.1255 69.3368 13.9925 69.692 13.8991L69.183 11.9649ZM67.2495 13.472V25.964H69.2495V13.472H67.2495ZM67.9622 25.0062C67.8015 25.0544 67.4829 25.1182 66.9624 25.1892L67.2326 27.1708C67.7681 27.0978 68.2175 27.0176 68.5368 26.9218L67.9622 25.0062ZM66.9561 25.1901C66.5026 25.2548 66.0221 25.288 65.5135 25.288V27.288C66.1089 27.288 66.6844 27.2492 67.2389 27.1699L66.9561 25.1901ZM65.5135 25.288C65.0298 25.288 64.6059 25.2549 64.2379 25.1936L63.9091 27.1664C64.4051 27.2491 64.9412 27.288 65.5135 27.288V25.288ZM64.2473 25.1952C63.9705 25.1464 63.7742 25.0565 63.6295 24.948L62.4295 26.548C62.8608 26.8715 63.3605 27.0696 63.8997 27.1648L64.2473 25.1952ZM63.6295 24.948C63.4862 24.8405 63.3575 24.6879 63.2517 24.4611L61.4393 25.3069C61.6695 25.8001 61.9968 26.2235 62.4295 26.548L63.6295 24.948ZM63.2818 24.5329C63.1946 24.3003 63.1295 23.9386 63.1295 23.408H61.1295C61.1295 24.0774 61.2084 24.6997 61.4092 25.2351L63.2818 24.5329ZM63.1295 23.408V12.608H61.1295V23.408H63.1295ZM63.1295 12.608C63.1295 12.09 63.2354 11.7677 63.3651 11.5673L61.6859 10.4807C61.2876 11.0963 61.1295 11.83 61.1295 12.608H63.1295ZM63.3425 11.6007C63.5535 11.3017 63.8495 11.0083 64.251 10.7272L63.104 9.08877C62.5455 9.47974 62.0735 9.93026 61.7085 10.4473L63.3425 11.6007ZM64.2542 10.725C64.9596 10.2271 65.8732 9.80055 67.0197 9.46336L66.4553 7.54463C65.1538 7.92744 64.0274 8.43694 63.1008 9.09103L64.2542 10.725ZM67.0147 9.46482C68.1592 9.13466 69.4443 8.964 70.8775 8.964V6.964C69.2867 6.964 67.8118 7.15334 66.4603 7.54317L67.0147 9.46482ZM70.8775 8.964C73.4562 8.964 75.2857 9.53582 76.5076 10.5374L77.7754 8.99061C76.0694 7.59218 73.7228 6.964 70.8775 6.964V8.964ZM76.5153 10.5436C77.7115 11.5045 78.3375 12.8443 78.3375 14.696H80.3375C80.3375 12.3237 79.4995 10.3755 77.7678 8.98438L76.5153 10.5436ZM78.3375 14.696V25.964H80.3375V14.696H78.3375ZM79.0502 25.0062C78.8895 25.0544 78.5709 25.1182 78.0504 25.1892L78.3206 27.1708C78.8561 27.0978 79.3055 27.0176 79.6248 26.9218L79.0502 25.0062ZM78.0441 25.1901C77.5906 25.2548 77.1101 25.288 76.6015 25.288V27.288C77.1969 27.288 77.7724 27.2492 78.3269 27.1699L78.0441 25.1901ZM76.6015 25.288C76.1178 25.288 75.6939 25.2549 75.3259 25.1936L74.9971 27.1664C75.4931 27.2491 76.0292 27.288 76.6015 27.288V25.288ZM75.3353 25.1952C75.0585 25.1464 74.8622 25.0565 74.7175 24.948L73.5175 26.548C73.9488 26.8715 74.4485 27.0696 74.9877 27.1648L75.3353 25.1952ZM74.7175 24.948C74.5742 24.8405 74.4455 24.6879 74.3397 24.4611L72.5273 25.3069C72.7575 25.8001 73.0848 26.2235 73.5175 26.548L74.7175 24.948ZM74.3698 24.5329C74.2826 24.3003 74.2175 23.9386 74.2175 23.408H72.2175C72.2175 24.0774 72.2964 24.6997 72.4972 25.2351L74.3698 24.5329ZM74.2175 23.408V14.912H72.2175V23.408H74.2175ZM92.6938 13.076L92.3652 12.1314L92.352 12.1362L92.6938 13.076ZM91.2898 13.94L91.9737 14.6695L91.9752 14.6682L91.2898 13.94ZM90.3538 15.308L91.2709 15.7067V15.7067L90.3538 15.308ZM91.2538 20.6L90.5907 21.3487L90.6013 21.3578L91.2538 20.6ZM96.2578 21.464L95.9546 20.5111L96.2578 21.464ZM97.6618 20.924L98.2352 20.1048L97.7604 19.7724L97.236 20.0192L97.6618 20.924ZM98.7418 22.04L97.8799 22.547L97.8867 22.5586L97.8938 22.57L98.7418 22.04ZM97.6978 25.748L98.1891 26.619L98.1975 26.6143L98.2058 26.6094L97.6978 25.748ZM89.7058 25.892L89.3567 26.8291L89.3648 26.8321L89.373 26.835L89.7058 25.892ZM86.5378 24.02L85.8512 24.747L85.8615 24.7568L85.8722 24.7663L86.5378 24.02ZM84.5218 21.104L85.4419 20.7124L84.5218 21.104ZM84.5578 13.22L83.6424 12.8172L83.6386 12.8261L84.5578 13.22ZM86.6818 10.268L87.3359 11.0244L86.6818 10.268ZM89.7418 8.54L89.4314 7.58938L89.4256 7.59132L89.7418 8.54ZM97.4458 8.9L96.8911 9.73205L97.4458 8.9ZM98.5258 12.608L99.3974 13.0983L99.4036 13.0872L99.4096 13.0759L98.5258 12.608ZM97.7698 13.616L97.344 14.5208L97.9799 14.8201L98.4769 14.3231L97.7698 13.616ZM96.2938 13.076L95.9776 14.0247L95.9956 14.0307L96.0138 14.036L96.2938 13.076ZM94.4218 11.788C93.713 11.788 93.0257 11.9018 92.3653 12.1315L93.0223 14.0205C93.4659 13.8662 93.9306 13.788 94.4218 13.788V11.788ZM92.352 12.1362C91.6967 12.3745 91.1117 12.7344 90.6044 13.2118L91.9752 14.6682C92.2839 14.3776 92.6349 14.1615 93.0355 14.0158L92.352 12.1362ZM90.6058 13.2105C90.1091 13.6761 89.7233 14.2501 89.4367 14.9093L91.2709 15.7067C91.4643 15.2619 91.7025 14.9239 91.9737 14.6695L90.6058 13.2105ZM89.4367 14.9093C89.1307 15.6131 88.9938 16.4023 88.9938 17.252H90.9938C90.9938 16.6137 91.0968 16.1069 91.2709 15.7067L89.4367 14.9093ZM88.9938 17.252C88.9938 18.9277 89.4724 20.358 90.5908 21.3486L91.9168 19.8514C91.3552 19.354 90.9938 18.5523 90.9938 17.252H88.9938ZM90.6013 21.3578C91.6607 22.27 92.9413 22.716 94.3858 22.716V20.716C93.3822 20.716 92.5749 20.418 91.9063 19.8422L90.6013 21.3578ZM94.3858 22.716C95.1796 22.716 95.9106 22.6239 96.561 22.4169L95.9546 20.5111C95.5489 20.6401 95.0319 20.716 94.3858 20.716V22.716ZM96.561 22.4169C97.1218 22.2385 97.632 22.0432 98.0876 21.8288L97.236 20.0192C96.8755 20.1888 96.4498 20.3535 95.9546 20.5111L96.561 22.4169ZM97.0883 21.7432C97.4781 22.0161 97.7277 22.2883 97.8799 22.547L99.6037 21.533C99.2759 20.9757 98.8055 20.5039 98.2352 20.1048L97.0883 21.7432ZM97.8938 22.57C98.0147 22.7634 98.1018 23.0382 98.1018 23.444H100.102C100.102 22.7458 99.9489 22.0846 99.5898 21.51L97.8938 22.57ZM98.1018 23.444C98.1018 24.0317 97.8593 24.4918 97.1898 24.8866L98.2058 26.6094C99.4083 25.9002 100.102 24.8243 100.102 23.444H98.1018ZM97.2065 24.877C96.4803 25.2867 95.3788 25.54 93.8098 25.54V27.54C95.5528 27.54 97.0433 27.2653 98.1891 26.619L97.2065 24.877ZM93.8098 25.54C92.3928 25.54 91.1397 25.3376 90.0386 24.949L89.373 26.835C90.7199 27.3104 92.2027 27.54 93.8098 27.54V25.54ZM90.0549 24.9549C88.9359 24.5381 87.99 23.9753 87.2034 23.2737L85.8722 24.7663C86.8616 25.6487 88.0276 26.334 89.3567 26.8291L90.0549 24.9549ZM87.2244 23.293C86.4637 22.5745 85.8698 21.7178 85.4419 20.7124L83.6016 21.4956C84.1338 22.7462 84.8839 23.8335 85.8512 24.747L87.2244 23.293ZM85.4419 20.7124C85.0204 19.7219 84.8018 18.6091 84.8018 17.36H82.8018C82.8018 18.8469 83.0631 20.2301 83.6016 21.4956L85.4419 20.7124ZM84.8018 17.36C84.8018 15.8801 85.0374 14.6396 85.4769 13.6139L83.6386 12.8261C83.0702 14.1524 82.8018 15.6719 82.8018 17.36H84.8018ZM85.4731 13.6227C85.9484 12.5426 86.5726 11.6845 87.3359 11.0244L86.0276 9.51164C85.0149 10.3875 84.2232 11.4974 83.6425 12.8173L85.4731 13.6227ZM87.3359 11.0244C88.1216 10.3449 89.0258 9.83275 90.058 9.48868L89.4256 7.59132C88.1538 8.01525 87.018 8.65509 86.0276 9.51164L87.3359 11.0244ZM90.0522 9.4906C91.1233 9.14086 92.2542 8.964 93.4498 8.964V6.964C92.0534 6.964 90.7123 7.17114 89.4314 7.58939L90.0522 9.4906ZM93.4498 8.964C95.0787 8.964 96.1856 9.26171 96.8911 9.73205L98.0005 8.06795C96.834 7.29029 95.2768 6.964 93.4498 6.964V8.964ZM96.8911 9.73205C97.5954 10.2016 97.8498 10.7146 97.8498 11.312H99.8498C99.8498 9.9414 99.1682 8.84643 98.0005 8.06795L96.8911 9.73205ZM97.8498 11.312C97.8498 11.6028 97.7827 11.8744 97.642 12.1401L99.4096 13.0759C99.7009 12.5256 99.8498 11.9332 99.8498 11.312H97.8498ZM97.6542 12.1177C97.4793 12.4287 97.2812 12.6904 97.0627 12.9089L98.4769 14.3231C98.8344 13.9656 99.1403 13.5553 99.3974 13.0983L97.6542 12.1177ZM98.1956 12.7112C97.728 12.4912 97.1845 12.2941 96.5738 12.116L96.0138 14.036C96.5551 14.1939 96.9955 14.3568 97.344 14.5208L98.1956 12.7112ZM96.61 12.1273C95.9218 11.8979 95.1899 11.788 94.4218 11.788V13.788C94.9977 13.788 95.5138 13.8701 95.9776 14.0247L96.61 12.1273ZM120.891 25.964L121.178 26.9218L121.891 26.708V25.964H120.891ZM119.739 26.18L119.604 25.1891L119.598 25.1901L119.739 26.18ZM116.715 26.18L116.541 27.1648L116.551 27.1664L116.715 26.18ZM115.671 25.748L115.071 26.548L115.671 25.748ZM114.987 24.884L114.051 25.2351L114.064 25.2716L114.081 25.3069L114.987 24.884ZM114.015 13.364L113.367 14.1259L113.388 14.1432L113.409 14.1594L114.015 13.364ZM110.847 12.932L111.115 13.8955H111.115L110.847 12.932ZM109.803 13.364L109.266 12.5203L108.803 12.8151V13.364H109.803ZM109.803 25.964L110.09 26.9218L110.803 26.708V25.964H109.803ZM108.651 26.18L108.516 25.1891L108.51 25.1901L108.651 26.18ZM105.627 26.18L105.453 27.1648L105.463 27.1664L105.627 26.18ZM104.583 25.748L103.983 26.548L104.583 25.748ZM103.899 24.884L102.963 25.2351L102.976 25.2716L102.993 25.3069L103.899 24.884ZM103.683 2.528L103.504 1.54413L102.683 1.69343V2.528H103.683ZM104.835 2.348L104.976 3.33795L104.995 3.33527L105.014 3.33187L104.835 2.348ZM107.823 2.312L107.649 3.29683L107.659 3.29839L107.823 2.312ZM108.903 2.744L109.503 1.944L108.903 2.744ZM109.551 3.644L108.615 3.99512L108.628 4.03159L108.645 4.06688L109.551 3.644ZM109.803 8.612H108.803V10.068L110.162 9.54535L109.803 8.612ZM111.207 8.216L111.432 9.19039L111.445 9.18737L111.458 9.184L111.207 8.216ZM118.875 9.764L118.202 10.5039L118.209 10.5103L118.217 10.5166L118.875 9.764ZM120.604 25.0062C120.443 25.0544 120.124 25.1182 119.604 25.1892L119.874 27.1708C120.41 27.0978 120.859 27.0176 121.178 26.9218L120.604 25.0062ZM119.598 25.1901C119.144 25.2548 118.664 25.288 118.155 25.288V27.288C118.75 27.288 119.326 27.2492 119.88 27.1699L119.598 25.1901ZM118.155 25.288C117.671 25.288 117.247 25.2549 116.879 25.1936L116.551 27.1664C117.047 27.2491 117.583 27.288 118.155 27.288V25.288ZM116.889 25.1952C116.612 25.1464 116.416 25.0565 116.271 24.948L115.071 26.548C115.502 26.8715 116.002 27.0696 116.541 27.1648L116.889 25.1952ZM116.271 24.948C116.128 24.8405 115.999 24.6879 115.893 24.4611L114.081 25.3069C114.311 25.8001 114.638 26.2235 115.071 26.548L116.271 24.948ZM115.923 24.5329C115.836 24.3003 115.771 23.9386 115.771 23.408H113.771C113.771 24.0774 113.85 24.6997 114.051 25.2351L115.923 24.5329ZM115.771 23.408V15.416H113.771V23.408H115.771ZM115.771 15.416C115.771 14.2958 115.486 13.2275 114.621 12.5686L113.409 14.1594C113.552 14.2685 113.771 14.5682 113.771 15.416H115.771ZM114.663 12.6021C113.976 12.0186 113.136 11.752 112.215 11.752V13.752C112.734 13.752 113.094 13.8934 113.367 14.1259L114.663 12.6021ZM112.215 11.752C111.651 11.752 111.104 11.8226 110.579 11.9685L111.115 13.8955C111.454 13.8014 111.819 13.752 112.215 13.752V11.752ZM110.579 11.9685C110.09 12.1045 109.641 12.2818 109.266 12.5203L110.34 14.2077C110.493 14.1102 110.74 13.9995 111.115 13.8955L110.579 11.9685ZM108.803 13.364V25.964H110.803V13.364H108.803ZM109.516 25.0062C109.355 25.0544 109.036 25.1182 108.516 25.1892L108.786 27.1708C109.322 27.0978 109.771 27.0176 110.09 26.9218L109.516 25.0062ZM108.51 25.1901C108.056 25.2548 107.576 25.288 107.067 25.288V27.288C107.662 27.288 108.238 27.2492 108.792 27.1699L108.51 25.1901ZM107.067 25.288C106.583 25.288 106.159 25.2549 105.791 25.1936L105.463 27.1664C105.959 27.2491 106.495 27.288 107.067 27.288V25.288ZM105.801 25.1952C105.524 25.1464 105.328 25.0565 105.183 24.948L103.983 26.548C104.414 26.8715 104.914 27.0696 105.453 27.1648L105.801 25.1952ZM105.183 24.948C105.04 24.8405 104.911 24.6879 104.805 24.4611L102.993 25.3069C103.223 25.8001 103.55 26.2235 103.983 26.548L105.183 24.948ZM104.835 24.5329C104.748 24.3003 104.683 23.9386 104.683 23.408H102.683C102.683 24.0774 102.762 24.6997 102.963 25.2351L104.835 24.5329ZM104.683 23.408V2.528H102.683V23.408H104.683ZM103.862 3.51187C104.107 3.46732 104.476 3.40944 104.976 3.33795L104.694 1.35805C104.186 1.43056 103.787 1.49268 103.504 1.54413L103.862 3.51187ZM105.014 3.33187C105.484 3.24642 105.952 3.204 106.419 3.204V1.204C105.83 1.204 105.242 1.25757 104.656 1.36413L105.014 3.33187ZM106.419 3.204C106.904 3.204 107.312 3.23722 107.649 3.29678L107.997 1.32721C107.518 1.24278 106.99 1.204 106.419 1.204V3.204ZM107.659 3.29839C107.966 3.34969 108.168 3.44278 108.303 3.544L109.503 1.944C109.062 1.61322 108.544 1.41831 107.987 1.3256L107.659 3.29839ZM108.303 3.544C108.418 3.63019 108.528 3.76424 108.615 3.99512L110.487 3.29287C110.286 2.75576 109.964 2.2898 109.503 1.944L108.303 3.544ZM108.645 4.06688C108.728 4.24438 108.803 4.56234 108.803 5.084H110.803C110.803 4.40566 110.71 3.76362 110.457 3.22111L108.645 4.06688ZM108.803 5.084V8.612H110.803V5.084H108.803ZM110.162 9.54535C110.407 9.45108 110.82 9.33154 111.432 9.19039L110.982 7.24161C110.346 7.38846 109.823 7.53292 109.444 7.67865L110.162 9.54535ZM111.458 9.184C112.013 9.04009 112.636 8.964 113.331 8.964V6.964C112.491 6.964 111.697 7.0559 110.956 7.248L111.458 9.184ZM113.331 8.964C115.542 8.964 117.12 9.52035 118.202 10.5039L119.548 9.02406C117.99 7.60765 115.872 6.964 113.331 6.964V8.964ZM118.217 10.5166C119.28 11.447 119.891 12.8954 119.891 15.056H121.891C121.891 12.5126 121.158 10.433 119.534 9.01142L118.217 10.5166ZM119.891 15.056V25.964H121.891V15.056H119.891ZM132.698 21.5H131.698V22.2543L132.423 22.4615L132.698 21.5ZM133.994 21.716L133.903 22.7119L133.926 22.7139L133.948 22.715L133.994 21.716ZM137.882 21.176L138.406 22.0277L138.414 22.0222L137.882 21.176ZM138.062 17.612L137.525 18.4557L138.062 17.612ZM132.698 17.108V16.108H131.698V17.108H132.698ZM132.698 12.716H131.698V13.716H132.698V12.716ZM137.558 12.14L136.933 11.3591L136.923 11.367L136.914 11.3751L137.558 12.14ZM137.45 8.9L136.861 9.70873L136.87 9.71491L136.879 9.7209L137.45 8.9ZM133.778 8.36L133.728 7.36124L133.725 7.36138L133.778 8.36ZM132.698 8.468L132.519 7.48413L131.698 7.63342V8.468H132.698ZM131.87 26.396L131.746 27.3883L131.751 27.3889L131.87 26.396ZM130.142 26.108L130.346 25.129L130.326 25.1249L130.306 25.1216L130.142 26.108ZM128.558 25.676L128.929 24.7475L128.922 24.7446L128.914 24.7418L128.558 25.676ZM126.974 5.084L127.681 5.79111L127.681 5.79111L126.974 5.084ZM128.126 4.4L128.456 5.34386L128.458 5.34299L128.126 4.4ZM131.186 3.788L131.283 4.78323L131.293 4.78228L131.302 4.78115L131.186 3.788ZM142.058 5.12L142.587 4.27131V4.27131L142.058 5.12ZM143.606 12.716L144.382 13.3466L144.387 13.3408L144.391 13.3349L143.606 12.716ZM141.086 14.408L140.763 13.4615L137.712 14.5017L140.816 15.371L141.086 14.408ZM144.074 16.244L143.327 16.9096L143.332 16.9152L143.337 16.9206L144.074 16.244ZM142.634 24.884L143.175 25.7248L143.178 25.723L142.634 24.884ZM132.423 22.4615C132.841 22.5811 133.341 22.6608 133.903 22.7119L134.084 20.7201C133.59 20.6752 133.226 20.6109 132.972 20.5385L132.423 22.4615ZM133.948 22.715C134.49 22.7396 135.009 22.752 135.506 22.752V20.752C135.042 20.752 134.553 20.7404 134.039 20.717L133.948 22.715ZM135.506 22.752C136.595 22.752 137.582 22.5344 138.406 22.0277L137.358 20.3243C136.933 20.5856 136.337 20.752 135.506 20.752V22.752ZM138.414 22.0222C139.385 21.4109 139.854 20.4478 139.854 19.304H137.854C137.854 19.8402 137.674 20.1251 137.349 20.3298L138.414 22.0222ZM139.854 19.304C139.854 18.2735 139.493 17.3373 138.599 16.7683L137.525 18.4557C137.687 18.5587 137.854 18.7505 137.854 19.304H139.854ZM138.599 16.7683C137.832 16.2803 136.798 16.108 135.65 16.108V18.108C136.661 18.108 137.236 18.2717 137.525 18.4557L138.599 16.7683ZM135.65 16.108H132.698V18.108H135.65V16.108ZM131.698 17.108V21.5H133.698V17.108H131.698ZM132.698 13.716H135.326V11.716H132.698V13.716ZM135.326 13.716C136.437 13.716 137.474 13.5178 138.202 12.9049L136.914 11.3751C136.729 11.5302 136.278 11.716 135.326 11.716V13.716ZM138.182 12.9209C138.95 12.3069 139.278 11.425 139.278 10.448H137.278C137.278 10.959 137.125 11.2051 136.933 11.3591L138.182 12.9209ZM139.278 10.448C139.278 9.45824 138.829 8.64165 138.021 8.07909L136.879 9.7209C137.174 9.92635 137.278 10.1418 137.278 10.448H139.278ZM138.038 8.09126C137.259 7.52518 136.203 7.324 135.038 7.324V9.324C136.032 9.324 136.584 9.50682 136.861 9.70873L138.038 8.09126ZM135.038 7.324C134.657 7.324 134.219 7.33667 133.728 7.36125L133.828 9.35875C134.296 9.33533 134.699 9.324 135.038 9.324V7.324ZM133.725 7.36138C133.252 7.3863 132.843 7.4251 132.519 7.48413L132.877 9.45187C133.08 9.4149 133.392 9.3817 133.83 9.35862L133.725 7.36138ZM131.698 8.468V12.716H133.698V8.468H131.698ZM135.038 25.576C134.648 25.576 134.183 25.5645 133.641 25.5409L133.554 27.5391C134.116 27.5635 134.611 27.576 135.038 27.576V25.576ZM133.641 25.5409C133.117 25.5181 132.566 25.4724 131.989 25.4031L131.751 27.3889C132.373 27.4636 132.975 27.5139 133.554 27.5391L133.641 25.5409ZM131.994 25.4037C131.445 25.3351 130.896 25.2436 130.346 25.129L129.938 27.087C130.54 27.2124 131.142 27.3129 131.746 27.3883L131.994 25.4037ZM130.306 25.1216C129.792 25.0359 129.334 24.9097 128.929 24.7475L128.186 26.6045C128.741 26.8263 129.339 26.9881 129.977 27.0944L130.306 25.1216ZM128.914 24.7418C128.38 24.5378 128.06 24.2895 127.871 24.0392C127.69 23.7981 127.578 23.4862 127.578 23.048H125.578C125.578 23.8578 125.796 24.6079 126.274 25.2427C126.745 25.8685 127.415 26.3102 128.201 26.6102L128.914 24.7418ZM127.578 23.048V6.236H125.578V23.048H127.578ZM127.578 6.236C127.578 5.90176 127.662 5.80942 127.681 5.79111L126.267 4.37689C125.757 4.88658 125.578 5.56224 125.578 6.236H127.578ZM127.681 5.79111C127.84 5.63236 128.083 5.47426 128.456 5.34386L127.795 3.45614C127.208 3.66173 126.684 3.95964 126.267 4.37689L127.681 5.79111ZM128.458 5.34299C129.174 5.09044 130.109 4.89837 131.283 4.78323L131.088 2.79277C129.815 2.91763 128.709 3.13356 127.793 3.45701L128.458 5.34299ZM131.302 4.78115C132.486 4.64194 133.707 4.572 134.966 4.572V2.572C133.633 2.572 132.334 2.64606 131.069 2.79485L131.302 4.78115ZM134.966 4.572C137.949 4.572 140.098 5.0771 141.529 5.96869L142.587 4.27131C140.705 3.0989 138.126 2.572 134.966 2.572V4.572ZM141.529 5.96869C142.856 6.79594 143.542 8.0492 143.542 9.908H145.542C145.542 7.4468 144.571 5.50806 142.587 4.27131L141.529 5.96869ZM143.542 9.908C143.542 10.7806 143.295 11.4945 142.82 12.0971L144.391 13.3349C145.164 12.3535 145.542 11.1954 145.542 9.908H143.542ZM142.83 12.0854C142.339 12.6896 141.664 13.1542 140.763 13.4615L141.408 15.3545C142.619 14.9418 143.625 14.2784 144.382 13.3466L142.83 12.0854ZM140.816 15.371C141.841 15.658 142.669 16.1712 143.327 16.9096L144.82 15.5784C143.895 14.5408 142.73 13.83 141.355 13.445L140.816 15.371ZM143.337 16.9206C143.964 17.6025 144.298 18.4676 144.298 19.592H146.298C146.298 18.0284 145.815 16.6615 144.81 15.5674L143.337 16.9206ZM144.298 19.592C144.298 21.6781 143.542 23.1025 142.089 24.045L143.178 25.723C145.277 24.3615 146.298 22.2579 146.298 19.592H144.298ZM142.092 24.0432C140.571 25.0227 138.261 25.576 135.038 25.576V27.576C138.438 27.576 141.192 27.0013 143.175 25.7248L142.092 24.0432ZM156.067 25.964L156.246 26.9479L157.067 26.7986V25.964H156.067ZM154.879 26.144L154.744 25.1532L154.717 25.1567L154.692 25.1617L154.879 26.144ZM151.891 26.18L151.717 27.1648L151.726 27.1664L151.891 26.18ZM150.847 25.748L150.247 26.548L150.847 25.748ZM150.163 24.884L149.226 25.2351L149.24 25.2716L149.257 25.3069L150.163 24.884ZM149.947 2.528L149.768 1.54413L148.947 1.69343V2.528H149.947ZM151.099 2.348L151.24 3.33795L151.259 3.33527L151.278 3.33187L151.099 2.348ZM154.087 2.312L153.913 3.29683L153.922 3.29839L154.087 2.312ZM155.167 2.744L154.567 3.544L155.167 2.744ZM155.815 3.644L154.878 3.99512L154.892 4.03159L154.909 4.06688L155.815 3.644ZM155.888 24.9801C155.646 25.024 155.268 25.0816 154.744 25.1532L155.014 27.1348C155.545 27.0624 155.959 27 156.246 26.9479L155.888 24.9801ZM154.692 25.1617C154.251 25.2456 153.798 25.288 153.331 25.288V27.288C153.92 27.288 154.498 27.2344 155.066 27.1263L154.692 25.1617ZM153.331 25.288C152.847 25.288 152.423 25.2549 152.055 25.1936L151.726 27.1664C152.222 27.2491 152.758 27.288 153.331 27.288V25.288ZM152.064 25.1952C151.788 25.1464 151.591 25.0565 151.447 24.948L150.247 26.548C150.678 26.8715 151.178 27.0696 151.717 27.1648L152.064 25.1952ZM151.447 24.948C151.303 24.8405 151.175 24.6879 151.069 24.4611L149.257 25.3069C149.487 25.8001 149.814 26.2235 150.247 26.548L151.447 24.948ZM151.099 24.5329C151.012 24.3003 150.947 23.9386 150.947 23.408H148.947C148.947 24.0774 149.026 24.6997 149.226 25.2351L151.099 24.5329ZM150.947 23.408V2.528H148.947V23.408H150.947ZM150.126 3.51187C150.371 3.46732 150.74 3.40944 151.24 3.33795L150.957 1.35805C150.45 1.43056 150.051 1.49268 149.768 1.54413L150.126 3.51187ZM151.278 3.33187C151.748 3.24642 152.216 3.204 152.683 3.204V1.204C152.094 1.204 151.506 1.25757 150.92 1.36413L151.278 3.33187ZM152.683 3.204C153.167 3.204 153.575 3.23722 153.913 3.29678L154.26 1.32721C153.782 1.24278 153.254 1.204 152.683 1.204V3.204ZM153.922 3.29839C154.23 3.34969 154.432 3.44278 154.567 3.544L155.767 1.944C155.326 1.61322 154.807 1.41831 154.251 1.3256L153.922 3.29839ZM154.567 3.544C154.682 3.6302 154.792 3.76424 154.878 3.99512L156.751 3.29287C156.55 2.75576 156.228 2.2898 155.767 1.944L154.567 3.544ZM154.909 4.06688C154.991 4.24438 155.067 4.56234 155.067 5.084H157.067C157.067 4.40566 156.974 3.76362 156.721 3.22111L154.909 4.06688ZM155.067 5.084V25.964H157.067V5.084H155.067ZM162.125 1.34L161.417 0.632891L161.411 0.639823L161.404 0.64689L162.125 1.34ZM166.985 1.34L166.264 2.03311L166.271 2.04017L166.277 2.0471L166.985 1.34ZM166.985 5.948L166.277 5.24089L166.271 5.24782L166.264 5.25489L166.985 5.948ZM162.125 5.948L161.404 6.64111L161.411 6.64817L161.417 6.65511L162.125 5.948ZM167.633 25.964L167.811 26.9479L168.633 26.7986V25.964H167.633ZM166.445 26.144L166.309 25.1532L166.283 25.1567L166.257 25.1617L166.445 26.144ZM163.457 26.18L163.283 27.1648L163.292 27.1664L163.457 26.18ZM162.413 25.748L161.813 26.548L162.413 25.748ZM161.729 24.884L160.792 25.2351L160.806 25.2716L160.822 25.3069L161.729 24.884ZM161.513 8.756L161.334 7.77213L160.513 7.92142V8.756H161.513ZM162.665 8.576L162.806 9.56595L162.825 9.56326L162.843 9.55987L162.665 8.576ZM165.653 8.54L165.479 9.52483L165.488 9.52639L165.653 8.54ZM166.733 8.972L166.133 9.772L166.733 8.972ZM167.381 9.872L166.444 10.2231L166.458 10.2596L166.474 10.2949L167.381 9.872ZM162.225 3.644C162.225 2.97514 162.435 2.46009 162.845 2.03311L161.404 0.64689C160.614 1.46791 160.225 2.48886 160.225 3.644H162.225ZM162.832 2.0471C163.241 1.63777 163.789 1.404 164.573 1.404V-0.596001C163.34 -0.596001 162.256 -0.20577 161.417 0.632891L162.832 2.0471ZM164.573 1.404C165.357 1.404 165.884 1.63767 166.264 2.03311L167.705 0.646889C166.886 -0.205673 165.804 -0.596001 164.573 -0.596001V1.404ZM166.277 2.0471C166.707 2.47667 166.921 2.9873 166.921 3.644H168.921C168.921 2.4767 168.51 1.45133 167.692 0.632892L166.277 2.0471ZM166.921 3.644C166.921 4.3007 166.707 4.81133 166.277 5.24089L167.692 6.65511C168.51 5.83667 168.921 4.8113 168.921 3.644H166.921ZM166.264 5.25489C165.883 5.65033 165.357 5.884 164.573 5.884V7.884C165.804 7.884 166.886 7.49367 167.705 6.64111L166.264 5.25489ZM164.573 5.884C163.789 5.884 163.241 5.65023 162.832 5.24089L161.417 6.65511C162.256 7.49377 163.34 7.884 164.573 7.884V5.884ZM162.845 5.25489C162.435 4.82791 162.225 4.31286 162.225 3.644H160.225C160.225 4.79914 160.614 5.82009 161.404 6.64111L162.845 5.25489ZM167.454 24.9801C167.212 25.024 166.834 25.0816 166.309 25.1532L166.58 27.1348C167.111 27.0624 167.525 27 167.811 26.9479L167.454 24.9801ZM166.257 25.1617C165.817 25.2456 165.364 25.288 164.897 25.288V27.288C165.486 27.288 166.064 27.2344 166.632 27.1263L166.257 25.1617ZM164.897 25.288C164.413 25.288 163.989 25.2549 163.621 25.1936L163.292 27.1664C163.788 27.2491 164.324 27.288 164.897 27.288V25.288ZM163.63 25.1952C163.354 25.1464 163.157 25.0565 163.013 24.948L161.813 26.548C162.244 26.8715 162.744 27.0696 163.283 27.1648L163.63 25.1952ZM163.013 24.948C162.869 24.8405 162.741 24.6879 162.635 24.4611L160.822 25.3069C161.053 25.8001 161.38 26.2235 161.813 26.548L163.013 24.948ZM162.665 24.5329C162.578 24.3003 162.513 23.9386 162.513 23.408H160.513C160.513 24.0774 160.591 24.6997 160.792 25.2351L162.665 24.5329ZM162.513 23.408V8.756H160.513V23.408H162.513ZM161.691 9.73987C161.936 9.69532 162.306 9.63744 162.806 9.56595L162.523 7.58605C162.016 7.65856 161.617 7.72068 161.334 7.77213L161.691 9.73987ZM162.843 9.55987C163.313 9.47442 163.782 9.432 164.249 9.432V7.432C163.66 7.432 163.072 7.48557 162.486 7.59213L162.843 9.55987ZM164.249 9.432C164.733 9.432 165.141 9.46522 165.479 9.52478L165.826 7.55522C165.348 7.47078 164.82 7.432 164.249 7.432V9.432ZM165.488 9.52639C165.796 9.57769 165.998 9.67078 166.133 9.772L167.333 8.172C166.892 7.84122 166.373 7.64631 165.817 7.55361L165.488 9.52639ZM166.133 9.772C166.247 9.85819 166.358 9.99224 166.444 10.2231L168.317 9.52088C168.115 8.98376 167.794 8.5178 167.333 8.172L166.133 9.772ZM166.474 10.2949C166.557 10.4724 166.633 10.7903 166.633 11.312H168.633C168.633 10.6337 168.54 9.99162 168.287 9.44911L166.474 10.2949ZM166.633 11.312V25.964H168.633V11.312H166.633ZM185.677 25.064L186.279 25.8623L185.677 25.064ZM176.821 26.396L176.985 25.4096L176.821 26.396ZM174.589 25.748L174.127 26.6352L174.148 26.6461L174.17 26.656L174.589 25.748ZM173.149 24.596L172.344 25.1892L172.354 25.2026L172.364 25.2156L173.149 24.596ZM173.005 21.536L173.853 22.066L173.86 22.0546L173.867 22.043L173.005 21.536ZM173.869 20.528L174.352 19.6524L173.772 19.3324L173.251 19.7417L173.869 20.528ZM176.245 21.572L175.913 22.5155L175.928 22.5208L175.944 22.5256L176.245 21.572ZM181.069 21.68L180.601 20.7962L180.59 20.8022L180.578 20.8084L181.069 21.68ZM179.809 19.556L179.613 20.5366L179.623 20.5386L179.633 20.5404L179.809 19.556ZM178.729 19.34L178.925 18.3594L178.921 18.3586L178.729 19.34ZM174.049 17.432L173.388 18.1824L173.397 18.1907L173.407 18.1988L174.049 17.432ZM173.113 11.24L172.23 10.7694L173.113 11.24ZM174.733 9.44L175.3 10.2632L174.733 9.44ZM177.217 8.324L176.958 7.35814L176.952 7.35979L177.217 8.324ZM182.941 8.144L182.756 9.12687L182.774 9.13009L182.791 9.13272L182.941 8.144ZM184.993 8.72L184.576 9.62906L184.993 8.72ZM186.361 9.764L185.571 10.3779L185.58 10.3889L185.589 10.3997L186.361 9.764ZM186.541 12.68L185.657 12.2121L185.652 12.2224L185.646 12.2328L186.541 12.68ZM185.785 13.652L185.255 14.5L185.874 14.8868L186.431 14.4154L185.785 13.652ZM184.921 13.292L184.57 14.2283L184.596 14.2381L184.622 14.2465L184.921 13.292ZM183.661 12.932L183.406 13.8991L183.43 13.9054L183.455 13.9105L183.661 12.932ZM182.257 12.644L182.101 13.6318L182.108 13.6329L182.257 12.644ZM179.161 12.824L179.523 13.756L179.545 13.7474L179.567 13.7378L179.161 12.824ZM178.873 14.3L178.299 15.1192L178.299 15.1192L178.873 14.3ZM180.241 14.768L180.461 13.7925L180.45 13.7902L180.241 14.768ZM181.357 15.02L181.58 14.0453L181.577 14.0446L181.357 15.02ZM186.253 17.216L185.555 17.932L185.564 17.9408L185.573 17.9494L186.253 17.216ZM186.729 20.78C186.729 22.3137 186.174 23.4364 185.074 24.2657L186.279 25.8623C187.916 24.6276 188.729 22.8943 188.729 20.78H186.729ZM185.074 24.2657C183.953 25.112 182.188 25.612 179.629 25.612V27.612C182.397 27.612 184.665 27.0799 186.279 25.8623L185.074 24.2657ZM179.629 25.612C178.668 25.612 177.787 25.5433 176.985 25.4096L176.656 27.3824C177.582 27.5367 178.574 27.612 179.629 27.612V25.612ZM176.985 25.4096C176.186 25.2765 175.532 25.0821 175.008 24.84L174.17 26.656C174.893 26.9899 175.727 27.2275 176.656 27.3824L176.985 25.4096ZM175.05 24.8608C174.555 24.6035 174.193 24.3045 173.934 23.9764L172.364 25.2156C172.825 25.7995 173.422 26.2686 174.127 26.6352L175.05 24.8608ZM173.954 24.0028C173.757 23.7362 173.645 23.4094 173.645 22.976H171.645C171.645 23.7906 171.868 24.5438 172.344 25.1892L173.954 24.0028ZM173.645 22.976C173.645 22.537 173.736 22.2531 173.853 22.066L172.157 21.006C171.794 21.5869 171.645 22.263 171.645 22.976H173.645ZM173.867 22.043C174.05 21.731 174.259 21.4934 174.487 21.3143L173.251 19.7417C172.807 20.0906 172.439 20.525 172.143 21.029L173.867 22.043ZM173.386 21.4036C174.138 21.8187 174.982 22.1883 175.913 22.5155L176.576 20.6285C175.731 20.3317 174.991 20.0053 174.352 19.6524L173.386 21.4036ZM175.944 22.5256C176.972 22.8505 178.121 23.004 179.377 23.004V21.004C178.28 21.004 177.341 20.8695 176.546 20.6184L175.944 22.5256ZM179.377 23.004C180.188 23.004 180.955 22.8912 181.559 22.5516L180.578 20.8084C180.414 20.9008 180.053 21.004 179.377 21.004V23.004ZM181.537 22.5638C182.163 22.2319 182.681 21.6549 182.681 20.816H180.681C180.681 20.8102 180.682 20.794 180.689 20.7722C180.696 20.7502 180.705 20.7335 180.712 20.724C180.724 20.707 180.708 20.7397 180.601 20.7962L181.537 22.5638ZM182.681 20.816C182.681 20.1337 182.36 19.5627 181.803 19.1919L180.694 20.856C180.71 20.8667 180.714 20.8718 180.712 20.8692C180.709 20.8663 180.702 20.8581 180.695 20.8449C180.688 20.8316 180.683 20.8193 180.681 20.8109C180.679 20.803 180.681 20.8037 180.681 20.816H182.681ZM181.803 19.1919C181.336 18.8806 180.686 18.6968 179.985 18.5716L179.633 20.5404C180.276 20.6552 180.585 20.7834 180.694 20.856L181.803 19.1919ZM180.005 18.5754L178.925 18.3594L178.533 20.3206L179.613 20.5366L180.005 18.5754ZM178.921 18.3586C176.911 17.966 175.539 17.3754 174.691 16.6652L173.407 18.1988C174.622 19.2166 176.37 19.898 178.537 20.3214L178.921 18.3586ZM174.71 16.6816C173.963 16.0238 173.537 15.064 173.537 13.652H171.537C171.537 15.504 172.118 17.0642 173.388 18.1824L174.71 16.6816ZM173.537 13.652C173.537 12.9133 173.695 12.2732 173.995 11.7106L172.23 10.7694C171.762 11.6468 171.537 12.6147 171.537 13.652H173.537ZM173.995 11.7106C174.301 11.1368 174.731 10.6559 175.3 10.2632L174.165 8.61679C173.342 9.18411 172.692 9.90325 172.23 10.7694L173.995 11.7106ZM175.3 10.2632C175.889 9.857 176.611 9.52765 177.482 9.2882L176.952 7.35979C175.902 7.64835 174.968 8.063 174.165 8.61679L175.3 10.2632ZM177.476 9.28984C178.364 9.05169 179.355 8.928 180.457 8.928V6.928C179.206 6.928 178.038 7.06831 176.958 7.35816L177.476 9.28984ZM180.457 8.928C181.291 8.928 182.057 8.99568 182.756 9.12687L183.125 7.16113C182.289 7.00431 181.398 6.928 180.457 6.928V8.928ZM182.791 9.13272C183.514 9.24224 184.104 9.4126 184.576 9.62906L185.409 7.81093C184.73 7.4994 183.952 7.28576 183.091 7.15528L182.791 9.13272ZM184.576 9.62906C185.029 9.83668 185.349 10.0915 185.571 10.3779L187.15 9.15006C186.701 8.57248 186.108 8.13132 185.409 7.81093L184.576 9.62906ZM185.589 10.3997C185.764 10.6122 185.865 10.8736 185.865 11.24H187.865C187.865 10.4544 187.63 9.73182 187.133 9.12829L185.589 10.3997ZM185.865 11.24C185.865 11.6607 185.783 11.9739 185.657 12.2121L187.425 13.1479C187.73 12.5701 187.865 11.9233 187.865 11.24H185.865ZM185.646 12.2328C185.512 12.5019 185.342 12.7165 185.139 12.8886L186.431 14.4154C186.851 14.0595 187.186 13.6261 187.435 13.1272L185.646 12.2328ZM186.315 12.804C186.015 12.6167 185.632 12.4666 185.219 12.3375L184.622 14.2465C184.978 14.3574 185.17 14.4473 185.255 14.5L186.315 12.804ZM185.272 12.3557C184.835 12.1918 184.366 12.0585 183.867 11.9534L183.455 13.9105C183.868 13.9975 184.239 14.1042 184.57 14.2283L185.272 12.3557ZM183.915 11.9649C183.423 11.8355 182.92 11.7323 182.405 11.6551L182.108 13.6329C182.554 13.6997 182.986 13.7885 183.406 13.8991L183.915 11.9649ZM182.413 11.6562C181.915 11.5777 181.442 11.536 180.997 11.536V13.536C181.319 13.536 181.686 13.5663 182.101 13.6318L182.413 11.6562ZM180.997 11.536C180.147 11.536 179.373 11.6355 178.755 11.9102L179.567 13.7378C179.813 13.6285 180.263 13.536 180.997 13.536V11.536ZM178.798 11.892C178.467 12.0207 178.136 12.2226 177.887 12.5407C177.628 12.8717 177.513 13.2593 177.513 13.652H179.513C179.513 13.6505 179.513 13.6673 179.504 13.6953C179.494 13.7243 179.479 13.7517 179.462 13.7733C179.429 13.8154 179.422 13.7953 179.523 13.756L178.798 11.892ZM177.513 13.652C177.513 14.2819 177.826 14.788 178.299 15.1192L179.446 13.4808C179.428 13.4677 179.451 13.4794 179.477 13.5264C179.489 13.5489 179.499 13.5737 179.505 13.5985C179.511 13.6229 179.513 13.6417 179.513 13.652H177.513ZM178.299 15.1192C178.721 15.4145 179.358 15.6016 180.031 15.7458L180.45 13.7902C180.138 13.7233 179.897 13.6579 179.718 13.5968C179.63 13.5665 179.563 13.5395 179.515 13.5172C179.492 13.5061 179.474 13.4971 179.462 13.4904C179.45 13.4836 179.445 13.4802 179.446 13.4808L178.299 15.1192ZM180.02 15.7434L181.136 15.9954L181.577 14.0446L180.461 13.7926L180.02 15.7434ZM181.133 15.9947C183.377 16.5089 184.792 17.1886 185.555 17.932L186.951 16.5C185.793 15.3714 183.944 14.5871 181.58 14.0453L181.133 15.9947ZM185.573 17.9494C186.333 18.6538 186.729 19.5661 186.729 20.78H188.729C188.729 19.0659 188.141 17.6022 186.932 16.4826L185.573 17.9494ZM204.835 25.064L205.438 25.8623L204.835 25.064ZM195.979 26.396L196.144 25.4096L195.979 26.396ZM193.747 25.748L193.286 26.6352L193.307 26.6461L193.328 26.656L193.747 25.748ZM192.307 24.596L191.502 25.1892L191.512 25.2026L191.523 25.2156L192.307 24.596ZM192.163 21.536L193.011 22.066L193.019 22.0546L193.025 22.043L192.163 21.536ZM193.027 20.528L193.511 19.6524L192.931 19.3324L192.41 19.7417L193.027 20.528ZM195.403 21.572L195.072 22.5155L195.087 22.5208L195.102 22.5256L195.403 21.572ZM200.227 21.68L199.76 20.7962L199.748 20.8022L199.737 20.8084L200.227 21.68ZM198.967 19.556L198.771 20.5366L198.781 20.5386L198.792 20.5404L198.967 19.556ZM197.887 19.34L198.084 18.3594L198.079 18.3586L197.887 19.34ZM193.207 17.432L192.546 18.1824L192.556 18.1907L192.566 18.1988L193.207 17.432ZM192.271 11.24L191.389 10.7694L192.271 11.24ZM193.891 9.44L194.459 10.2632L193.891 9.44ZM196.375 8.324L196.116 7.35814L196.11 7.35979L196.375 8.324ZM202.099 8.144L201.915 9.12687L201.932 9.13009L201.95 9.13272L202.099 8.144ZM204.151 8.72L203.735 9.62906L204.151 8.72ZM205.519 9.764L204.73 10.3779L204.739 10.3889L204.748 10.3997L205.519 9.764ZM205.699 12.68L204.816 12.2121L204.81 12.2224L204.805 12.2328L205.699 12.68ZM204.943 13.652L204.413 14.5L205.032 14.8868L205.589 14.4154L204.943 13.652ZM204.079 13.292L203.728 14.2283L203.755 14.2381L203.781 14.2465L204.079 13.292ZM202.819 12.932L202.565 13.8991L202.589 13.9054L202.613 13.9105L202.819 12.932ZM201.415 12.644L201.259 13.6318L201.267 13.6329L201.415 12.644ZM198.319 12.824L198.682 13.756L198.704 13.7474L198.726 13.7378L198.319 12.824ZM198.031 14.3L197.458 15.1192L197.458 15.1192L198.031 14.3ZM199.399 14.768L199.62 13.7925L199.609 13.7902L199.399 14.768ZM200.515 15.02L200.739 14.0453L200.736 14.0446L200.515 15.02ZM205.411 17.216L204.713 17.932L204.722 17.9408L204.732 17.9494L205.411 17.216ZM205.887 20.78C205.887 22.3137 205.333 23.4364 204.233 24.2657L205.438 25.8623C207.074 24.6276 207.887 22.8943 207.887 20.78H205.887ZM204.233 24.2657C203.111 25.112 201.347 25.612 198.787 25.612V27.612C201.556 27.612 203.824 27.0799 205.438 25.8623L204.233 24.2657ZM198.787 25.612C197.827 25.612 196.946 25.5433 196.144 25.4096L195.815 27.3824C196.741 27.5367 197.732 27.612 198.787 27.612V25.612ZM196.144 25.4096C195.345 25.2765 194.691 25.0821 194.167 24.84L193.328 26.656C194.052 26.9899 194.886 27.2275 195.815 27.3824L196.144 25.4096ZM194.209 24.8608C193.714 24.6035 193.351 24.3045 193.092 23.9764L191.523 25.2156C191.984 25.7995 192.581 26.2686 193.286 26.6352L194.209 24.8608ZM193.113 24.0028C192.916 23.7362 192.803 23.4094 192.803 22.976H190.803C190.803 23.7906 191.027 24.5438 191.502 25.1892L193.113 24.0028ZM192.803 22.976C192.803 22.537 192.895 22.2531 193.011 22.066L191.315 21.006C190.952 21.5869 190.803 22.263 190.803 22.976H192.803ZM193.025 22.043C193.209 21.731 193.417 21.4934 193.645 21.3143L192.41 19.7417C191.966 20.0906 191.598 20.525 191.302 21.029L193.025 22.043ZM192.544 21.4036C193.297 21.8187 194.141 22.1883 195.072 22.5155L195.735 20.6285C194.89 20.3317 194.15 20.0053 193.511 19.6524L192.544 21.4036ZM195.102 22.5256C196.131 22.8505 197.28 23.004 198.535 23.004V21.004C197.439 21.004 196.5 20.8695 195.705 20.6184L195.102 22.5256ZM198.535 23.004C199.347 23.004 200.114 22.8912 200.718 22.5516L199.737 20.8084C199.573 20.9008 199.212 21.004 198.535 21.004V23.004ZM200.695 22.5638C201.322 22.2319 201.839 21.6549 201.839 20.816H199.839C199.839 20.8102 199.84 20.794 199.847 20.7722C199.854 20.7502 199.864 20.7335 199.87 20.724C199.882 20.707 199.866 20.7397 199.76 20.7962L200.695 22.5638ZM201.839 20.816C201.839 20.1337 201.518 19.5627 200.962 19.1919L199.853 20.856C199.869 20.8667 199.873 20.8718 199.871 20.8692C199.868 20.8663 199.861 20.8581 199.854 20.8449C199.846 20.8316 199.842 20.8193 199.84 20.8109C199.838 20.803 199.839 20.8037 199.839 20.816H201.839ZM200.962 19.1919C200.495 18.8806 199.845 18.6968 199.143 18.5716L198.792 20.5404C199.434 20.6552 199.744 20.7834 199.853 20.856L200.962 19.1919ZM199.164 18.5754L198.084 18.3594L197.691 20.3206L198.771 20.5366L199.164 18.5754ZM198.079 18.3586C196.07 17.966 194.698 17.3754 193.849 16.6652L192.566 18.1988C193.781 19.2166 195.529 19.898 197.696 20.3214L198.079 18.3586ZM193.868 16.6816C193.122 16.0238 192.695 15.064 192.695 13.652H190.695C190.695 15.504 191.277 17.0642 192.546 18.1824L193.868 16.6816ZM192.695 13.652C192.695 12.9133 192.854 12.2732 193.154 11.7106L191.389 10.7694C190.921 11.6468 190.695 12.6147 190.695 13.652H192.695ZM193.154 11.7106C193.46 11.1368 193.89 10.6559 194.459 10.2632L193.324 8.61679C192.501 9.18411 191.851 9.90325 191.389 10.7694L193.154 11.7106ZM194.459 10.2632C195.048 9.857 195.77 9.52765 196.641 9.2882L196.11 7.35979C195.061 7.64835 194.127 8.063 193.324 8.61679L194.459 10.2632ZM196.635 9.28984C197.522 9.05169 198.514 8.928 199.615 8.928V6.928C198.365 6.928 197.197 7.06831 196.116 7.35816L196.635 9.28984ZM199.615 8.928C200.45 8.928 201.215 8.99568 201.915 9.12687L202.284 7.16113C201.447 7.00431 200.557 6.928 199.615 6.928V8.928ZM201.95 9.13272C202.673 9.24224 203.263 9.4126 203.735 9.62906L204.568 7.81093C203.888 7.4994 203.11 7.28576 202.249 7.15528L201.95 9.13272ZM203.735 9.62906C204.188 9.83668 204.507 10.0915 204.73 10.3779L206.309 9.15006C205.86 8.57248 205.267 8.13132 204.568 7.81093L203.735 9.62906ZM204.748 10.3997C204.923 10.6122 205.023 10.8736 205.023 11.24H207.023C207.023 10.4544 206.788 9.73182 206.291 9.12829L204.748 10.3997ZM205.023 11.24C205.023 11.6607 204.942 11.9739 204.816 12.2121L206.583 13.1479C206.889 12.5701 207.023 11.9233 207.023 11.24H205.023ZM204.805 12.2328C204.67 12.5019 204.501 12.7165 204.298 12.8886L205.589 14.4154C206.01 14.0595 206.344 13.6261 206.594 13.1272L204.805 12.2328ZM205.473 12.804C205.174 12.6167 204.791 12.4666 204.378 12.3375L203.781 14.2465C204.136 14.3574 204.329 14.4473 204.413 14.5L205.473 12.804ZM204.431 12.3557C203.993 12.1918 203.524 12.0585 203.025 11.9534L202.613 13.9105C203.027 13.9975 203.397 14.1042 203.728 14.2283L204.431 12.3557ZM203.074 11.9649C202.582 11.8355 202.079 11.7323 201.564 11.6551L201.267 13.6329C201.712 13.6997 202.145 13.7885 202.565 13.8991L203.074 11.9649ZM201.571 11.6562C201.074 11.5777 200.601 11.536 200.155 11.536V13.536C200.478 13.536 200.845 13.5663 201.26 13.6318L201.571 11.6562ZM200.155 11.536C199.306 11.536 198.531 11.6355 197.913 11.9102L198.726 13.7378C198.972 13.6285 199.421 13.536 200.155 13.536V11.536ZM197.957 11.892C197.626 12.0207 197.295 12.2226 197.046 12.5407C196.787 12.8717 196.671 13.2593 196.671 13.652H198.671C198.671 13.6505 198.672 13.6673 198.662 13.6953C198.653 13.7243 198.638 13.7517 198.621 13.7733C198.588 13.8154 198.581 13.7953 198.682 13.756L197.957 11.892ZM196.671 13.652C196.671 14.2819 196.985 14.788 197.458 15.1192L198.605 13.4808C198.586 13.4677 198.61 13.4794 198.636 13.5264C198.648 13.5489 198.658 13.5737 198.664 13.5985C198.67 13.6229 198.671 13.6417 198.671 13.652H196.671ZM197.458 15.1192C197.88 15.4145 198.517 15.6016 199.19 15.7458L199.609 13.7902C199.297 13.7233 199.056 13.6579 198.877 13.5968C198.789 13.5665 198.722 13.5395 198.674 13.5172C198.65 13.5061 198.633 13.4971 198.621 13.4904C198.609 13.4836 198.604 13.4802 198.605 13.4808L197.458 15.1192ZM199.179 15.7434L200.295 15.9954L200.736 14.0446L199.62 13.7926L199.179 15.7434ZM200.292 15.9947C202.536 16.5089 203.951 17.1886 204.713 17.932L206.11 16.5C204.952 15.3714 203.103 14.5871 200.739 14.0453L200.292 15.9947ZM204.732 17.9494C205.492 18.6538 205.887 19.5661 205.887 20.78H207.887C207.887 19.0659 207.299 17.6022 206.091 16.4826L204.732 17.9494Z" fill="#CC2F2F"/>
</svg>
