<svg width="25" height="25" viewBox="0 0 25 25" fill="none" xmlns="http://www.w3.org/2000/svg">
<g id="carbon:notification-new">
<path id="Vector" d="M21.8053 12.6051V10.6433H20.113V12.9192C20.113 13.1204 20.2022 13.3133 20.3609 13.4555L22.6514 15.5091V16.7123H4.03606V15.5091L6.3266 13.4555C6.48529 13.3133 6.57447 13.1204 6.57452 12.9192V9.8847C6.57216 8.81868 6.88362 7.77098 7.47744 6.84742C8.07126 5.92386 8.92641 5.15715 9.95651 4.62473C10.9866 4.09231 12.1552 3.81303 13.3442 3.81511C14.5332 3.81719 15.7006 4.10054 16.7284 4.63656V2.94104C15.9229 2.6213 15.0662 2.41751 14.1899 2.33718V0.78125H12.4976V2.33642C10.4115 2.52679 8.47816 3.40389 7.07152 4.79813C5.66488 6.19238 4.88484 8.00471 4.88221 9.8847V12.6051L2.59167 14.6587C2.43298 14.8009 2.3438 14.9939 2.34375 15.195V17.4709C2.34375 17.6721 2.4329 17.8651 2.59158 18.0073C2.75027 18.1496 2.96549 18.2295 3.1899 18.2295H9.11298V18.9881C9.11298 19.9941 9.55872 20.9589 10.3521 21.6703C11.1456 22.3816 12.2217 22.7812 13.3438 22.7812C14.4658 22.7812 15.5419 22.3816 16.3354 21.6703C17.1288 20.9589 17.5745 19.9941 17.5745 18.9881V18.2295H23.4976C23.722 18.2295 23.9372 18.1496 24.0959 18.0073C24.2546 17.8651 24.3438 17.6721 24.3438 17.4709V15.195C24.3437 14.9939 24.2545 14.8009 24.0958 14.6587L21.8053 12.6051ZM15.8822 18.9881C15.8822 19.5917 15.6148 20.1706 15.1387 20.5974C14.6627 21.0242 14.017 21.264 13.3438 21.264C12.6705 21.264 12.0248 21.0242 11.5488 20.5974C11.0727 20.1706 10.8053 19.5917 10.8053 18.9881V18.2295H15.8822V18.9881Z" fill="black"/>
<path id="Vector_2" d="M20.3125 9.375C22.0384 9.375 23.4375 7.97589 23.4375 6.25C23.4375 4.52411 22.0384 3.125 20.3125 3.125C18.5866 3.125 17.1875 4.52411 17.1875 6.25C17.1875 7.97589 18.5866 9.375 20.3125 9.375Z" fill="#FA902D"/>
</g>
</svg>
