<svg width="316" height="123" viewBox="0 0 316 123" fill="none" xmlns="http://www.w3.org/2000/svg">
<rect x="0.5" y="0.5" width="315" height="122" rx="5.5" stroke="#FA902D"/>
<path d="M26.3828 36.125C26.3828 35.8594 26.3411 35.625 26.2578 35.4219C26.1797 35.2135 26.0391 35.026 25.8359 34.8594C25.638 34.6927 25.362 34.5339 25.0078 34.3828C24.6589 34.2318 24.2161 34.0781 23.6797 33.9219C23.1172 33.7552 22.6094 33.5703 22.1562 33.3672C21.7031 33.1589 21.3151 32.9219 20.9922 32.6562C20.6693 32.3906 20.4219 32.0859 20.25 31.7422C20.0781 31.3984 19.9922 31.0052 19.9922 30.5625C19.9922 30.1198 20.0833 29.7109 20.2656 29.3359C20.4479 28.9609 20.7083 28.6354 21.0469 28.3594C21.3906 28.0781 21.7995 27.8594 22.2734 27.7031C22.7474 27.5469 23.276 27.4688 23.8594 27.4688C24.7135 27.4688 25.4375 27.6328 26.0312 27.9609C26.6302 28.2839 27.0859 28.7083 27.3984 29.2344C27.7109 29.7552 27.8672 30.3125 27.8672 30.9062H26.3672C26.3672 30.4792 26.276 30.1016 26.0938 29.7734C25.9115 29.4401 25.6354 29.1797 25.2656 28.9922C24.8958 28.7995 24.4271 28.7031 23.8594 28.7031C23.3229 28.7031 22.8802 28.7839 22.5312 28.9453C22.1823 29.1068 21.9219 29.3255 21.75 29.6016C21.5833 29.8776 21.5 30.1927 21.5 30.5469C21.5 30.7865 21.5495 31.0052 21.6484 31.2031C21.7526 31.3958 21.9115 31.5755 22.125 31.7422C22.3438 31.9089 22.6198 32.0625 22.9531 32.2031C23.2917 32.3438 23.6953 32.4792 24.1641 32.6094C24.8099 32.7917 25.3672 32.9948 25.8359 33.2188C26.3047 33.4427 26.6901 33.6953 26.9922 33.9766C27.2995 34.2526 27.526 34.5677 27.6719 34.9219C27.8229 35.2708 27.8984 35.6667 27.8984 36.1094C27.8984 36.5729 27.8047 36.9922 27.6172 37.3672C27.4297 37.7422 27.1615 38.0625 26.8125 38.3281C26.4635 38.5938 26.0443 38.7995 25.5547 38.9453C25.0703 39.0859 24.5286 39.1562 23.9297 39.1562C23.4036 39.1562 22.8854 39.0833 22.375 38.9375C21.8698 38.7917 21.4089 38.5729 20.9922 38.2812C20.5807 37.9896 20.25 37.6302 20 37.2031C19.7552 36.7708 19.6328 36.2708 19.6328 35.7031H21.1328C21.1328 36.0938 21.2083 36.4297 21.3594 36.7109C21.5104 36.987 21.7161 37.2161 21.9766 37.3984C22.2422 37.5807 22.5417 37.7161 22.875 37.8047C23.2135 37.888 23.5651 37.9297 23.9297 37.9297C24.4557 37.9297 24.901 37.8568 25.2656 37.7109C25.6302 37.5651 25.9062 37.3568 26.0938 37.0859C26.2865 36.8151 26.3828 36.4948 26.3828 36.125ZM34.7734 37.0469V30.5469H36.2266V39H34.8438L34.7734 37.0469ZM35.0469 35.2656L35.6484 35.25C35.6484 35.8125 35.5885 36.3333 35.4688 36.8125C35.3542 37.2865 35.1667 37.6979 34.9062 38.0469C34.6458 38.3958 34.3047 38.6693 33.8828 38.8672C33.4609 39.0599 32.9479 39.1562 32.3438 39.1562C31.9323 39.1562 31.5547 39.0964 31.2109 38.9766C30.8724 38.8568 30.5807 38.6719 30.3359 38.4219C30.0911 38.1719 29.901 37.8464 29.7656 37.4453C29.6354 37.0443 29.5703 36.5625 29.5703 36V30.5469H31.0156V36.0156C31.0156 36.3958 31.0573 36.7109 31.1406 36.9609C31.2292 37.2057 31.3464 37.401 31.4922 37.5469C31.6432 37.6875 31.8099 37.7865 31.9922 37.8438C32.1797 37.901 32.3724 37.9297 32.5703 37.9297C33.1849 37.9297 33.6719 37.8125 34.0312 37.5781C34.3906 37.3385 34.6484 37.0182 34.8047 36.6172C34.9661 36.2109 35.0469 35.7604 35.0469 35.2656ZM38.4219 27H39.875V37.3594L39.75 39H38.4219V27ZM45.5859 34.7031V34.8672C45.5859 35.4818 45.513 36.0521 45.3672 36.5781C45.2214 37.099 45.0078 37.5521 44.7266 37.9375C44.4453 38.3229 44.1016 38.6224 43.6953 38.8359C43.2891 39.0495 42.8229 39.1562 42.2969 39.1562C41.7604 39.1562 41.2891 39.0651 40.8828 38.8828C40.4818 38.6953 40.1432 38.4271 39.8672 38.0781C39.5911 37.7292 39.3698 37.3073 39.2031 36.8125C39.0417 36.3177 38.9297 35.7604 38.8672 35.1406V34.4219C38.9297 33.7969 39.0417 33.237 39.2031 32.7422C39.3698 32.2474 39.5911 31.8255 39.8672 31.4766C40.1432 31.1224 40.4818 30.8542 40.8828 30.6719C41.2839 30.4844 41.75 30.3906 42.2812 30.3906C42.8125 30.3906 43.2839 30.4948 43.6953 30.7031C44.1068 30.9062 44.4505 31.1979 44.7266 31.5781C45.0078 31.9583 45.2214 32.4141 45.3672 32.9453C45.513 33.4714 45.5859 34.0573 45.5859 34.7031ZM44.1328 34.8672V34.7031C44.1328 34.2812 44.0938 33.8854 44.0156 33.5156C43.9375 33.1406 43.8125 32.8125 43.6406 32.5312C43.4688 32.2448 43.2422 32.0208 42.9609 31.8594C42.6797 31.6927 42.3333 31.6094 41.9219 31.6094C41.5573 31.6094 41.2396 31.6719 40.9688 31.7969C40.7031 31.9219 40.4766 32.0911 40.2891 32.3047C40.1016 32.513 39.9479 32.7526 39.8281 33.0234C39.7135 33.2891 39.6276 33.5651 39.5703 33.8516V35.7344C39.6536 36.099 39.7891 36.4505 39.9766 36.7891C40.1693 37.1224 40.4245 37.3958 40.7422 37.6094C41.0651 37.8229 41.4635 37.9297 41.9375 37.9297C42.3281 37.9297 42.6615 37.8516 42.9375 37.6953C43.2188 37.5339 43.4453 37.3125 43.6172 37.0312C43.7943 36.75 43.9245 36.4245 44.0078 36.0547C44.0911 35.6849 44.1328 35.2891 44.1328 34.8672ZM50.9531 30.5469V31.6562H46.3828V30.5469H50.9531ZM47.9297 28.4922H49.375V36.9062C49.375 37.1927 49.4193 37.4089 49.5078 37.5547C49.5964 37.7005 49.7109 37.7969 49.8516 37.8438C49.9922 37.8906 50.1432 37.9141 50.3047 37.9141C50.4245 37.9141 50.5495 37.9036 50.6797 37.8828C50.8151 37.8568 50.9167 37.8359 50.9844 37.8203L50.9922 39C50.8776 39.0365 50.7266 39.0703 50.5391 39.1016C50.3568 39.138 50.1354 39.1562 49.875 39.1562C49.5208 39.1562 49.1953 39.0859 48.8984 38.9453C48.6016 38.8047 48.3646 38.5703 48.1875 38.2422C48.0156 37.9089 47.9297 37.4609 47.9297 36.8984V28.4922ZM52.1094 34.8672V34.6875C52.1094 34.0781 52.1979 33.513 52.375 32.9922C52.5521 32.4661 52.8073 32.0104 53.1406 31.625C53.474 31.2344 53.8776 30.9323 54.3516 30.7188C54.8255 30.5 55.3568 30.3906 55.9453 30.3906C56.5391 30.3906 57.0729 30.5 57.5469 30.7188C58.026 30.9323 58.4323 31.2344 58.7656 31.625C59.1042 32.0104 59.362 32.4661 59.5391 32.9922C59.7161 33.513 59.8047 34.0781 59.8047 34.6875V34.8672C59.8047 35.4766 59.7161 36.0417 59.5391 36.5625C59.362 37.0833 59.1042 37.5391 58.7656 37.9297C58.4323 38.3151 58.0286 38.6172 57.5547 38.8359C57.0859 39.0495 56.5547 39.1562 55.9609 39.1562C55.3672 39.1562 54.8333 39.0495 54.3594 38.8359C53.8854 38.6172 53.4792 38.3151 53.1406 37.9297C52.8073 37.5391 52.5521 37.0833 52.375 36.5625C52.1979 36.0417 52.1094 35.4766 52.1094 34.8672ZM53.5547 34.6875V34.8672C53.5547 35.2891 53.6042 35.6875 53.7031 36.0625C53.8021 36.4323 53.9505 36.7604 54.1484 37.0469C54.3516 37.3333 54.6042 37.5599 54.9062 37.7266C55.2083 37.888 55.5599 37.9688 55.9609 37.9688C56.3568 37.9688 56.7031 37.888 57 37.7266C57.3021 37.5599 57.5521 37.3333 57.75 37.0469C57.9479 36.7604 58.0964 36.4323 58.1953 36.0625C58.2995 35.6875 58.3516 35.2891 58.3516 34.8672V34.6875C58.3516 34.2708 58.2995 33.8776 58.1953 33.5078C58.0964 33.1328 57.9453 32.8021 57.7422 32.5156C57.5443 32.224 57.2943 31.9948 56.9922 31.8281C56.6953 31.6615 56.3464 31.5781 55.9453 31.5781C55.5495 31.5781 55.2005 31.6615 54.8984 31.8281C54.6016 31.9948 54.3516 32.224 54.1484 32.5156C53.9505 32.8021 53.8021 33.1328 53.7031 33.5078C53.6042 33.8776 53.5547 34.2708 53.5547 34.6875ZM65.1562 30.5469V31.6562H60.5859V30.5469H65.1562ZM62.1328 28.4922H63.5781V36.9062C63.5781 37.1927 63.6224 37.4089 63.7109 37.5547C63.7995 37.7005 63.9141 37.7969 64.0547 37.8438C64.1953 37.8906 64.3464 37.9141 64.5078 37.9141C64.6276 37.9141 64.7526 37.9036 64.8828 37.8828C65.0182 37.8568 65.1198 37.8359 65.1875 37.8203L65.1953 39C65.0807 39.0365 64.9297 39.0703 64.7422 39.1016C64.5599 39.138 64.3385 39.1562 64.0781 39.1562C63.724 39.1562 63.3984 39.0859 63.1016 38.9453C62.8047 38.8047 62.5677 38.5703 62.3906 38.2422C62.2188 37.9089 62.1328 37.4609 62.1328 36.8984V28.4922ZM71.8359 37.5547V33.2031C71.8359 32.8698 71.7682 32.5807 71.6328 32.3359C71.5026 32.0859 71.3047 31.8932 71.0391 31.7578C70.7734 31.6224 70.4453 31.5547 70.0547 31.5547C69.6901 31.5547 69.3698 31.6172 69.0938 31.7422C68.8229 31.8672 68.6094 32.0312 68.4531 32.2344C68.3021 32.4375 68.2266 32.6562 68.2266 32.8906H66.7812C66.7812 32.5885 66.8594 32.2891 67.0156 31.9922C67.1719 31.6953 67.3958 31.4271 67.6875 31.1875C67.9844 30.9427 68.3385 30.75 68.75 30.6094C69.1667 30.4635 69.6302 30.3906 70.1406 30.3906C70.7552 30.3906 71.2969 30.4948 71.7656 30.7031C72.2396 30.9115 72.6094 31.2266 72.875 31.6484C73.1458 32.0651 73.2812 32.5885 73.2812 33.2188V37.1562C73.2812 37.4375 73.3047 37.737 73.3516 38.0547C73.4036 38.3724 73.4792 38.6458 73.5781 38.875V39H72.0703C71.9974 38.8333 71.9401 38.612 71.8984 38.3359C71.8568 38.0547 71.8359 37.7943 71.8359 37.5547ZM72.0859 33.875L72.1016 34.8906H70.6406C70.2292 34.8906 69.862 34.9245 69.5391 34.9922C69.2161 35.0547 68.9453 35.151 68.7266 35.2812C68.5078 35.4115 68.3411 35.5755 68.2266 35.7734C68.112 35.9661 68.0547 36.1927 68.0547 36.4531C68.0547 36.7188 68.1146 36.9609 68.2344 37.1797C68.3542 37.3984 68.5339 37.5729 68.7734 37.7031C69.0182 37.8281 69.3177 37.8906 69.6719 37.8906C70.1146 37.8906 70.5052 37.7969 70.8438 37.6094C71.1823 37.4219 71.4505 37.1927 71.6484 36.9219C71.8516 36.651 71.9609 36.388 71.9766 36.1328L72.5938 36.8281C72.5573 37.0469 72.4583 37.2891 72.2969 37.5547C72.1354 37.8203 71.9193 38.0755 71.6484 38.3203C71.3828 38.5599 71.0651 38.7604 70.6953 38.9219C70.3307 39.0781 69.9193 39.1562 69.4609 39.1562C68.888 39.1562 68.3854 39.0443 67.9531 38.8203C67.526 38.5964 67.1927 38.2969 66.9531 37.9219C66.7188 37.5417 66.6016 37.1172 66.6016 36.6484C66.6016 36.1953 66.6901 35.7969 66.8672 35.4531C67.0443 35.1042 67.2995 34.8151 67.6328 34.5859C67.9661 34.3516 68.3672 34.1745 68.8359 34.0547C69.3047 33.9349 69.8281 33.875 70.4062 33.875H72.0859ZM77.125 27V39H75.6719V27H77.125ZM83.3516 38.2344C83.3516 37.9896 83.4271 37.7839 83.5781 37.6172C83.7344 37.4453 83.9583 37.3594 84.25 37.3594C84.5417 37.3594 84.763 37.4453 84.9141 37.6172C85.0703 37.7839 85.1484 37.9896 85.1484 38.2344C85.1484 38.474 85.0703 38.6771 84.9141 38.8438C84.763 39.0104 84.5417 39.0938 84.25 39.0938C83.9583 39.0938 83.7344 39.0104 83.5781 38.8438C83.4271 38.6771 83.3516 38.474 83.3516 38.2344ZM83.3594 31.3359C83.3594 31.0911 83.4349 30.8854 83.5859 30.7188C83.7422 30.5469 83.9661 30.4609 84.2578 30.4609C84.5495 30.4609 84.7708 30.5469 84.9219 30.7188C85.0781 30.8854 85.1562 31.0911 85.1562 31.3359C85.1562 31.5755 85.0781 31.7786 84.9219 31.9453C84.7708 32.112 84.5495 32.1953 84.2578 32.1953C83.9661 32.1953 83.7422 32.112 83.5859 31.9453C83.4349 31.7786 83.3594 31.5755 83.3594 31.3359Z" fill="#46474B"/>
<path d="M274.305 30.4062L273.945 31.6406H266.695L267.055 30.4062H274.305ZM271.055 39L266.922 34.1719L266.914 33.2031H268.82C269.372 33.2031 269.828 33.112 270.188 32.9297C270.552 32.7422 270.826 32.4896 271.008 32.1719C271.19 31.8542 271.281 31.4974 271.281 31.1016C271.281 30.6589 271.195 30.2708 271.023 29.9375C270.852 29.599 270.581 29.3359 270.211 29.1484C269.846 28.9557 269.367 28.8594 268.773 28.8594H266.711L267.078 27.625H268.773C269.68 27.625 270.427 27.763 271.016 28.0391C271.609 28.3099 272.052 28.7057 272.344 29.2266C272.635 29.7474 272.781 30.3776 272.781 31.1172C272.781 31.7526 272.659 32.3229 272.414 32.8281C272.174 33.3281 271.776 33.7214 271.219 34.0078C270.667 34.2943 269.922 34.4375 268.984 34.4375L272.828 38.9062V39H271.055ZM274.305 27.625L273.945 28.8594H268.102L268.461 27.625H274.305Z" fill="#46474B"/>
<path d="M23.3984 60H21.0234L21.0391 58.7734H23.3984C24.2109 58.7734 24.888 58.6042 25.4297 58.2656C25.9714 57.9219 26.3776 57.4427 26.6484 56.8281C26.9245 56.2083 27.0625 55.4844 27.0625 54.6562V53.9609C27.0625 53.3099 26.9844 52.7318 26.8281 52.2266C26.6719 51.7161 26.4427 51.2865 26.1406 50.9375C25.8385 50.5833 25.4688 50.3151 25.0312 50.1328C24.599 49.9505 24.1016 49.8594 23.5391 49.8594H20.9766V48.625H23.5391C24.2839 48.625 24.9635 48.75 25.5781 49C26.1927 49.2448 26.7214 49.6016 27.1641 50.0703C27.612 50.5339 27.9557 51.0964 28.1953 51.7578C28.4349 52.4141 28.5547 53.1536 28.5547 53.9766V54.6562C28.5547 55.4792 28.4349 56.2214 28.1953 56.8828C27.9557 57.5391 27.6094 58.099 27.1562 58.5625C26.7083 59.026 26.1667 59.3828 25.5312 59.6328C24.901 59.8776 24.1901 60 23.3984 60ZM21.8281 48.625V60H20.3203V48.625H21.8281ZM32.1719 51.5469V60H30.7188V51.5469H32.1719ZM30.6094 49.3047C30.6094 49.0703 30.6797 48.8724 30.8203 48.7109C30.9661 48.5495 31.1797 48.4688 31.4609 48.4688C31.737 48.4688 31.9479 48.5495 32.0938 48.7109C32.2448 48.8724 32.3203 49.0703 32.3203 49.3047C32.3203 49.5286 32.2448 49.7214 32.0938 49.8828C31.9479 50.0391 31.737 50.1172 31.4609 50.1172C31.1797 50.1172 30.9661 50.0391 30.8203 49.8828C30.6797 49.7214 30.6094 49.5286 30.6094 49.3047ZM39.4141 57.7578C39.4141 57.5495 39.3672 57.3568 39.2734 57.1797C39.1849 56.9974 39 56.8333 38.7188 56.6875C38.4427 56.5365 38.026 56.4062 37.4688 56.2969C37 56.1979 36.5755 56.0807 36.1953 55.9453C35.8203 55.8099 35.5 55.6458 35.2344 55.4531C34.974 55.2604 34.7734 55.0339 34.6328 54.7734C34.4922 54.513 34.4219 54.2083 34.4219 53.8594C34.4219 53.526 34.4948 53.2109 34.6406 52.9141C34.7917 52.6172 35.0026 52.3542 35.2734 52.125C35.5495 51.8958 35.8802 51.7161 36.2656 51.5859C36.651 51.4557 37.0807 51.3906 37.5547 51.3906C38.2318 51.3906 38.8099 51.5104 39.2891 51.75C39.7682 51.9896 40.1354 52.3099 40.3906 52.7109C40.6458 53.1068 40.7734 53.5469 40.7734 54.0312H39.3281C39.3281 53.7969 39.2578 53.5703 39.1172 53.3516C38.9818 53.1276 38.7812 52.9427 38.5156 52.7969C38.2552 52.651 37.9349 52.5781 37.5547 52.5781C37.1536 52.5781 36.8281 52.6406 36.5781 52.7656C36.3333 52.8854 36.1536 53.0391 36.0391 53.2266C35.9297 53.4141 35.875 53.612 35.875 53.8203C35.875 53.9766 35.901 54.1172 35.9531 54.2422C36.0104 54.362 36.1094 54.474 36.25 54.5781C36.3906 54.6771 36.5885 54.7708 36.8438 54.8594C37.099 54.9479 37.4245 55.0365 37.8203 55.125C38.513 55.2812 39.0833 55.4688 39.5312 55.6875C39.9792 55.9062 40.3125 56.1745 40.5312 56.4922C40.75 56.8099 40.8594 57.1953 40.8594 57.6484C40.8594 58.0182 40.7812 58.3568 40.625 58.6641C40.474 58.9714 40.2526 59.237 39.9609 59.4609C39.6745 59.6797 39.3307 59.8516 38.9297 59.9766C38.5339 60.0964 38.0885 60.1562 37.5938 60.1562C36.849 60.1562 36.2188 60.0234 35.7031 59.7578C35.1875 59.4922 34.7969 59.1484 34.5312 58.7266C34.2656 58.3047 34.1328 57.8594 34.1328 57.3906H35.5859C35.6068 57.7865 35.7214 58.1016 35.9297 58.3359C36.138 58.5651 36.3932 58.7292 36.6953 58.8281C36.9974 58.9219 37.2969 58.9688 37.5938 58.9688C37.9896 58.9688 38.3203 58.9167 38.5859 58.8125C38.8568 58.7083 39.0625 58.5651 39.2031 58.3828C39.3438 58.2005 39.4141 57.9922 39.4141 57.7578ZM46.1406 58.9688C46.4844 58.9688 46.8021 58.8984 47.0938 58.7578C47.3854 58.6172 47.625 58.4245 47.8125 58.1797C48 57.9297 48.1068 57.6458 48.1328 57.3281H49.5078C49.4818 57.8281 49.3125 58.2943 49 58.7266C48.6927 59.1536 48.2891 59.5 47.7891 59.7656C47.2891 60.026 46.7396 60.1562 46.1406 60.1562C45.5052 60.1562 44.9505 60.0443 44.4766 59.8203C44.0078 59.5964 43.6172 59.2891 43.3047 58.8984C42.9974 58.5078 42.7656 58.0599 42.6094 57.5547C42.4583 57.0443 42.3828 56.5052 42.3828 55.9375V55.6094C42.3828 55.0417 42.4583 54.5052 42.6094 54C42.7656 53.4896 42.9974 53.0391 43.3047 52.6484C43.6172 52.2578 44.0078 51.9505 44.4766 51.7266C44.9505 51.5026 45.5052 51.3906 46.1406 51.3906C46.8021 51.3906 47.3802 51.526 47.875 51.7969C48.3698 52.0625 48.7578 52.4271 49.0391 52.8906C49.3255 53.349 49.4818 53.8698 49.5078 54.4531H48.1328C48.1068 54.1042 48.0078 53.7891 47.8359 53.5078C47.6693 53.2266 47.4401 53.0026 47.1484 52.8359C46.862 52.6641 46.526 52.5781 46.1406 52.5781C45.6979 52.5781 45.3255 52.6667 45.0234 52.8438C44.7266 53.0156 44.4896 53.25 44.3125 53.5469C44.1406 53.8385 44.0156 54.1641 43.9375 54.5234C43.8646 54.8776 43.8281 55.2396 43.8281 55.6094V55.9375C43.8281 56.3073 43.8646 56.6719 43.9375 57.0312C44.0104 57.3906 44.1328 57.7161 44.3047 58.0078C44.4818 58.2995 44.7188 58.5339 45.0156 58.7109C45.3177 58.8828 45.6927 58.9688 46.1406 58.9688ZM50.75 55.8672V55.6875C50.75 55.0781 50.8385 54.513 51.0156 53.9922C51.1927 53.4661 51.4479 53.0104 51.7812 52.625C52.1146 52.2344 52.5182 51.9323 52.9922 51.7188C53.4661 51.5 53.9974 51.3906 54.5859 51.3906C55.1797 51.3906 55.7135 51.5 56.1875 51.7188C56.6667 51.9323 57.0729 52.2344 57.4062 52.625C57.7448 53.0104 58.0026 53.4661 58.1797 53.9922C58.3568 54.513 58.4453 55.0781 58.4453 55.6875V55.8672C58.4453 56.4766 58.3568 57.0417 58.1797 57.5625C58.0026 58.0833 57.7448 58.5391 57.4062 58.9297C57.0729 59.3151 56.6693 59.6172 56.1953 59.8359C55.7266 60.0495 55.1953 60.1562 54.6016 60.1562C54.0078 60.1562 53.474 60.0495 53 59.8359C52.526 59.6172 52.1198 59.3151 51.7812 58.9297C51.4479 58.5391 51.1927 58.0833 51.0156 57.5625C50.8385 57.0417 50.75 56.4766 50.75 55.8672ZM52.1953 55.6875V55.8672C52.1953 56.2891 52.2448 56.6875 52.3438 57.0625C52.4427 57.4323 52.5911 57.7604 52.7891 58.0469C52.9922 58.3333 53.2448 58.5599 53.5469 58.7266C53.849 58.888 54.2005 58.9688 54.6016 58.9688C54.9974 58.9688 55.3438 58.888 55.6406 58.7266C55.9427 58.5599 56.1927 58.3333 56.3906 58.0469C56.5885 57.7604 56.737 57.4323 56.8359 57.0625C56.9401 56.6875 56.9922 56.2891 56.9922 55.8672V55.6875C56.9922 55.2708 56.9401 54.8776 56.8359 54.5078C56.737 54.1328 56.5859 53.8021 56.3828 53.5156C56.1849 53.224 55.9349 52.9948 55.6328 52.8281C55.3359 52.6615 54.987 52.5781 54.5859 52.5781C54.1901 52.5781 53.8411 52.6615 53.5391 52.8281C53.2422 52.9948 52.9922 53.224 52.7891 53.5156C52.5911 53.8021 52.4427 54.1328 52.3438 54.5078C52.2448 54.8776 52.1953 55.2708 52.1953 55.6875ZM65.4297 58.0469V51.5469H66.8828V60H65.5L65.4297 58.0469ZM65.7031 56.2656L66.3047 56.25C66.3047 56.8125 66.2448 57.3333 66.125 57.8125C66.0104 58.2865 65.8229 58.6979 65.5625 59.0469C65.3021 59.3958 64.9609 59.6693 64.5391 59.8672C64.1172 60.0599 63.6042 60.1562 63 60.1562C62.5885 60.1562 62.2109 60.0964 61.8672 59.9766C61.5286 59.8568 61.237 59.6719 60.9922 59.4219C60.7474 59.1719 60.5573 58.8464 60.4219 58.4453C60.2917 58.0443 60.2266 57.5625 60.2266 57V51.5469H61.6719V57.0156C61.6719 57.3958 61.7135 57.7109 61.7969 57.9609C61.8854 58.2057 62.0026 58.401 62.1484 58.5469C62.2995 58.6875 62.4661 58.7865 62.6484 58.8438C62.8359 58.901 63.0286 58.9297 63.2266 58.9297C63.8411 58.9297 64.3281 58.8125 64.6875 58.5781C65.0469 58.3385 65.3047 58.0182 65.4609 57.6172C65.6224 57.2109 65.7031 56.7604 65.7031 56.2656ZM70.5312 53.3516V60H69.0859V51.5469H70.4531L70.5312 53.3516ZM70.1875 55.4531L69.5859 55.4297C69.5911 54.8516 69.6771 54.3177 69.8438 53.8281C70.0104 53.3333 70.2448 52.9036 70.5469 52.5391C70.849 52.1745 71.2083 51.8932 71.625 51.6953C72.0469 51.4922 72.513 51.3906 73.0234 51.3906C73.4401 51.3906 73.8151 51.4479 74.1484 51.5625C74.4818 51.6719 74.7656 51.849 75 52.0938C75.2396 52.3385 75.4219 52.6562 75.5469 53.0469C75.6719 53.4323 75.7344 53.9036 75.7344 54.4609V60H74.2812V54.4453C74.2812 54.0026 74.2161 53.6484 74.0859 53.3828C73.9557 53.112 73.7656 52.9167 73.5156 52.7969C73.2656 52.6719 72.9583 52.6094 72.5938 52.6094C72.2344 52.6094 71.9062 52.6849 71.6094 52.8359C71.3177 52.987 71.0651 53.1953 70.8516 53.4609C70.6432 53.7266 70.4792 54.0312 70.3594 54.375C70.2448 54.7135 70.1875 55.0729 70.1875 55.4531ZM81.4688 51.5469V52.6562H76.8984V51.5469H81.4688ZM78.4453 49.4922H79.8906V57.9062C79.8906 58.1927 79.9349 58.4089 80.0234 58.5547C80.112 58.7005 80.2266 58.7969 80.3672 58.8438C80.5078 58.8906 80.6589 58.9141 80.8203 58.9141C80.9401 58.9141 81.0651 58.9036 81.1953 58.8828C81.3307 58.8568 81.4323 58.8359 81.5 58.8203L81.5078 60C81.3932 60.0365 81.2422 60.0703 81.0547 60.1016C80.8724 60.138 80.651 60.1562 80.3906 60.1562C80.0365 60.1562 79.7109 60.0859 79.4141 59.9453C79.1172 59.8047 78.8802 59.5703 78.7031 59.2422C78.5312 58.9089 78.4453 58.4609 78.4453 57.8984V49.4922ZM87.0703 59.2344C87.0703 58.9896 87.1458 58.7839 87.2969 58.6172C87.4531 58.4453 87.6771 58.3594 87.9688 58.3594C88.2604 58.3594 88.4818 58.4453 88.6328 58.6172C88.7891 58.7839 88.8672 58.9896 88.8672 59.2344C88.8672 59.474 88.7891 59.6771 88.6328 59.8438C88.4818 60.0104 88.2604 60.0938 87.9688 60.0938C87.6771 60.0938 87.4531 60.0104 87.2969 59.8438C87.1458 59.6771 87.0703 59.474 87.0703 59.2344ZM87.0781 52.3359C87.0781 52.0911 87.1536 51.8854 87.3047 51.7188C87.4609 51.5469 87.6849 51.4609 87.9766 51.4609C88.2682 51.4609 88.4896 51.5469 88.6406 51.7188C88.7969 51.8854 88.875 52.0911 88.875 52.3359C88.875 52.5755 88.7969 52.7786 88.6406 52.9453C88.4896 53.112 88.2682 53.1953 87.9766 53.1953C87.6849 53.1953 87.4609 53.112 87.3047 52.9453C87.1536 52.7786 87.0781 52.5755 87.0781 52.3359Z" fill="#46474B"/>
<path d="M274.305 51.4062L273.945 52.6406H266.695L267.055 51.4062H274.305ZM271.055 60L266.922 55.1719L266.914 54.2031H268.82C269.372 54.2031 269.828 54.112 270.188 53.9297C270.552 53.7422 270.826 53.4896 271.008 53.1719C271.19 52.8542 271.281 52.4974 271.281 52.1016C271.281 51.6589 271.195 51.2708 271.023 50.9375C270.852 50.599 270.581 50.3359 270.211 50.1484C269.846 49.9557 269.367 49.8594 268.773 49.8594H266.711L267.078 48.625H268.773C269.68 48.625 270.427 48.763 271.016 49.0391C271.609 49.3099 272.052 49.7057 272.344 50.2266C272.635 50.7474 272.781 51.3776 272.781 52.1172C272.781 52.7526 272.659 53.3229 272.414 53.8281C272.174 54.3281 271.776 54.7214 271.219 55.0078C270.667 55.2943 269.922 55.4375 268.984 55.4375L272.828 59.9062V60H271.055ZM274.305 48.625L273.945 49.8594H268.102L268.461 48.625H274.305Z" fill="#46474B"/>
<line x1="19" y1="71.5" x2="297" y2="71.5" stroke="#F5A62E" stroke-dasharray="4 4"/>
<path d="M24.5234 83.625V95H23.0391V83.625H24.5234ZM28.1797 83.625V84.8594H19.3906V83.625H28.1797ZM28.4844 90.8672V90.6875C28.4844 90.0781 28.5729 89.513 28.75 88.9922C28.9271 88.4661 29.1823 88.0104 29.5156 87.625C29.849 87.2344 30.2526 86.9323 30.7266 86.7188C31.2005 86.5 31.7318 86.3906 32.3203 86.3906C32.9141 86.3906 33.4479 86.5 33.9219 86.7188C34.401 86.9323 34.8073 87.2344 35.1406 87.625C35.4792 88.0104 35.737 88.4661 35.9141 88.9922C36.0911 89.513 36.1797 90.0781 36.1797 90.6875V90.8672C36.1797 91.4766 36.0911 92.0417 35.9141 92.5625C35.737 93.0833 35.4792 93.5391 35.1406 93.9297C34.8073 94.3151 34.4036 94.6172 33.9297 94.8359C33.4609 95.0495 32.9297 95.1562 32.3359 95.1562C31.7422 95.1562 31.2083 95.0495 30.7344 94.8359C30.2604 94.6172 29.8542 94.3151 29.5156 93.9297C29.1823 93.5391 28.9271 93.0833 28.75 92.5625C28.5729 92.0417 28.4844 91.4766 28.4844 90.8672ZM29.9297 90.6875V90.8672C29.9297 91.2891 29.9792 91.6875 30.0781 92.0625C30.1771 92.4323 30.3255 92.7604 30.5234 93.0469C30.7266 93.3333 30.9792 93.5599 31.2812 93.7266C31.5833 93.888 31.9349 93.9688 32.3359 93.9688C32.7318 93.9688 33.0781 93.888 33.375 93.7266C33.6771 93.5599 33.9271 93.3333 34.125 93.0469C34.3229 92.7604 34.4714 92.4323 34.5703 92.0625C34.6745 91.6875 34.7266 91.2891 34.7266 90.8672V90.6875C34.7266 90.2708 34.6745 89.8776 34.5703 89.5078C34.4714 89.1328 34.3203 88.8021 34.1172 88.5156C33.9193 88.224 33.6693 87.9948 33.3672 87.8281C33.0703 87.6615 32.7214 87.5781 32.3203 87.5781C31.9245 87.5781 31.5755 87.6615 31.2734 87.8281C30.9766 87.9948 30.7266 88.224 30.5234 88.5156C30.3255 88.8021 30.1771 89.1328 30.0781 89.5078C29.9792 89.8776 29.9297 90.2708 29.9297 90.6875ZM41.5312 86.5469V87.6562H36.9609V86.5469H41.5312ZM38.5078 84.4922H39.9531V92.9062C39.9531 93.1927 39.9974 93.4089 40.0859 93.5547C40.1745 93.7005 40.2891 93.7969 40.4297 93.8438C40.5703 93.8906 40.7214 93.9141 40.8828 93.9141C41.0026 93.9141 41.1276 93.9036 41.2578 93.8828C41.3932 93.8568 41.4948 93.8359 41.5625 93.8203L41.5703 95C41.4557 95.0365 41.3047 95.0703 41.1172 95.1016C40.9349 95.138 40.7135 95.1562 40.4531 95.1562C40.099 95.1562 39.7734 95.0859 39.4766 94.9453C39.1797 94.8047 38.9427 94.5703 38.7656 94.2422C38.5938 93.9089 38.5078 93.4609 38.5078 92.8984V84.4922ZM48.2109 93.5547V89.2031C48.2109 88.8698 48.1432 88.5807 48.0078 88.3359C47.8776 88.0859 47.6797 87.8932 47.4141 87.7578C47.1484 87.6224 46.8203 87.5547 46.4297 87.5547C46.0651 87.5547 45.7448 87.6172 45.4688 87.7422C45.1979 87.8672 44.9844 88.0312 44.8281 88.2344C44.6771 88.4375 44.6016 88.6562 44.6016 88.8906H43.1562C43.1562 88.5885 43.2344 88.2891 43.3906 87.9922C43.5469 87.6953 43.7708 87.4271 44.0625 87.1875C44.3594 86.9427 44.7135 86.75 45.125 86.6094C45.5417 86.4635 46.0052 86.3906 46.5156 86.3906C47.1302 86.3906 47.6719 86.4948 48.1406 86.7031C48.6146 86.9115 48.9844 87.2266 49.25 87.6484C49.5208 88.0651 49.6562 88.5885 49.6562 89.2188V93.1562C49.6562 93.4375 49.6797 93.737 49.7266 94.0547C49.7786 94.3724 49.8542 94.6458 49.9531 94.875V95H48.4453C48.3724 94.8333 48.3151 94.612 48.2734 94.3359C48.2318 94.0547 48.2109 93.7943 48.2109 93.5547ZM48.4609 89.875L48.4766 90.8906H47.0156C46.6042 90.8906 46.237 90.9245 45.9141 90.9922C45.5911 91.0547 45.3203 91.151 45.1016 91.2812C44.8828 91.4115 44.7161 91.5755 44.6016 91.7734C44.487 91.9661 44.4297 92.1927 44.4297 92.4531C44.4297 92.7188 44.4896 92.9609 44.6094 93.1797C44.7292 93.3984 44.9089 93.5729 45.1484 93.7031C45.3932 93.8281 45.6927 93.8906 46.0469 93.8906C46.4896 93.8906 46.8802 93.7969 47.2188 93.6094C47.5573 93.4219 47.8255 93.1927 48.0234 92.9219C48.2266 92.651 48.3359 92.388 48.3516 92.1328L48.9688 92.8281C48.9323 93.0469 48.8333 93.2891 48.6719 93.5547C48.5104 93.8203 48.2943 94.0755 48.0234 94.3203C47.7578 94.5599 47.4401 94.7604 47.0703 94.9219C46.7057 95.0781 46.2943 95.1562 45.8359 95.1562C45.263 95.1562 44.7604 95.0443 44.3281 94.8203C43.901 94.5964 43.5677 94.2969 43.3281 93.9219C43.0938 93.5417 42.9766 93.1172 42.9766 92.6484C42.9766 92.1953 43.0651 91.7969 43.2422 91.4531C43.4193 91.1042 43.6745 90.8151 44.0078 90.5859C44.3411 90.3516 44.7422 90.1745 45.2109 90.0547C45.6797 89.9349 46.2031 89.875 46.7812 89.875H48.4609ZM53.5 83V95H52.0469V83H53.5ZM59.7266 94.2344C59.7266 93.9896 59.8021 93.7839 59.9531 93.6172C60.1094 93.4453 60.3333 93.3594 60.625 93.3594C60.9167 93.3594 61.138 93.4453 61.2891 93.6172C61.4453 93.7839 61.5234 93.9896 61.5234 94.2344C61.5234 94.474 61.4453 94.6771 61.2891 94.8438C61.138 95.0104 60.9167 95.0938 60.625 95.0938C60.3333 95.0938 60.1094 95.0104 59.9531 94.8438C59.8021 94.6771 59.7266 94.474 59.7266 94.2344ZM59.7344 87.3359C59.7344 87.0911 59.8099 86.8854 59.9609 86.7188C60.1172 86.5469 60.3411 86.4609 60.6328 86.4609C60.9245 86.4609 61.1458 86.5469 61.2969 86.7188C61.4531 86.8854 61.5312 87.0911 61.5312 87.3359C61.5312 87.5755 61.4531 87.7786 61.2969 87.9453C61.1458 88.112 60.9245 88.1953 60.6328 88.1953C60.3411 88.1953 60.1172 88.112 59.9609 87.9453C59.8099 87.7786 59.7344 87.5755 59.7344 87.3359Z" fill="#46474B"/>
<path d="M274.305 86.4062L273.945 87.6406H266.695L267.055 86.4062H274.305ZM271.055 95L266.922 90.1719L266.914 89.2031H268.82C269.372 89.2031 269.828 89.112 270.188 88.9297C270.552 88.7422 270.826 88.4896 271.008 88.1719C271.19 87.8542 271.281 87.4974 271.281 87.1016C271.281 86.6589 271.195 86.2708 271.023 85.9375C270.852 85.599 270.581 85.3359 270.211 85.1484C269.846 84.9557 269.367 84.8594 268.773 84.8594H266.711L267.078 83.625H268.773C269.68 83.625 270.427 83.763 271.016 84.0391C271.609 84.3099 272.052 84.7057 272.344 85.2266C272.635 85.7474 272.781 86.3776 272.781 87.1172C272.781 87.7526 272.659 88.3229 272.414 88.8281C272.174 89.3281 271.776 89.7214 271.219 90.0078C270.667 90.2943 269.922 90.4375 268.984 90.4375L272.828 94.9062V95H271.055ZM274.305 83.625L273.945 84.8594H268.102L268.461 83.625H274.305Z" fill="#46474B"/>
</svg>
