<svg width="316" height="48" viewBox="0 0 316 48" fill="none" xmlns="http://www.w3.org/2000/svg">
<rect x="0.5" y="0.5" width="315" height="47" rx="5.5" stroke="#FF6635" stroke-dasharray="4 4"/>
<path d="M19.5586 16.4648V17.0039C19.5586 17.6445 19.4785 18.2188 19.3184 18.7266C19.1582 19.2344 18.9277 19.666 18.627 20.0215C18.3262 20.377 17.9648 20.6484 17.543 20.8359C17.125 21.0234 16.6562 21.1172 16.1367 21.1172C15.6328 21.1172 15.1699 21.0234 14.748 20.8359C14.3301 20.6484 13.9668 20.377 13.6582 20.0215C13.3535 19.666 13.1172 19.2344 12.9492 18.7266C12.7812 18.2188 12.6973 17.6445 12.6973 17.0039V16.4648C12.6973 15.8242 12.7793 15.252 12.9434 14.748C13.1113 14.2402 13.3477 13.8086 13.6523 13.4531C13.957 13.0938 14.3184 12.8203 14.7363 12.6328C15.1582 12.4453 15.6211 12.3516 16.125 12.3516C16.6445 12.3516 17.1133 12.4453 17.5312 12.6328C17.9531 12.8203 18.3145 13.0938 18.6152 13.4531C18.9199 13.8086 19.1523 14.2402 19.3125 14.748C19.4766 15.252 19.5586 15.8242 19.5586 16.4648ZM18.4395 17.0039V16.4531C18.4395 15.9453 18.3867 15.4961 18.2812 15.1055C18.1797 14.7148 18.0293 14.3867 17.8301 14.1211C17.6309 13.8555 17.3867 13.6543 17.0977 13.5176C16.8125 13.3809 16.4883 13.3125 16.125 13.3125C15.7734 13.3125 15.4551 13.3809 15.1699 13.5176C14.8887 13.6543 14.6465 13.8555 14.4434 14.1211C14.2441 14.3867 14.0898 14.7148 13.9805 15.1055C13.8711 15.4961 13.8164 15.9453 13.8164 16.4531V17.0039C13.8164 17.5156 13.8711 17.9688 13.9805 18.3633C14.0898 18.7539 14.2461 19.084 14.4492 19.3535C14.6562 19.6191 14.9004 19.8203 15.1816 19.957C15.4668 20.0938 15.7852 20.1621 16.1367 20.1621C16.5039 20.1621 16.8301 20.0938 17.1152 19.957C17.4004 19.8203 17.6406 19.6191 17.8359 19.3535C18.0352 19.084 18.1855 18.7539 18.2871 18.3633C18.3887 17.9688 18.4395 17.5156 18.4395 17.0039ZM22.1719 15.6562V21H21.0879V14.6602H22.1426L22.1719 15.6562ZM24.1523 14.625L24.1465 15.6328C24.0566 15.6133 23.9707 15.6016 23.8887 15.5977C23.8105 15.5898 23.7207 15.5859 23.6191 15.5859C23.3691 15.5859 23.1484 15.625 22.957 15.7031C22.7656 15.7812 22.6035 15.8906 22.4707 16.0312C22.3379 16.1719 22.2324 16.3398 22.1543 16.5352C22.0801 16.7266 22.0312 16.9375 22.0078 17.168L21.7031 17.3438C21.7031 16.9609 21.7402 16.6016 21.8145 16.2656C21.8926 15.9297 22.0117 15.6328 22.1719 15.375C22.332 15.1133 22.5352 14.9102 22.7812 14.7656C23.0312 14.6172 23.3281 14.543 23.6719 14.543C23.75 14.543 23.8398 14.5527 23.9414 14.5723C24.043 14.5879 24.1133 14.6055 24.1523 14.625ZM29.0332 19.7695V12H30.123V21H29.127L29.0332 19.7695ZM24.7676 17.9004V17.7773C24.7676 17.293 24.8262 16.8535 24.9434 16.459C25.0645 16.0605 25.2344 15.7188 25.4531 15.4336C25.6758 15.1484 25.9395 14.9297 26.2441 14.7773C26.5527 14.6211 26.8965 14.543 27.2754 14.543C27.6738 14.543 28.0215 14.6133 28.3184 14.7539C28.6191 14.8906 28.873 15.0918 29.0801 15.3574C29.291 15.6191 29.457 15.9355 29.5781 16.3066C29.6992 16.6777 29.7832 17.0977 29.8301 17.5664V18.1055C29.7871 18.5703 29.7031 18.9883 29.5781 19.3594C29.457 19.7305 29.291 20.0469 29.0801 20.3086C28.873 20.5703 28.6191 20.7715 28.3184 20.9121C28.0176 21.0488 27.666 21.1172 27.2637 21.1172C26.8926 21.1172 26.5527 21.0371 26.2441 20.877C25.9395 20.7168 25.6758 20.4922 25.4531 20.2031C25.2344 19.9141 25.0645 19.5742 24.9434 19.1836C24.8262 18.7891 24.7676 18.3613 24.7676 17.9004ZM25.8574 17.7773V17.9004C25.8574 18.2168 25.8887 18.5137 25.9512 18.791C26.0176 19.0684 26.1191 19.3125 26.2559 19.5234C26.3926 19.7344 26.5664 19.9004 26.7773 20.0215C26.9883 20.1387 27.2402 20.1973 27.5332 20.1973C27.8926 20.1973 28.1875 20.1211 28.418 19.9688C28.6523 19.8164 28.8398 19.6152 28.9805 19.3652C29.1211 19.1152 29.2305 18.8438 29.3086 18.5508V17.1387C29.2617 16.9238 29.1934 16.7168 29.1035 16.5176C29.0176 16.3145 28.9043 16.1348 28.7637 15.9785C28.627 15.8184 28.457 15.6914 28.2539 15.5977C28.0547 15.5039 27.8184 15.457 27.5449 15.457C27.248 15.457 26.9922 15.5195 26.7773 15.6445C26.5664 15.7656 26.3926 15.9336 26.2559 16.1484C26.1191 16.3594 26.0176 16.6055 25.9512 16.8867C25.8887 17.1641 25.8574 17.4609 25.8574 17.7773ZM34.4414 21.1172C34 21.1172 33.5996 21.043 33.2402 20.8945C32.8848 20.7422 32.5781 20.5293 32.3203 20.2559C32.0664 19.9824 31.8711 19.6582 31.7344 19.2832C31.5977 18.9082 31.5293 18.498 31.5293 18.0527V17.8066C31.5293 17.291 31.6055 16.832 31.7578 16.4297C31.9102 16.0234 32.1172 15.6797 32.3789 15.3984C32.6406 15.1172 32.9375 14.9043 33.2695 14.7598C33.6016 14.6152 33.9453 14.543 34.3008 14.543C34.7539 14.543 35.1445 14.6211 35.4727 14.7773C35.8047 14.9336 36.0762 15.1523 36.2871 15.4336C36.498 15.7109 36.6543 16.0391 36.7559 16.418C36.8574 16.793 36.9082 17.2031 36.9082 17.6484V18.1348H32.1738V17.25H35.8242V17.168C35.8086 16.8867 35.75 16.6133 35.6484 16.3477C35.5508 16.082 35.3945 15.8633 35.1797 15.6914C34.9648 15.5195 34.6719 15.4336 34.3008 15.4336C34.0547 15.4336 33.8281 15.4863 33.6211 15.5918C33.4141 15.6934 33.2363 15.8457 33.0879 16.0488C32.9395 16.252 32.8242 16.5 32.7422 16.793C32.6602 17.0859 32.6191 17.4238 32.6191 17.8066V18.0527C32.6191 18.3535 32.6602 18.6367 32.7422 18.9023C32.8281 19.1641 32.9512 19.3945 33.1113 19.5938C33.2754 19.793 33.4727 19.9492 33.7031 20.0625C33.9375 20.1758 34.2031 20.2324 34.5 20.2324C34.8828 20.2324 35.207 20.1543 35.4727 19.998C35.7383 19.8418 35.9707 19.6328 36.1699 19.3711L36.8262 19.8926C36.6895 20.0996 36.5156 20.2969 36.3047 20.4844C36.0938 20.6719 35.834 20.8242 35.5254 20.9414C35.2207 21.0586 34.8594 21.1172 34.4414 21.1172ZM39.2578 15.6562V21H38.1738V14.6602H39.2285L39.2578 15.6562ZM41.2383 14.625L41.2324 15.6328C41.1426 15.6133 41.0566 15.6016 40.9746 15.5977C40.8965 15.5898 40.8066 15.5859 40.7051 15.5859C40.4551 15.5859 40.2344 15.625 40.043 15.7031C39.8516 15.7812 39.6895 15.8906 39.5566 16.0312C39.4238 16.1719 39.3184 16.3398 39.2402 16.5352C39.166 16.7266 39.1172 16.9375 39.0938 17.168L38.7891 17.3438C38.7891 16.9609 38.8262 16.6016 38.9004 16.2656C38.9785 15.9297 39.0977 15.6328 39.2578 15.375C39.418 15.1133 39.6211 14.9102 39.8672 14.7656C40.1172 14.6172 40.4141 14.543 40.7578 14.543C40.8359 14.543 40.9258 14.5527 41.0273 14.5723C41.1289 14.5879 41.1992 14.6055 41.2383 14.625ZM47.7539 20.2266C48.0117 20.2266 48.25 20.1738 48.4688 20.0684C48.6875 19.9629 48.8672 19.8184 49.0078 19.6348C49.1484 19.4473 49.2285 19.2344 49.248 18.9961H50.2793C50.2598 19.3711 50.1328 19.7207 49.8984 20.0449C49.668 20.3652 49.3652 20.625 48.9902 20.8242C48.6152 21.0195 48.2031 21.1172 47.7539 21.1172C47.2773 21.1172 46.8613 21.0332 46.5059 20.8652C46.1543 20.6973 45.8613 20.4668 45.627 20.1738C45.3965 19.8809 45.2227 19.5449 45.1055 19.166C44.9922 18.7832 44.9355 18.3789 44.9355 17.9531V17.707C44.9355 17.2812 44.9922 16.8789 45.1055 16.5C45.2227 16.1172 45.3965 15.7793 45.627 15.4863C45.8613 15.1934 46.1543 14.9629 46.5059 14.7949C46.8613 14.627 47.2773 14.543 47.7539 14.543C48.25 14.543 48.6836 14.6445 49.0547 14.8477C49.4258 15.0469 49.7168 15.3203 49.9277 15.668C50.1426 16.0117 50.2598 16.4023 50.2793 16.8398H49.248C49.2285 16.5781 49.1543 16.3418 49.0254 16.1309C48.9004 15.9199 48.7285 15.752 48.5098 15.627C48.2949 15.498 48.043 15.4336 47.7539 15.4336C47.4219 15.4336 47.1426 15.5 46.916 15.6328C46.6934 15.7617 46.5156 15.9375 46.3828 16.1602C46.2539 16.3789 46.1602 16.623 46.1016 16.8926C46.0469 17.1582 46.0195 17.4297 46.0195 17.707V17.9531C46.0195 18.2305 46.0469 18.5039 46.1016 18.7734C46.1562 19.043 46.248 19.2871 46.377 19.5059C46.5098 19.7246 46.6875 19.9004 46.9102 20.0332C47.1367 20.1621 47.418 20.2266 47.7539 20.2266ZM55.2363 19.916V16.6523C55.2363 16.4023 55.1855 16.1855 55.084 16.002C54.9863 15.8145 54.8379 15.6699 54.6387 15.5684C54.4395 15.4668 54.1934 15.416 53.9004 15.416C53.627 15.416 53.3867 15.4629 53.1797 15.5566C52.9766 15.6504 52.8164 15.7734 52.6992 15.9258C52.5859 16.0781 52.5293 16.2422 52.5293 16.418H51.4453C51.4453 16.1914 51.5039 15.9668 51.6211 15.7441C51.7383 15.5215 51.9062 15.3203 52.125 15.1406C52.3477 14.957 52.6133 14.8125 52.9219 14.707C53.2344 14.5977 53.582 14.543 53.9648 14.543C54.4258 14.543 54.832 14.6211 55.1836 14.7773C55.5391 14.9336 55.8164 15.1699 56.0156 15.4863C56.2188 15.7988 56.3203 16.1914 56.3203 16.6641V19.6172C56.3203 19.8281 56.3379 20.0527 56.373 20.291C56.4121 20.5293 56.4688 20.7344 56.543 20.9062V21H55.4121C55.3574 20.875 55.3145 20.709 55.2832 20.502C55.252 20.291 55.2363 20.0957 55.2363 19.916ZM55.4238 17.1562L55.4355 17.918H54.3398C54.0312 17.918 53.7559 17.9434 53.5137 17.9941C53.2715 18.041 53.0684 18.1133 52.9043 18.2109C52.7402 18.3086 52.6152 18.4316 52.5293 18.5801C52.4434 18.7246 52.4004 18.8945 52.4004 19.0898C52.4004 19.2891 52.4453 19.4707 52.5352 19.6348C52.625 19.7988 52.7598 19.9297 52.9395 20.0273C53.123 20.1211 53.3477 20.168 53.6133 20.168C53.9453 20.168 54.2383 20.0977 54.4922 19.957C54.7461 19.8164 54.9473 19.6445 55.0957 19.4414C55.248 19.2383 55.3301 19.041 55.3418 18.8496L55.8047 19.3711C55.7773 19.5352 55.7031 19.7168 55.582 19.916C55.4609 20.1152 55.2988 20.3066 55.0957 20.4902C54.8965 20.6699 54.6582 20.8203 54.3809 20.9414C54.1074 21.0586 53.7988 21.1172 53.4551 21.1172C53.0254 21.1172 52.6484 21.0332 52.3242 20.8652C52.0039 20.6973 51.7539 20.4727 51.5742 20.1914C51.3984 19.9062 51.3105 19.5879 51.3105 19.2363C51.3105 18.8965 51.377 18.5977 51.5098 18.3398C51.6426 18.0781 51.834 17.8613 52.084 17.6895C52.334 17.5137 52.6348 17.3809 52.9863 17.291C53.3379 17.2012 53.7305 17.1562 54.1641 17.1562H55.4238ZM59.1094 16.0137V21H58.0254V14.6602H59.0508L59.1094 16.0137ZM58.8516 17.5898L58.4004 17.5723C58.4043 17.1387 58.4688 16.7383 58.5938 16.3711C58.7188 16 58.8945 15.6777 59.1211 15.4043C59.3477 15.1309 59.6172 14.9199 59.9297 14.7715C60.2461 14.6191 60.5957 14.543 60.9785 14.543C61.291 14.543 61.5723 14.5859 61.8223 14.6719C62.0723 14.7539 62.2852 14.8867 62.4609 15.0703C62.6406 15.2539 62.7773 15.4922 62.8711 15.7852C62.9648 16.0742 63.0117 16.4277 63.0117 16.8457V21H61.9219V16.834C61.9219 16.502 61.873 16.2363 61.7754 16.0371C61.6777 15.834 61.5352 15.6875 61.3477 15.5977C61.1602 15.5039 60.9297 15.457 60.6562 15.457C60.3867 15.457 60.1406 15.5137 59.918 15.627C59.6992 15.7402 59.5098 15.8965 59.3496 16.0957C59.1934 16.2949 59.0703 16.5234 58.9805 16.7812C58.8945 17.0352 58.8516 17.3047 58.8516 17.5898ZM65.7422 16.0137V21H64.6582V14.6602H65.6836L65.7422 16.0137ZM65.4844 17.5898L65.0332 17.5723C65.0371 17.1387 65.1016 16.7383 65.2266 16.3711C65.3516 16 65.5273 15.6777 65.7539 15.4043C65.9805 15.1309 66.25 14.9199 66.5625 14.7715C66.8789 14.6191 67.2285 14.543 67.6113 14.543C67.9238 14.543 68.2051 14.5859 68.4551 14.6719C68.7051 14.7539 68.918 14.8867 69.0938 15.0703C69.2734 15.2539 69.4102 15.4922 69.5039 15.7852C69.5977 16.0742 69.6445 16.4277 69.6445 16.8457V21H68.5547V16.834C68.5547 16.502 68.5059 16.2363 68.4082 16.0371C68.3105 15.834 68.168 15.6875 67.9805 15.5977C67.793 15.5039 67.5625 15.457 67.2891 15.457C67.0195 15.457 66.7734 15.5137 66.5508 15.627C66.332 15.7402 66.1426 15.8965 65.9824 16.0957C65.8262 16.2949 65.7031 16.5234 65.6133 16.7812C65.5273 17.0352 65.4844 17.3047 65.4844 17.5898ZM71.0039 17.9004V17.7656C71.0039 17.3086 71.0703 16.8848 71.2031 16.4941C71.3359 16.0996 71.5273 15.7578 71.7773 15.4688C72.0273 15.1758 72.3301 14.9492 72.6855 14.7891C73.041 14.625 73.4395 14.543 73.8809 14.543C74.3262 14.543 74.7266 14.625 75.082 14.7891C75.4414 14.9492 75.7461 15.1758 75.9961 15.4688C76.25 15.7578 76.4434 16.0996 76.5762 16.4941C76.709 16.8848 76.7754 17.3086 76.7754 17.7656V17.9004C76.7754 18.3574 76.709 18.7812 76.5762 19.1719C76.4434 19.5625 76.25 19.9043 75.9961 20.1973C75.7461 20.4863 75.4434 20.7129 75.0879 20.877C74.7363 21.0371 74.3379 21.1172 73.8926 21.1172C73.4473 21.1172 73.0469 21.0371 72.6914 20.877C72.3359 20.7129 72.0312 20.4863 71.7773 20.1973C71.5273 19.9043 71.3359 19.5625 71.2031 19.1719C71.0703 18.7812 71.0039 18.3574 71.0039 17.9004ZM72.0879 17.7656V17.9004C72.0879 18.2168 72.125 18.5156 72.1992 18.7969C72.2734 19.0742 72.3848 19.3203 72.5332 19.5352C72.6855 19.75 72.875 19.9199 73.1016 20.0449C73.3281 20.166 73.5918 20.2266 73.8926 20.2266C74.1895 20.2266 74.4492 20.166 74.6719 20.0449C74.8984 19.9199 75.0859 19.75 75.2344 19.5352C75.3828 19.3203 75.4941 19.0742 75.5684 18.7969C75.6465 18.5156 75.6855 18.2168 75.6855 17.9004V17.7656C75.6855 17.4531 75.6465 17.1582 75.5684 16.8809C75.4941 16.5996 75.3809 16.3516 75.2285 16.1367C75.0801 15.918 74.8926 15.7461 74.666 15.6211C74.4434 15.4961 74.1816 15.4336 73.8809 15.4336C73.584 15.4336 73.3223 15.4961 73.0957 15.6211C72.873 15.7461 72.6855 15.918 72.5332 16.1367C72.3848 16.3516 72.2734 16.5996 72.1992 16.8809C72.125 17.1582 72.0879 17.4531 72.0879 17.7656ZM80.7891 14.6602V15.4922H77.3613V14.6602H80.7891ZM78.5215 13.1191H79.6055V19.4297C79.6055 19.6445 79.6387 19.8066 79.7051 19.916C79.7715 20.0254 79.8574 20.0977 79.9629 20.1328C80.0684 20.168 80.1816 20.1855 80.3027 20.1855C80.3926 20.1855 80.4863 20.1777 80.584 20.1621C80.6855 20.1426 80.7617 20.127 80.8125 20.1152L80.8184 21C80.7324 21.0273 80.6191 21.0527 80.4785 21.0762C80.3418 21.1035 80.1758 21.1172 79.9805 21.1172C79.7148 21.1172 79.4707 21.0645 79.248 20.959C79.0254 20.8535 78.8477 20.6777 78.7148 20.4316C78.5859 20.1816 78.5215 19.8457 78.5215 19.4238V13.1191ZM85.0312 12H86.1211V19.7695L86.0273 21H85.0312V12ZM90.4043 17.7773V17.9004C90.4043 18.3613 90.3496 18.7891 90.2402 19.1836C90.1309 19.5742 89.9707 19.9141 89.7598 20.2031C89.5488 20.4922 89.291 20.7168 88.9863 20.877C88.6816 21.0371 88.332 21.1172 87.9375 21.1172C87.5352 21.1172 87.1816 21.0488 86.877 20.9121C86.5762 20.7715 86.3223 20.5703 86.1152 20.3086C85.9082 20.0469 85.7422 19.7305 85.6172 19.3594C85.4961 18.9883 85.4121 18.5703 85.3652 18.1055V17.5664C85.4121 17.0977 85.4961 16.6777 85.6172 16.3066C85.7422 15.9355 85.9082 15.6191 86.1152 15.3574C86.3223 15.0918 86.5762 14.8906 86.877 14.7539C87.1777 14.6133 87.5273 14.543 87.9258 14.543C88.3242 14.543 88.6777 14.6211 88.9863 14.7773C89.2949 14.9297 89.5527 15.1484 89.7598 15.4336C89.9707 15.7188 90.1309 16.0605 90.2402 16.459C90.3496 16.8535 90.4043 17.293 90.4043 17.7773ZM89.3145 17.9004V17.7773C89.3145 17.4609 89.2852 17.1641 89.2266 16.8867C89.168 16.6055 89.0742 16.3594 88.9453 16.1484C88.8164 15.9336 88.6465 15.7656 88.4355 15.6445C88.2246 15.5195 87.9648 15.457 87.6562 15.457C87.3828 15.457 87.1445 15.5039 86.9414 15.5977C86.7422 15.6914 86.5723 15.8184 86.4316 15.9785C86.291 16.1348 86.1758 16.3145 86.0859 16.5176C86 16.7168 85.9355 16.9238 85.8926 17.1387V18.5508C85.9551 18.8242 86.0566 19.0879 86.1973 19.3418C86.3418 19.5918 86.5332 19.7969 86.7715 19.957C87.0137 20.1172 87.3125 20.1973 87.668 20.1973C87.9609 20.1973 88.2109 20.1387 88.418 20.0215C88.6289 19.9004 88.7988 19.7344 88.9277 19.5234C89.0605 19.3125 89.1582 19.0684 89.2207 18.791C89.2832 18.5137 89.3145 18.2168 89.3145 17.9004ZM94.4062 21.1172C93.9648 21.1172 93.5645 21.043 93.2051 20.8945C92.8496 20.7422 92.543 20.5293 92.2852 20.2559C92.0312 19.9824 91.8359 19.6582 91.6992 19.2832C91.5625 18.9082 91.4941 18.498 91.4941 18.0527V17.8066C91.4941 17.291 91.5703 16.832 91.7227 16.4297C91.875 16.0234 92.082 15.6797 92.3438 15.3984C92.6055 15.1172 92.9023 14.9043 93.2344 14.7598C93.5664 14.6152 93.9102 14.543 94.2656 14.543C94.7188 14.543 95.1094 14.6211 95.4375 14.7773C95.7695 14.9336 96.041 15.1523 96.252 15.4336C96.4629 15.7109 96.6191 16.0391 96.7207 16.418C96.8223 16.793 96.873 17.2031 96.873 17.6484V18.1348H92.1387V17.25H95.7891V17.168C95.7734 16.8867 95.7148 16.6133 95.6133 16.3477C95.5156 16.082 95.3594 15.8633 95.1445 15.6914C94.9297 15.5195 94.6367 15.4336 94.2656 15.4336C94.0195 15.4336 93.793 15.4863 93.5859 15.5918C93.3789 15.6934 93.2012 15.8457 93.0527 16.0488C92.9043 16.252 92.7891 16.5 92.707 16.793C92.625 17.0859 92.584 17.4238 92.584 17.8066V18.0527C92.584 18.3535 92.625 18.6367 92.707 18.9023C92.793 19.1641 92.916 19.3945 93.0762 19.5938C93.2402 19.793 93.4375 19.9492 93.668 20.0625C93.9023 20.1758 94.168 20.2324 94.4648 20.2324C94.8477 20.2324 95.1719 20.1543 95.4375 19.998C95.7031 19.8418 95.9355 19.6328 96.1348 19.3711L96.791 19.8926C96.6543 20.0996 96.4805 20.2969 96.2695 20.4844C96.0586 20.6719 95.7988 20.8242 95.4902 20.9414C95.1855 21.0586 94.8242 21.1172 94.4062 21.1172ZM103.652 20.2266C103.91 20.2266 104.148 20.1738 104.367 20.0684C104.586 19.9629 104.766 19.8184 104.906 19.6348C105.047 19.4473 105.127 19.2344 105.146 18.9961H106.178C106.158 19.3711 106.031 19.7207 105.797 20.0449C105.566 20.3652 105.264 20.625 104.889 20.8242C104.514 21.0195 104.102 21.1172 103.652 21.1172C103.176 21.1172 102.76 21.0332 102.404 20.8652C102.053 20.6973 101.76 20.4668 101.525 20.1738C101.295 19.8809 101.121 19.5449 101.004 19.166C100.891 18.7832 100.834 18.3789 100.834 17.9531V17.707C100.834 17.2812 100.891 16.8789 101.004 16.5C101.121 16.1172 101.295 15.7793 101.525 15.4863C101.76 15.1934 102.053 14.9629 102.404 14.7949C102.76 14.627 103.176 14.543 103.652 14.543C104.148 14.543 104.582 14.6445 104.953 14.8477C105.324 15.0469 105.615 15.3203 105.826 15.668C106.041 16.0117 106.158 16.4023 106.178 16.8398H105.146C105.127 16.5781 105.053 16.3418 104.924 16.1309C104.799 15.9199 104.627 15.752 104.408 15.627C104.193 15.498 103.941 15.4336 103.652 15.4336C103.32 15.4336 103.041 15.5 102.814 15.6328C102.592 15.7617 102.414 15.9375 102.281 16.1602C102.152 16.3789 102.059 16.623 102 16.8926C101.945 17.1582 101.918 17.4297 101.918 17.707V17.9531C101.918 18.2305 101.945 18.5039 102 18.7734C102.055 19.043 102.146 19.2871 102.275 19.5059C102.408 19.7246 102.586 19.9004 102.809 20.0332C103.035 20.1621 103.316 20.2266 103.652 20.2266ZM111.135 19.916V16.6523C111.135 16.4023 111.084 16.1855 110.982 16.002C110.885 15.8145 110.736 15.6699 110.537 15.5684C110.338 15.4668 110.092 15.416 109.799 15.416C109.525 15.416 109.285 15.4629 109.078 15.5566C108.875 15.6504 108.715 15.7734 108.598 15.9258C108.484 16.0781 108.428 16.2422 108.428 16.418H107.344C107.344 16.1914 107.402 15.9668 107.52 15.7441C107.637 15.5215 107.805 15.3203 108.023 15.1406C108.246 14.957 108.512 14.8125 108.82 14.707C109.133 14.5977 109.48 14.543 109.863 14.543C110.324 14.543 110.73 14.6211 111.082 14.7773C111.438 14.9336 111.715 15.1699 111.914 15.4863C112.117 15.7988 112.219 16.1914 112.219 16.6641V19.6172C112.219 19.8281 112.236 20.0527 112.271 20.291C112.311 20.5293 112.367 20.7344 112.441 20.9062V21H111.311C111.256 20.875 111.213 20.709 111.182 20.502C111.15 20.291 111.135 20.0957 111.135 19.916ZM111.322 17.1562L111.334 17.918H110.238C109.93 17.918 109.654 17.9434 109.412 17.9941C109.17 18.041 108.967 18.1133 108.803 18.2109C108.639 18.3086 108.514 18.4316 108.428 18.5801C108.342 18.7246 108.299 18.8945 108.299 19.0898C108.299 19.2891 108.344 19.4707 108.434 19.6348C108.523 19.7988 108.658 19.9297 108.838 20.0273C109.021 20.1211 109.246 20.168 109.512 20.168C109.844 20.168 110.137 20.0977 110.391 19.957C110.645 19.8164 110.846 19.6445 110.994 19.4414C111.146 19.2383 111.229 19.041 111.24 18.8496L111.703 19.3711C111.676 19.5352 111.602 19.7168 111.48 19.916C111.359 20.1152 111.197 20.3066 110.994 20.4902C110.795 20.6699 110.557 20.8203 110.279 20.9414C110.006 21.0586 109.697 21.1172 109.354 21.1172C108.924 21.1172 108.547 21.0332 108.223 20.8652C107.902 20.6973 107.652 20.4727 107.473 20.1914C107.297 19.9062 107.209 19.5879 107.209 19.2363C107.209 18.8965 107.275 18.5977 107.408 18.3398C107.541 18.0781 107.732 17.8613 107.982 17.6895C108.232 17.5137 108.533 17.3809 108.885 17.291C109.236 17.2012 109.629 17.1562 110.062 17.1562H111.322ZM115.008 16.0137V21H113.924V14.6602H114.949L115.008 16.0137ZM114.75 17.5898L114.299 17.5723C114.303 17.1387 114.367 16.7383 114.492 16.3711C114.617 16 114.793 15.6777 115.02 15.4043C115.246 15.1309 115.516 14.9199 115.828 14.7715C116.145 14.6191 116.494 14.543 116.877 14.543C117.189 14.543 117.471 14.5859 117.721 14.6719C117.971 14.7539 118.184 14.8867 118.359 15.0703C118.539 15.2539 118.676 15.4922 118.77 15.7852C118.863 16.0742 118.91 16.4277 118.91 16.8457V21H117.82V16.834C117.82 16.502 117.771 16.2363 117.674 16.0371C117.576 15.834 117.434 15.6875 117.246 15.5977C117.059 15.5039 116.828 15.457 116.555 15.457C116.285 15.457 116.039 15.5137 115.816 15.627C115.598 15.7402 115.408 15.8965 115.248 16.0957C115.092 16.2949 114.969 16.5234 114.879 16.7812C114.793 17.0352 114.75 17.3047 114.75 17.5898ZM123.094 20.2266C123.352 20.2266 123.59 20.1738 123.809 20.0684C124.027 19.9629 124.207 19.8184 124.348 19.6348C124.488 19.4473 124.568 19.2344 124.588 18.9961H125.619C125.6 19.3711 125.473 19.7207 125.238 20.0449C125.008 20.3652 124.705 20.625 124.33 20.8242C123.955 21.0195 123.543 21.1172 123.094 21.1172C122.617 21.1172 122.201 21.0332 121.846 20.8652C121.494 20.6973 121.201 20.4668 120.967 20.1738C120.736 19.8809 120.562 19.5449 120.445 19.166C120.332 18.7832 120.275 18.3789 120.275 17.9531V17.707C120.275 17.2812 120.332 16.8789 120.445 16.5C120.562 16.1172 120.736 15.7793 120.967 15.4863C121.201 15.1934 121.494 14.9629 121.846 14.7949C122.201 14.627 122.617 14.543 123.094 14.543C123.59 14.543 124.023 14.6445 124.395 14.8477C124.766 15.0469 125.057 15.3203 125.268 15.668C125.482 16.0117 125.6 16.4023 125.619 16.8398H124.588C124.568 16.5781 124.494 16.3418 124.365 16.1309C124.24 15.9199 124.068 15.752 123.85 15.627C123.635 15.498 123.383 15.4336 123.094 15.4336C122.762 15.4336 122.482 15.5 122.256 15.6328C122.033 15.7617 121.855 15.9375 121.723 16.1602C121.594 16.3789 121.5 16.623 121.441 16.8926C121.387 17.1582 121.359 17.4297 121.359 17.707V17.9531C121.359 18.2305 121.387 18.5039 121.441 18.7734C121.496 19.043 121.588 19.2871 121.717 19.5059C121.85 19.7246 122.027 19.9004 122.25 20.0332C122.477 20.1621 122.758 20.2266 123.094 20.2266ZM129.469 21.1172C129.027 21.1172 128.627 21.043 128.268 20.8945C127.912 20.7422 127.605 20.5293 127.348 20.2559C127.094 19.9824 126.898 19.6582 126.762 19.2832C126.625 18.9082 126.557 18.498 126.557 18.0527V17.8066C126.557 17.291 126.633 16.832 126.785 16.4297C126.938 16.0234 127.145 15.6797 127.406 15.3984C127.668 15.1172 127.965 14.9043 128.297 14.7598C128.629 14.6152 128.973 14.543 129.328 14.543C129.781 14.543 130.172 14.6211 130.5 14.7773C130.832 14.9336 131.104 15.1523 131.314 15.4336C131.525 15.7109 131.682 16.0391 131.783 16.418C131.885 16.793 131.936 17.2031 131.936 17.6484V18.1348H127.201V17.25H130.852V17.168C130.836 16.8867 130.777 16.6133 130.676 16.3477C130.578 16.082 130.422 15.8633 130.207 15.6914C129.992 15.5195 129.699 15.4336 129.328 15.4336C129.082 15.4336 128.855 15.4863 128.648 15.5918C128.441 15.6934 128.264 15.8457 128.115 16.0488C127.967 16.252 127.852 16.5 127.77 16.793C127.688 17.0859 127.646 17.4238 127.646 17.8066V18.0527C127.646 18.3535 127.688 18.6367 127.77 18.9023C127.855 19.1641 127.979 19.3945 128.139 19.5938C128.303 19.793 128.5 19.9492 128.73 20.0625C128.965 20.1758 129.23 20.2324 129.527 20.2324C129.91 20.2324 130.234 20.1543 130.5 19.998C130.766 19.8418 130.998 19.6328 131.197 19.3711L131.854 19.8926C131.717 20.0996 131.543 20.2969 131.332 20.4844C131.121 20.6719 130.861 20.8242 130.553 20.9414C130.248 21.0586 129.887 21.1172 129.469 21.1172ZM134.379 12V21H133.289V12H134.379ZM137.297 12V21H136.207V12H137.297ZM141.668 21.1172C141.227 21.1172 140.826 21.043 140.467 20.8945C140.111 20.7422 139.805 20.5293 139.547 20.2559C139.293 19.9824 139.098 19.6582 138.961 19.2832C138.824 18.9082 138.756 18.498 138.756 18.0527V17.8066C138.756 17.291 138.832 16.832 138.984 16.4297C139.137 16.0234 139.344 15.6797 139.605 15.3984C139.867 15.1172 140.164 14.9043 140.496 14.7598C140.828 14.6152 141.172 14.543 141.527 14.543C141.98 14.543 142.371 14.6211 142.699 14.7773C143.031 14.9336 143.303 15.1523 143.514 15.4336C143.725 15.7109 143.881 16.0391 143.982 16.418C144.084 16.793 144.135 17.2031 144.135 17.6484V18.1348H139.4V17.25H143.051V17.168C143.035 16.8867 142.977 16.6133 142.875 16.3477C142.777 16.082 142.621 15.8633 142.406 15.6914C142.191 15.5195 141.898 15.4336 141.527 15.4336C141.281 15.4336 141.055 15.4863 140.848 15.5918C140.641 15.6934 140.463 15.8457 140.314 16.0488C140.166 16.252 140.051 16.5 139.969 16.793C139.887 17.0859 139.846 17.4238 139.846 17.8066V18.0527C139.846 18.3535 139.887 18.6367 139.969 18.9023C140.055 19.1641 140.178 19.3945 140.338 19.5938C140.502 19.793 140.699 19.9492 140.93 20.0625C141.164 20.1758 141.43 20.2324 141.727 20.2324C142.109 20.2324 142.434 20.1543 142.699 19.998C142.965 19.8418 143.197 19.6328 143.396 19.3711L144.053 19.8926C143.916 20.0996 143.742 20.2969 143.531 20.4844C143.32 20.6719 143.061 20.8242 142.752 20.9414C142.447 21.0586 142.086 21.1172 141.668 21.1172ZM149.396 19.7695V12H150.486V21H149.49L149.396 19.7695ZM145.131 17.9004V17.7773C145.131 17.293 145.189 16.8535 145.307 16.459C145.428 16.0605 145.598 15.7188 145.816 15.4336C146.039 15.1484 146.303 14.9297 146.607 14.7773C146.916 14.6211 147.26 14.543 147.639 14.543C148.037 14.543 148.385 14.6133 148.682 14.7539C148.982 14.8906 149.236 15.0918 149.443 15.3574C149.654 15.6191 149.82 15.9355 149.941 16.3066C150.062 16.6777 150.146 17.0977 150.193 17.5664V18.1055C150.15 18.5703 150.066 18.9883 149.941 19.3594C149.82 19.7305 149.654 20.0469 149.443 20.3086C149.236 20.5703 148.982 20.7715 148.682 20.9121C148.381 21.0488 148.029 21.1172 147.627 21.1172C147.256 21.1172 146.916 21.0371 146.607 20.877C146.303 20.7168 146.039 20.4922 145.816 20.2031C145.598 19.9141 145.428 19.5742 145.307 19.1836C145.189 18.7891 145.131 18.3613 145.131 17.9004ZM146.221 17.7773V17.9004C146.221 18.2168 146.252 18.5137 146.314 18.791C146.381 19.0684 146.482 19.3125 146.619 19.5234C146.756 19.7344 146.93 19.9004 147.141 20.0215C147.352 20.1387 147.604 20.1973 147.896 20.1973C148.256 20.1973 148.551 20.1211 148.781 19.9688C149.016 19.8164 149.203 19.6152 149.344 19.3652C149.484 19.1152 149.594 18.8438 149.672 18.5508V17.1387C149.625 16.9238 149.557 16.7168 149.467 16.5176C149.381 16.3145 149.268 16.1348 149.127 15.9785C148.99 15.8184 148.82 15.6914 148.617 15.5977C148.418 15.5039 148.182 15.457 147.908 15.457C147.611 15.457 147.355 15.5195 147.141 15.6445C146.93 15.7656 146.756 15.9336 146.619 16.1484C146.482 16.3594 146.381 16.6055 146.314 16.8867C146.252 17.1641 146.221 17.4609 146.221 17.7773ZM154.863 17.9004V17.7656C154.863 17.3086 154.93 16.8848 155.062 16.4941C155.195 16.0996 155.387 15.7578 155.637 15.4688C155.887 15.1758 156.189 14.9492 156.545 14.7891C156.9 14.625 157.299 14.543 157.74 14.543C158.186 14.543 158.586 14.625 158.941 14.7891C159.301 14.9492 159.605 15.1758 159.855 15.4688C160.109 15.7578 160.303 16.0996 160.436 16.4941C160.568 16.8848 160.635 17.3086 160.635 17.7656V17.9004C160.635 18.3574 160.568 18.7812 160.436 19.1719C160.303 19.5625 160.109 19.9043 159.855 20.1973C159.605 20.4863 159.303 20.7129 158.947 20.877C158.596 21.0371 158.197 21.1172 157.752 21.1172C157.307 21.1172 156.906 21.0371 156.551 20.877C156.195 20.7129 155.891 20.4863 155.637 20.1973C155.387 19.9043 155.195 19.5625 155.062 19.1719C154.93 18.7812 154.863 18.3574 154.863 17.9004ZM155.947 17.7656V17.9004C155.947 18.2168 155.984 18.5156 156.059 18.7969C156.133 19.0742 156.244 19.3203 156.393 19.5352C156.545 19.75 156.734 19.9199 156.961 20.0449C157.188 20.166 157.451 20.2266 157.752 20.2266C158.049 20.2266 158.309 20.166 158.531 20.0449C158.758 19.9199 158.945 19.75 159.094 19.5352C159.242 19.3203 159.354 19.0742 159.428 18.7969C159.506 18.5156 159.545 18.2168 159.545 17.9004V17.7656C159.545 17.4531 159.506 17.1582 159.428 16.8809C159.354 16.5996 159.24 16.3516 159.088 16.1367C158.939 15.918 158.752 15.7461 158.525 15.6211C158.303 15.4961 158.041 15.4336 157.74 15.4336C157.443 15.4336 157.182 15.4961 156.955 15.6211C156.732 15.7461 156.545 15.918 156.393 16.1367C156.244 16.3516 156.133 16.5996 156.059 16.8809C155.984 17.1582 155.947 17.4531 155.947 17.7656ZM163.078 16.0137V21H161.994V14.6602H163.02L163.078 16.0137ZM162.82 17.5898L162.369 17.5723C162.373 17.1387 162.438 16.7383 162.562 16.3711C162.688 16 162.863 15.6777 163.09 15.4043C163.316 15.1309 163.586 14.9199 163.898 14.7715C164.215 14.6191 164.564 14.543 164.947 14.543C165.26 14.543 165.541 14.5859 165.791 14.6719C166.041 14.7539 166.254 14.8867 166.43 15.0703C166.609 15.2539 166.746 15.4922 166.84 15.7852C166.934 16.0742 166.98 16.4277 166.98 16.8457V21H165.891V16.834C165.891 16.502 165.842 16.2363 165.744 16.0371C165.646 15.834 165.504 15.6875 165.316 15.5977C165.129 15.5039 164.898 15.457 164.625 15.457C164.355 15.457 164.109 15.5137 163.887 15.627C163.668 15.7402 163.479 15.8965 163.318 16.0957C163.162 16.2949 163.039 16.5234 162.949 16.7812C162.863 17.0352 162.82 17.3047 162.82 17.5898ZM171.164 20.2266C171.422 20.2266 171.66 20.1738 171.879 20.0684C172.098 19.9629 172.277 19.8184 172.418 19.6348C172.559 19.4473 172.639 19.2344 172.658 18.9961H173.689C173.67 19.3711 173.543 19.7207 173.309 20.0449C173.078 20.3652 172.775 20.625 172.4 20.8242C172.025 21.0195 171.613 21.1172 171.164 21.1172C170.688 21.1172 170.271 21.0332 169.916 20.8652C169.564 20.6973 169.271 20.4668 169.037 20.1738C168.807 19.8809 168.633 19.5449 168.516 19.166C168.402 18.7832 168.346 18.3789 168.346 17.9531V17.707C168.346 17.2812 168.402 16.8789 168.516 16.5C168.633 16.1172 168.807 15.7793 169.037 15.4863C169.271 15.1934 169.564 14.9629 169.916 14.7949C170.271 14.627 170.688 14.543 171.164 14.543C171.66 14.543 172.094 14.6445 172.465 14.8477C172.836 15.0469 173.127 15.3203 173.338 15.668C173.553 16.0117 173.67 16.4023 173.689 16.8398H172.658C172.639 16.5781 172.564 16.3418 172.436 16.1309C172.311 15.9199 172.139 15.752 171.92 15.627C171.705 15.498 171.453 15.4336 171.164 15.4336C170.832 15.4336 170.553 15.5 170.326 15.6328C170.104 15.7617 169.926 15.9375 169.793 16.1602C169.664 16.3789 169.57 16.623 169.512 16.8926C169.457 17.1582 169.43 17.4297 169.43 17.707V17.9531C169.43 18.2305 169.457 18.5039 169.512 18.7734C169.566 19.043 169.658 19.2871 169.787 19.5059C169.92 19.7246 170.098 19.9004 170.32 20.0332C170.547 20.1621 170.828 20.2266 171.164 20.2266ZM177.539 21.1172C177.098 21.1172 176.697 21.043 176.338 20.8945C175.982 20.7422 175.676 20.5293 175.418 20.2559C175.164 19.9824 174.969 19.6582 174.832 19.2832C174.695 18.9082 174.627 18.498 174.627 18.0527V17.8066C174.627 17.291 174.703 16.832 174.855 16.4297C175.008 16.0234 175.215 15.6797 175.477 15.3984C175.738 15.1172 176.035 14.9043 176.367 14.7598C176.699 14.6152 177.043 14.543 177.398 14.543C177.852 14.543 178.242 14.6211 178.57 14.7773C178.902 14.9336 179.174 15.1523 179.385 15.4336C179.596 15.7109 179.752 16.0391 179.854 16.418C179.955 16.793 180.006 17.2031 180.006 17.6484V18.1348H175.271V17.25H178.922V17.168C178.906 16.8867 178.848 16.6133 178.746 16.3477C178.648 16.082 178.492 15.8633 178.277 15.6914C178.062 15.5195 177.77 15.4336 177.398 15.4336C177.152 15.4336 176.926 15.4863 176.719 15.5918C176.512 15.6934 176.334 15.8457 176.186 16.0488C176.037 16.252 175.922 16.5 175.84 16.793C175.758 17.0859 175.717 17.4238 175.717 17.8066V18.0527C175.717 18.3535 175.758 18.6367 175.84 18.9023C175.926 19.1641 176.049 19.3945 176.209 19.5938C176.373 19.793 176.57 19.9492 176.801 20.0625C177.035 20.1758 177.301 20.2324 177.598 20.2324C177.98 20.2324 178.305 20.1543 178.57 19.998C178.836 19.8418 179.068 19.6328 179.268 19.3711L179.924 19.8926C179.787 20.0996 179.613 20.2969 179.402 20.4844C179.191 20.6719 178.932 20.8242 178.623 20.9414C178.318 21.0586 177.957 21.1172 177.539 21.1172ZM185.332 15.8789V23.4375H184.242V14.6602H185.238L185.332 15.8789ZM189.604 17.7773V17.9004C189.604 18.3613 189.549 18.7891 189.439 19.1836C189.33 19.5742 189.17 19.9141 188.959 20.2031C188.752 20.4922 188.496 20.7168 188.191 20.877C187.887 21.0371 187.537 21.1172 187.143 21.1172C186.74 21.1172 186.385 21.0508 186.076 20.918C185.768 20.7852 185.506 20.5918 185.291 20.3379C185.076 20.084 184.904 19.7793 184.775 19.4238C184.65 19.0684 184.564 18.668 184.518 18.2227V17.5664C184.564 17.0977 184.652 16.6777 184.781 16.3066C184.91 15.9355 185.08 15.6191 185.291 15.3574C185.506 15.0918 185.766 14.8906 186.07 14.7539C186.375 14.6133 186.727 14.543 187.125 14.543C187.523 14.543 187.877 14.6211 188.186 14.7773C188.494 14.9297 188.754 15.1484 188.965 15.4336C189.176 15.7188 189.334 16.0605 189.439 16.459C189.549 16.8535 189.604 17.293 189.604 17.7773ZM188.514 17.9004V17.7773C188.514 17.4609 188.48 17.1641 188.414 16.8867C188.348 16.6055 188.244 16.3594 188.104 16.1484C187.967 15.9336 187.791 15.7656 187.576 15.6445C187.361 15.5195 187.105 15.457 186.809 15.457C186.535 15.457 186.297 15.5039 186.094 15.5977C185.895 15.6914 185.725 15.8184 185.584 15.9785C185.443 16.1348 185.328 16.3145 185.238 16.5176C185.152 16.7168 185.088 16.9238 185.045 17.1387V18.6562C185.123 18.9297 185.232 19.1875 185.373 19.4297C185.514 19.668 185.701 19.8613 185.936 20.0098C186.17 20.1543 186.465 20.2266 186.82 20.2266C187.113 20.2266 187.365 20.166 187.576 20.0449C187.791 19.9199 187.967 19.75 188.104 19.5352C188.244 19.3203 188.348 19.0742 188.414 18.7969C188.48 18.5156 188.514 18.2168 188.514 17.9004ZM192.164 12V21H191.074V12H192.164ZM197.643 19.916V16.6523C197.643 16.4023 197.592 16.1855 197.49 16.002C197.393 15.8145 197.244 15.6699 197.045 15.5684C196.846 15.4668 196.6 15.416 196.307 15.416C196.033 15.416 195.793 15.4629 195.586 15.5566C195.383 15.6504 195.223 15.7734 195.105 15.9258C194.992 16.0781 194.936 16.2422 194.936 16.418H193.852C193.852 16.1914 193.91 15.9668 194.027 15.7441C194.145 15.5215 194.312 15.3203 194.531 15.1406C194.754 14.957 195.02 14.8125 195.328 14.707C195.641 14.5977 195.988 14.543 196.371 14.543C196.832 14.543 197.238 14.6211 197.59 14.7773C197.945 14.9336 198.223 15.1699 198.422 15.4863C198.625 15.7988 198.727 16.1914 198.727 16.6641V19.6172C198.727 19.8281 198.744 20.0527 198.779 20.291C198.818 20.5293 198.875 20.7344 198.949 20.9062V21H197.818C197.764 20.875 197.721 20.709 197.689 20.502C197.658 20.291 197.643 20.0957 197.643 19.916ZM197.83 17.1562L197.842 17.918H196.746C196.438 17.918 196.162 17.9434 195.92 17.9941C195.678 18.041 195.475 18.1133 195.311 18.2109C195.146 18.3086 195.021 18.4316 194.936 18.5801C194.85 18.7246 194.807 18.8945 194.807 19.0898C194.807 19.2891 194.852 19.4707 194.941 19.6348C195.031 19.7988 195.166 19.9297 195.346 20.0273C195.529 20.1211 195.754 20.168 196.02 20.168C196.352 20.168 196.645 20.0977 196.898 19.957C197.152 19.8164 197.354 19.6445 197.502 19.4414C197.654 19.2383 197.736 19.041 197.748 18.8496L198.211 19.3711C198.184 19.5352 198.109 19.7168 197.988 19.916C197.867 20.1152 197.705 20.3066 197.502 20.4902C197.303 20.6699 197.064 20.8203 196.787 20.9414C196.514 21.0586 196.205 21.1172 195.861 21.1172C195.432 21.1172 195.055 21.0332 194.73 20.8652C194.41 20.6973 194.16 20.4727 193.98 20.1914C193.805 19.9062 193.717 19.5879 193.717 19.2363C193.717 18.8965 193.783 18.5977 193.916 18.3398C194.049 18.0781 194.24 17.8613 194.49 17.6895C194.74 17.5137 195.041 17.3809 195.393 17.291C195.744 17.2012 196.137 17.1562 196.57 17.1562H197.83ZM202.969 20.2266C203.227 20.2266 203.465 20.1738 203.684 20.0684C203.902 19.9629 204.082 19.8184 204.223 19.6348C204.363 19.4473 204.443 19.2344 204.463 18.9961H205.494C205.475 19.3711 205.348 19.7207 205.113 20.0449C204.883 20.3652 204.58 20.625 204.205 20.8242C203.83 21.0195 203.418 21.1172 202.969 21.1172C202.492 21.1172 202.076 21.0332 201.721 20.8652C201.369 20.6973 201.076 20.4668 200.842 20.1738C200.611 19.8809 200.438 19.5449 200.32 19.166C200.207 18.7832 200.15 18.3789 200.15 17.9531V17.707C200.15 17.2812 200.207 16.8789 200.32 16.5C200.438 16.1172 200.611 15.7793 200.842 15.4863C201.076 15.1934 201.369 14.9629 201.721 14.7949C202.076 14.627 202.492 14.543 202.969 14.543C203.465 14.543 203.898 14.6445 204.27 14.8477C204.641 15.0469 204.932 15.3203 205.143 15.668C205.357 16.0117 205.475 16.4023 205.494 16.8398H204.463C204.443 16.5781 204.369 16.3418 204.24 16.1309C204.115 15.9199 203.943 15.752 203.725 15.627C203.51 15.498 203.258 15.4336 202.969 15.4336C202.637 15.4336 202.357 15.5 202.131 15.6328C201.908 15.7617 201.73 15.9375 201.598 16.1602C201.469 16.3789 201.375 16.623 201.316 16.8926C201.262 17.1582 201.234 17.4297 201.234 17.707V17.9531C201.234 18.2305 201.262 18.5039 201.316 18.7734C201.371 19.043 201.463 19.2871 201.592 19.5059C201.725 19.7246 201.902 19.9004 202.125 20.0332C202.352 20.1621 202.633 20.2266 202.969 20.2266ZM209.344 21.1172C208.902 21.1172 208.502 21.043 208.143 20.8945C207.787 20.7422 207.48 20.5293 207.223 20.2559C206.969 19.9824 206.773 19.6582 206.637 19.2832C206.5 18.9082 206.432 18.498 206.432 18.0527V17.8066C206.432 17.291 206.508 16.832 206.66 16.4297C206.812 16.0234 207.02 15.6797 207.281 15.3984C207.543 15.1172 207.84 14.9043 208.172 14.7598C208.504 14.6152 208.848 14.543 209.203 14.543C209.656 14.543 210.047 14.6211 210.375 14.7773C210.707 14.9336 210.979 15.1523 211.189 15.4336C211.4 15.7109 211.557 16.0391 211.658 16.418C211.76 16.793 211.811 17.2031 211.811 17.6484V18.1348H207.076V17.25H210.727V17.168C210.711 16.8867 210.652 16.6133 210.551 16.3477C210.453 16.082 210.297 15.8633 210.082 15.6914C209.867 15.5195 209.574 15.4336 209.203 15.4336C208.957 15.4336 208.73 15.4863 208.523 15.5918C208.316 15.6934 208.139 15.8457 207.99 16.0488C207.842 16.252 207.727 16.5 207.645 16.793C207.562 17.0859 207.521 17.4238 207.521 17.8066V18.0527C207.521 18.3535 207.562 18.6367 207.645 18.9023C207.73 19.1641 207.854 19.3945 208.014 19.5938C208.178 19.793 208.375 19.9492 208.605 20.0625C208.84 20.1758 209.105 20.2324 209.402 20.2324C209.785 20.2324 210.109 20.1543 210.375 19.998C210.641 19.8418 210.873 19.6328 211.072 19.3711L211.729 19.8926C211.592 20.0996 211.418 20.2969 211.207 20.4844C210.996 20.6719 210.736 20.8242 210.428 20.9414C210.123 21.0586 209.762 21.1172 209.344 21.1172ZM217.072 19.7695V12H218.162V21H217.166L217.072 19.7695ZM212.807 17.9004V17.7773C212.807 17.293 212.865 16.8535 212.982 16.459C213.104 16.0605 213.273 15.7188 213.492 15.4336C213.715 15.1484 213.979 14.9297 214.283 14.7773C214.592 14.6211 214.936 14.543 215.314 14.543C215.713 14.543 216.061 14.6133 216.357 14.7539C216.658 14.8906 216.912 15.0918 217.119 15.3574C217.33 15.6191 217.496 15.9355 217.617 16.3066C217.738 16.6777 217.822 17.0977 217.869 17.5664V18.1055C217.826 18.5703 217.742 18.9883 217.617 19.3594C217.496 19.7305 217.33 20.0469 217.119 20.3086C216.912 20.5703 216.658 20.7715 216.357 20.9121C216.057 21.0488 215.705 21.1172 215.303 21.1172C214.932 21.1172 214.592 21.0371 214.283 20.877C213.979 20.7168 213.715 20.4922 213.492 20.2031C213.273 19.9141 213.104 19.5742 212.982 19.1836C212.865 18.7891 212.807 18.3613 212.807 17.9004ZM213.896 17.7773V17.9004C213.896 18.2168 213.928 18.5137 213.99 18.791C214.057 19.0684 214.158 19.3125 214.295 19.5234C214.432 19.7344 214.605 19.9004 214.816 20.0215C215.027 20.1387 215.279 20.1973 215.572 20.1973C215.932 20.1973 216.227 20.1211 216.457 19.9688C216.691 19.8164 216.879 19.6152 217.02 19.3652C217.16 19.1152 217.27 18.8438 217.348 18.5508V17.1387C217.301 16.9238 217.232 16.7168 217.143 16.5176C217.057 16.3145 216.943 16.1348 216.803 15.9785C216.666 15.8184 216.496 15.6914 216.293 15.5977C216.094 15.5039 215.857 15.457 215.584 15.457C215.287 15.457 215.031 15.5195 214.816 15.6445C214.605 15.7656 214.432 15.9336 214.295 16.1484C214.158 16.3594 214.057 16.6055 213.99 16.8867C213.928 17.1641 213.896 17.4609 213.896 17.7773ZM226.822 19.7695V12H227.912V21H226.916L226.822 19.7695ZM222.557 17.9004V17.7773C222.557 17.293 222.615 16.8535 222.732 16.459C222.854 16.0605 223.023 15.7188 223.242 15.4336C223.465 15.1484 223.729 14.9297 224.033 14.7773C224.342 14.6211 224.686 14.543 225.064 14.543C225.463 14.543 225.811 14.6133 226.107 14.7539C226.408 14.8906 226.662 15.0918 226.869 15.3574C227.08 15.6191 227.246 15.9355 227.367 16.3066C227.488 16.6777 227.572 17.0977 227.619 17.5664V18.1055C227.576 18.5703 227.492 18.9883 227.367 19.3594C227.246 19.7305 227.08 20.0469 226.869 20.3086C226.662 20.5703 226.408 20.7715 226.107 20.9121C225.807 21.0488 225.455 21.1172 225.053 21.1172C224.682 21.1172 224.342 21.0371 224.033 20.877C223.729 20.7168 223.465 20.4922 223.242 20.2031C223.023 19.9141 222.854 19.5742 222.732 19.1836C222.615 18.7891 222.557 18.3613 222.557 17.9004ZM223.646 17.7773V17.9004C223.646 18.2168 223.678 18.5137 223.74 18.791C223.807 19.0684 223.908 19.3125 224.045 19.5234C224.182 19.7344 224.355 19.9004 224.566 20.0215C224.777 20.1387 225.029 20.1973 225.322 20.1973C225.682 20.1973 225.977 20.1211 226.207 19.9688C226.441 19.8164 226.629 19.6152 226.77 19.3652C226.91 19.1152 227.02 18.8438 227.098 18.5508V17.1387C227.051 16.9238 226.982 16.7168 226.893 16.5176C226.807 16.3145 226.693 16.1348 226.553 15.9785C226.416 15.8184 226.246 15.6914 226.043 15.5977C225.844 15.5039 225.607 15.457 225.334 15.457C225.037 15.457 224.781 15.5195 224.566 15.6445C224.355 15.7656 224.182 15.9336 224.045 16.1484C223.908 16.3594 223.807 16.6055 223.74 16.8867C223.678 17.1641 223.646 17.4609 223.646 17.7773ZM233.479 19.5352V14.6602H234.568V21H233.531L233.479 19.5352ZM233.684 18.1992L234.135 18.1875C234.135 18.6094 234.09 19 234 19.3594C233.914 19.7148 233.773 20.0234 233.578 20.2852C233.383 20.5469 233.127 20.752 232.811 20.9004C232.494 21.0449 232.109 21.1172 231.656 21.1172C231.348 21.1172 231.064 21.0723 230.807 20.9824C230.553 20.8926 230.334 20.7539 230.15 20.5664C229.967 20.3789 229.824 20.1348 229.723 19.834C229.625 19.5332 229.576 19.1719 229.576 18.75V14.6602H230.66V18.7617C230.66 19.0469 230.691 19.2832 230.754 19.4707C230.82 19.6543 230.908 19.8008 231.018 19.9102C231.131 20.0156 231.256 20.0898 231.393 20.1328C231.533 20.1758 231.678 20.1973 231.826 20.1973C232.287 20.1973 232.652 20.1094 232.922 19.9336C233.191 19.7539 233.385 19.5137 233.502 19.2129C233.623 18.9082 233.684 18.5703 233.684 18.1992ZM238.852 21.1172C238.41 21.1172 238.01 21.043 237.65 20.8945C237.295 20.7422 236.988 20.5293 236.73 20.2559C236.477 19.9824 236.281 19.6582 236.145 19.2832C236.008 18.9082 235.939 18.498 235.939 18.0527V17.8066C235.939 17.291 236.016 16.832 236.168 16.4297C236.32 16.0234 236.527 15.6797 236.789 15.3984C237.051 15.1172 237.348 14.9043 237.68 14.7598C238.012 14.6152 238.355 14.543 238.711 14.543C239.164 14.543 239.555 14.6211 239.883 14.7773C240.215 14.9336 240.486 15.1523 240.697 15.4336C240.908 15.7109 241.064 16.0391 241.166 16.418C241.268 16.793 241.318 17.2031 241.318 17.6484V18.1348H236.584V17.25H240.234V17.168C240.219 16.8867 240.16 16.6133 240.059 16.3477C239.961 16.082 239.805 15.8633 239.59 15.6914C239.375 15.5195 239.082 15.4336 238.711 15.4336C238.465 15.4336 238.238 15.4863 238.031 15.5918C237.824 15.6934 237.646 15.8457 237.498 16.0488C237.35 16.252 237.234 16.5 237.152 16.793C237.07 17.0859 237.029 17.4238 237.029 17.8066V18.0527C237.029 18.3535 237.07 18.6367 237.152 18.9023C237.238 19.1641 237.361 19.3945 237.521 19.5938C237.686 19.793 237.883 19.9492 238.113 20.0625C238.348 20.1758 238.613 20.2324 238.91 20.2324C239.293 20.2324 239.617 20.1543 239.883 19.998C240.148 19.8418 240.381 19.6328 240.58 19.3711L241.236 19.8926C241.1 20.0996 240.926 20.2969 240.715 20.4844C240.504 20.6719 240.244 20.8242 239.936 20.9414C239.631 21.0586 239.27 21.1172 238.852 21.1172ZM248.215 14.6602V15.4922H244.787V14.6602H248.215ZM245.947 13.1191H247.031V19.4297C247.031 19.6445 247.064 19.8066 247.131 19.916C247.197 20.0254 247.283 20.0977 247.389 20.1328C247.494 20.168 247.607 20.1855 247.729 20.1855C247.818 20.1855 247.912 20.1777 248.01 20.1621C248.111 20.1426 248.188 20.127 248.238 20.1152L248.244 21C248.158 21.0273 248.045 21.0527 247.904 21.0762C247.768 21.1035 247.602 21.1172 247.406 21.1172C247.141 21.1172 246.896 21.0645 246.674 20.959C246.451 20.8535 246.273 20.6777 246.141 20.4316C246.012 20.1816 245.947 19.8457 245.947 19.4238V13.1191ZM249.082 17.9004V17.7656C249.082 17.3086 249.148 16.8848 249.281 16.4941C249.414 16.0996 249.605 15.7578 249.855 15.4688C250.105 15.1758 250.408 14.9492 250.764 14.7891C251.119 14.625 251.518 14.543 251.959 14.543C252.404 14.543 252.805 14.625 253.16 14.7891C253.52 14.9492 253.824 15.1758 254.074 15.4688C254.328 15.7578 254.521 16.0996 254.654 16.4941C254.787 16.8848 254.854 17.3086 254.854 17.7656V17.9004C254.854 18.3574 254.787 18.7812 254.654 19.1719C254.521 19.5625 254.328 19.9043 254.074 20.1973C253.824 20.4863 253.521 20.7129 253.166 20.877C252.814 21.0371 252.416 21.1172 251.971 21.1172C251.525 21.1172 251.125 21.0371 250.77 20.877C250.414 20.7129 250.109 20.4863 249.855 20.1973C249.605 19.9043 249.414 19.5625 249.281 19.1719C249.148 18.7812 249.082 18.3574 249.082 17.9004ZM250.166 17.7656V17.9004C250.166 18.2168 250.203 18.5156 250.277 18.7969C250.352 19.0742 250.463 19.3203 250.611 19.5352C250.764 19.75 250.953 19.9199 251.18 20.0449C251.406 20.166 251.67 20.2266 251.971 20.2266C252.268 20.2266 252.527 20.166 252.75 20.0449C252.977 19.9199 253.164 19.75 253.312 19.5352C253.461 19.3203 253.572 19.0742 253.646 18.7969C253.725 18.5156 253.764 18.2168 253.764 17.9004V17.7656C253.764 17.4531 253.725 17.1582 253.646 16.8809C253.572 16.5996 253.459 16.3516 253.307 16.1367C253.158 15.918 252.971 15.7461 252.744 15.6211C252.521 15.4961 252.26 15.4336 251.959 15.4336C251.662 15.4336 251.4 15.4961 251.174 15.6211C250.951 15.7461 250.764 15.918 250.611 16.1367C250.463 16.3516 250.352 16.5996 250.277 16.8809C250.203 17.1582 250.166 17.4531 250.166 17.7656ZM258.902 17.9004V17.7656C258.902 17.3086 258.969 16.8848 259.102 16.4941C259.234 16.0996 259.426 15.7578 259.676 15.4688C259.926 15.1758 260.229 14.9492 260.584 14.7891C260.939 14.625 261.338 14.543 261.779 14.543C262.225 14.543 262.625 14.625 262.98 14.7891C263.34 14.9492 263.645 15.1758 263.895 15.4688C264.148 15.7578 264.342 16.0996 264.475 16.4941C264.607 16.8848 264.674 17.3086 264.674 17.7656V17.9004C264.674 18.3574 264.607 18.7812 264.475 19.1719C264.342 19.5625 264.148 19.9043 263.895 20.1973C263.645 20.4863 263.342 20.7129 262.986 20.877C262.635 21.0371 262.236 21.1172 261.791 21.1172C261.346 21.1172 260.945 21.0371 260.59 20.877C260.234 20.7129 259.93 20.4863 259.676 20.1973C259.426 19.9043 259.234 19.5625 259.102 19.1719C258.969 18.7812 258.902 18.3574 258.902 17.9004ZM259.986 17.7656V17.9004C259.986 18.2168 260.023 18.5156 260.098 18.7969C260.172 19.0742 260.283 19.3203 260.432 19.5352C260.584 19.75 260.773 19.9199 261 20.0449C261.227 20.166 261.49 20.2266 261.791 20.2266C262.088 20.2266 262.348 20.166 262.57 20.0449C262.797 19.9199 262.984 19.75 263.133 19.5352C263.281 19.3203 263.393 19.0742 263.467 18.7969C263.545 18.5156 263.584 18.2168 263.584 17.9004V17.7656C263.584 17.4531 263.545 17.1582 263.467 16.8809C263.393 16.5996 263.279 16.3516 263.127 16.1367C262.979 15.918 262.791 15.7461 262.564 15.6211C262.342 15.4961 262.08 15.4336 261.779 15.4336C261.482 15.4336 261.221 15.4961 260.994 15.6211C260.771 15.7461 260.584 15.918 260.432 16.1367C260.283 16.3516 260.172 16.5996 260.098 16.8809C260.023 17.1582 259.986 17.4531 259.986 17.7656ZM269.912 19.5352V14.6602H271.002V21H269.965L269.912 19.5352ZM270.117 18.1992L270.568 18.1875C270.568 18.6094 270.523 19 270.434 19.3594C270.348 19.7148 270.207 20.0234 270.012 20.2852C269.816 20.5469 269.561 20.752 269.244 20.9004C268.928 21.0449 268.543 21.1172 268.09 21.1172C267.781 21.1172 267.498 21.0723 267.24 20.9824C266.986 20.8926 266.768 20.7539 266.584 20.5664C266.4 20.3789 266.258 20.1348 266.156 19.834C266.059 19.5332 266.01 19.1719 266.01 18.75V14.6602H267.094V18.7617C267.094 19.0469 267.125 19.2832 267.188 19.4707C267.254 19.6543 267.342 19.8008 267.451 19.9102C267.564 20.0156 267.689 20.0898 267.826 20.1328C267.967 20.1758 268.111 20.1973 268.26 20.1973C268.721 20.1973 269.086 20.1094 269.355 19.9336C269.625 19.7539 269.818 19.5137 269.936 19.2129C270.057 18.9082 270.117 18.5703 270.117 18.1992ZM273.738 15.6562V21H272.654V14.6602H273.709L273.738 15.6562ZM275.719 14.625L275.713 15.6328C275.623 15.6133 275.537 15.6016 275.455 15.5977C275.377 15.5898 275.287 15.5859 275.186 15.5859C274.936 15.5859 274.715 15.625 274.523 15.7031C274.332 15.7812 274.17 15.8906 274.037 16.0312C273.904 16.1719 273.799 16.3398 273.721 16.5352C273.646 16.7266 273.598 16.9375 273.574 17.168L273.27 17.3438C273.27 16.9609 273.307 16.6016 273.381 16.2656C273.459 15.9297 273.578 15.6328 273.738 15.375C273.898 15.1133 274.102 14.9102 274.348 14.7656C274.598 14.6172 274.895 14.543 275.238 14.543C275.316 14.543 275.406 14.5527 275.508 14.5723C275.609 14.5879 275.68 14.6055 275.719 14.625ZM15.4805 28.6602V29.4922H12.0527V28.6602H15.4805ZM13.2129 27.1191H14.2969V33.4297C14.2969 33.6445 14.3301 33.8066 14.3965 33.916C14.4629 34.0254 14.5488 34.0977 14.6543 34.1328C14.7598 34.168 14.873 34.1855 14.9941 34.1855C15.084 34.1855 15.1777 34.1777 15.2754 34.1621C15.377 34.1426 15.4531 34.127 15.5039 34.1152L15.5098 35C15.4238 35.0273 15.3105 35.0527 15.1699 35.0762C15.0332 35.1035 14.8672 35.1172 14.6719 35.1172C14.4062 35.1172 14.1621 35.0645 13.9395 34.959C13.7168 34.8535 13.5391 34.6777 13.4062 34.4316C13.2773 34.1816 13.2129 33.8457 13.2129 33.4238V27.1191ZM19.3828 35.1172C18.9414 35.1172 18.541 35.043 18.1816 34.8945C17.8262 34.7422 17.5195 34.5293 17.2617 34.2559C17.0078 33.9824 16.8125 33.6582 16.6758 33.2832C16.5391 32.9082 16.4707 32.498 16.4707 32.0527V31.8066C16.4707 31.291 16.5469 30.832 16.6992 30.4297C16.8516 30.0234 17.0586 29.6797 17.3203 29.3984C17.582 29.1172 17.8789 28.9043 18.2109 28.7598C18.543 28.6152 18.8867 28.543 19.2422 28.543C19.6953 28.543 20.0859 28.6211 20.4141 28.7773C20.7461 28.9336 21.0176 29.1523 21.2285 29.4336C21.4395 29.7109 21.5957 30.0391 21.6973 30.418C21.7988 30.793 21.8496 31.2031 21.8496 31.6484V32.1348H17.1152V31.25H20.7656V31.168C20.75 30.8867 20.6914 30.6133 20.5898 30.3477C20.4922 30.082 20.3359 29.8633 20.1211 29.6914C19.9062 29.5195 19.6133 29.4336 19.2422 29.4336C18.9961 29.4336 18.7695 29.4863 18.5625 29.5918C18.3555 29.6934 18.1777 29.8457 18.0293 30.0488C17.8809 30.252 17.7656 30.5 17.6836 30.793C17.6016 31.0859 17.5605 31.4238 17.5605 31.8066V32.0527C17.5605 32.3535 17.6016 32.6367 17.6836 32.9023C17.7695 33.1641 17.8926 33.3945 18.0527 33.5938C18.2168 33.793 18.4141 33.9492 18.6445 34.0625C18.8789 34.1758 19.1445 34.2324 19.4414 34.2324C19.8242 34.2324 20.1484 34.1543 20.4141 33.998C20.6797 33.8418 20.9121 33.6328 21.1113 33.3711L21.7676 33.8926C21.6309 34.0996 21.457 34.2969 21.2461 34.4844C21.0352 34.6719 20.7754 34.8242 20.4668 34.9414C20.1621 35.0586 19.8008 35.1172 19.3828 35.1172ZM24.1992 29.6562V35H23.1152V28.6602H24.1699L24.1992 29.6562ZM26.1797 28.625L26.1738 29.6328C26.084 29.6133 25.998 29.6016 25.916 29.5977C25.8379 29.5898 25.748 29.5859 25.6465 29.5859C25.3965 29.5859 25.1758 29.625 24.9844 29.7031C24.793 29.7812 24.6309 29.8906 24.498 30.0312C24.3652 30.1719 24.2598 30.3398 24.1816 30.5352C24.1074 30.7266 24.0586 30.9375 24.0352 31.168L23.7305 31.3438C23.7305 30.9609 23.7676 30.6016 23.8418 30.2656C23.9199 29.9297 24.0391 29.6328 24.1992 29.375C24.3594 29.1133 24.5625 28.9102 24.8086 28.7656C25.0586 28.6172 25.3555 28.543 25.6992 28.543C25.7773 28.543 25.8672 28.5527 25.9688 28.5723C26.0703 28.5879 26.1406 28.6055 26.1797 28.625ZM28.2598 29.9199V35H27.1699V28.6602H28.2012L28.2598 29.9199ZM28.0371 31.5898L27.5332 31.5723C27.5371 31.1387 27.5938 30.7383 27.7031 30.3711C27.8125 30 27.9746 29.6777 28.1895 29.4043C28.4043 29.1309 28.6719 28.9199 28.9922 28.7715C29.3125 28.6191 29.6836 28.543 30.1055 28.543C30.4023 28.543 30.6758 28.5859 30.9258 28.6719C31.1758 28.7539 31.3926 28.8848 31.5762 29.0645C31.7598 29.2441 31.9023 29.4746 32.0039 29.7559C32.1055 30.0371 32.1562 30.377 32.1562 30.7754V35H31.0723V30.8281C31.0723 30.4961 31.0156 30.2305 30.9023 30.0312C30.793 29.832 30.6367 29.6875 30.4336 29.5977C30.2305 29.5039 29.9922 29.457 29.7188 29.457C29.3984 29.457 29.1309 29.5137 28.916 29.627C28.7012 29.7402 28.5293 29.8965 28.4004 30.0957C28.2715 30.2949 28.1777 30.5234 28.1191 30.7812C28.0645 31.0352 28.0371 31.3047 28.0371 31.5898ZM32.1445 30.9922L31.418 31.2148C31.4219 30.8672 31.4785 30.5332 31.5879 30.2129C31.7012 29.8926 31.8633 29.6074 32.0742 29.3574C32.2891 29.1074 32.5527 28.9102 32.8652 28.7656C33.1777 28.6172 33.5352 28.543 33.9375 28.543C34.2773 28.543 34.5781 28.5879 34.8398 28.6777C35.1055 28.7676 35.3281 28.9062 35.5078 29.0938C35.6914 29.2773 35.8301 29.5137 35.9238 29.8027C36.0176 30.0918 36.0645 30.4355 36.0645 30.834V35H34.9746V30.8223C34.9746 30.4668 34.918 30.1914 34.8047 29.9961C34.6953 29.7969 34.5391 29.6582 34.3359 29.5801C34.1367 29.498 33.8984 29.457 33.6211 29.457C33.3828 29.457 33.1719 29.498 32.9883 29.5801C32.8047 29.6621 32.6504 29.7754 32.5254 29.9199C32.4004 30.0605 32.3047 30.2227 32.2383 30.4062C32.1758 30.5898 32.1445 30.7852 32.1445 30.9922ZM41.3965 33.3184C41.3965 33.1621 41.3613 33.0176 41.291 32.8848C41.2246 32.748 41.0859 32.625 40.875 32.5156C40.668 32.4023 40.3555 32.3047 39.9375 32.2227C39.5859 32.1484 39.2676 32.0605 38.9824 31.959C38.7012 31.8574 38.4609 31.7344 38.2617 31.5898C38.0664 31.4453 37.916 31.2754 37.8105 31.0801C37.7051 30.8848 37.6523 30.6562 37.6523 30.3945C37.6523 30.1445 37.707 29.9082 37.8164 29.6855C37.9297 29.4629 38.0879 29.2656 38.291 29.0938C38.498 28.9219 38.7461 28.7871 39.0352 28.6895C39.3242 28.5918 39.6465 28.543 40.002 28.543C40.5098 28.543 40.9434 28.6328 41.3027 28.8125C41.6621 28.9922 41.9375 29.2324 42.1289 29.5332C42.3203 29.8301 42.416 30.1602 42.416 30.5234H41.332C41.332 30.3477 41.2793 30.1777 41.1738 30.0137C41.0723 29.8457 40.9219 29.707 40.7227 29.5977C40.5273 29.4883 40.2871 29.4336 40.002 29.4336C39.7012 29.4336 39.457 29.4805 39.2695 29.5742C39.0859 29.6641 38.9512 29.7793 38.8652 29.9199C38.7832 30.0605 38.7422 30.209 38.7422 30.3652C38.7422 30.4824 38.7617 30.5879 38.8008 30.6816C38.8438 30.7715 38.918 30.8555 39.0234 30.9336C39.1289 31.0078 39.2773 31.0781 39.4688 31.1445C39.6602 31.2109 39.9043 31.2773 40.2012 31.3438C40.7207 31.4609 41.1484 31.6016 41.4844 31.7656C41.8203 31.9297 42.0703 32.1309 42.2344 32.3691C42.3984 32.6074 42.4805 32.8965 42.4805 33.2363C42.4805 33.5137 42.4219 33.7676 42.3047 33.998C42.1914 34.2285 42.0254 34.4277 41.8066 34.5957C41.5918 34.7598 41.334 34.8887 41.0332 34.9824C40.7363 35.0723 40.4023 35.1172 40.0312 35.1172C39.4727 35.1172 39 35.0176 38.6133 34.8184C38.2266 34.6191 37.9336 34.3613 37.7344 34.0449C37.5352 33.7285 37.4355 33.3945 37.4355 33.043H38.5254C38.541 33.3398 38.627 33.5762 38.7832 33.752C38.9395 33.9238 39.1309 34.0469 39.3574 34.1211C39.584 34.1914 39.8086 34.2266 40.0312 34.2266C40.3281 34.2266 40.5762 34.1875 40.7754 34.1094C40.9785 34.0312 41.1328 33.9238 41.2383 33.7871C41.3438 33.6504 41.3965 33.4941 41.3965 33.3184ZM50.6191 33.916V30.6523C50.6191 30.4023 50.5684 30.1855 50.4668 30.002C50.3691 29.8145 50.2207 29.6699 50.0215 29.5684C49.8223 29.4668 49.5762 29.416 49.2832 29.416C49.0098 29.416 48.7695 29.4629 48.5625 29.5566C48.3594 29.6504 48.1992 29.7734 48.082 29.9258C47.9688 30.0781 47.9121 30.2422 47.9121 30.418H46.8281C46.8281 30.1914 46.8867 29.9668 47.0039 29.7441C47.1211 29.5215 47.2891 29.3203 47.5078 29.1406C47.7305 28.957 47.9961 28.8125 48.3047 28.707C48.6172 28.5977 48.9648 28.543 49.3477 28.543C49.8086 28.543 50.2148 28.6211 50.5664 28.7773C50.9219 28.9336 51.1992 29.1699 51.3984 29.4863C51.6016 29.7988 51.7031 30.1914 51.7031 30.6641V33.6172C51.7031 33.8281 51.7207 34.0527 51.7559 34.291C51.7949 34.5293 51.8516 34.7344 51.9258 34.9062V35H50.7949C50.7402 34.875 50.6973 34.709 50.666 34.502C50.6348 34.291 50.6191 34.0957 50.6191 33.916ZM50.8066 31.1562L50.8184 31.918H49.7227C49.4141 31.918 49.1387 31.9434 48.8965 31.9941C48.6543 32.041 48.4512 32.1133 48.2871 32.2109C48.123 32.3086 47.998 32.4316 47.9121 32.5801C47.8262 32.7246 47.7832 32.8945 47.7832 33.0898C47.7832 33.2891 47.8281 33.4707 47.918 33.6348C48.0078 33.7988 48.1426 33.9297 48.3223 34.0273C48.5059 34.1211 48.7305 34.168 48.9961 34.168C49.3281 34.168 49.6211 34.0977 49.875 33.957C50.1289 33.8164 50.3301 33.6445 50.4785 33.4414C50.6309 33.2383 50.7129 33.041 50.7246 32.8496L51.1875 33.3711C51.1602 33.5352 51.0859 33.7168 50.9648 33.916C50.8438 34.1152 50.6816 34.3066 50.4785 34.4902C50.2793 34.6699 50.041 34.8203 49.7637 34.9414C49.4902 35.0586 49.1816 35.1172 48.8379 35.1172C48.4082 35.1172 48.0312 35.0332 47.707 34.8652C47.3867 34.6973 47.1367 34.4727 46.957 34.1914C46.7812 33.9062 46.6934 33.5879 46.6934 33.2363C46.6934 32.8965 46.7598 32.5977 46.8926 32.3398C47.0254 32.0781 47.2168 31.8613 47.4668 31.6895C47.7168 31.5137 48.0176 31.3809 48.3691 31.291C48.7207 31.2012 49.1133 31.1562 49.5469 31.1562H50.8066ZM54.4922 30.0137V35H53.4082V28.6602H54.4336L54.4922 30.0137ZM54.2344 31.5898L53.7832 31.5723C53.7871 31.1387 53.8516 30.7383 53.9766 30.3711C54.1016 30 54.2773 29.6777 54.5039 29.4043C54.7305 29.1309 55 28.9199 55.3125 28.7715C55.6289 28.6191 55.9785 28.543 56.3613 28.543C56.6738 28.543 56.9551 28.5859 57.2051 28.6719C57.4551 28.7539 57.668 28.8867 57.8438 29.0703C58.0234 29.2539 58.1602 29.4922 58.2539 29.7852C58.3477 30.0742 58.3945 30.4277 58.3945 30.8457V35H57.3047V30.834C57.3047 30.502 57.2559 30.2363 57.1582 30.0371C57.0605 29.834 56.918 29.6875 56.7305 29.5977C56.543 29.5039 56.3125 29.457 56.0391 29.457C55.7695 29.457 55.5234 29.5137 55.3008 29.627C55.082 29.7402 54.8926 29.8965 54.7324 30.0957C54.5762 30.2949 54.4531 30.5234 54.3633 30.7812C54.2773 31.0352 54.2344 31.3047 54.2344 31.5898ZM64.0371 33.7695V26H65.127V35H64.1309L64.0371 33.7695ZM59.7715 31.9004V31.7773C59.7715 31.293 59.8301 30.8535 59.9473 30.459C60.0684 30.0605 60.2383 29.7188 60.457 29.4336C60.6797 29.1484 60.9434 28.9297 61.248 28.7773C61.5566 28.6211 61.9004 28.543 62.2793 28.543C62.6777 28.543 63.0254 28.6133 63.3223 28.7539C63.623 28.8906 63.877 29.0918 64.084 29.3574C64.2949 29.6191 64.4609 29.9355 64.582 30.3066C64.7031 30.6777 64.7871 31.0977 64.834 31.5664V32.1055C64.791 32.5703 64.707 32.9883 64.582 33.3594C64.4609 33.7305 64.2949 34.0469 64.084 34.3086C63.877 34.5703 63.623 34.7715 63.3223 34.9121C63.0215 35.0488 62.6699 35.1172 62.2676 35.1172C61.8965 35.1172 61.5566 35.0371 61.248 34.877C60.9434 34.7168 60.6797 34.4922 60.457 34.2031C60.2383 33.9141 60.0684 33.5742 59.9473 33.1836C59.8301 32.7891 59.7715 32.3613 59.7715 31.9004ZM60.8613 31.7773V31.9004C60.8613 32.2168 60.8926 32.5137 60.9551 32.791C61.0215 33.0684 61.123 33.3125 61.2598 33.5234C61.3965 33.7344 61.5703 33.9004 61.7812 34.0215C61.9922 34.1387 62.2441 34.1973 62.5371 34.1973C62.8965 34.1973 63.1914 34.1211 63.4219 33.9688C63.6562 33.8164 63.8438 33.6152 63.9844 33.3652C64.125 33.1152 64.2344 32.8438 64.3125 32.5508V31.1387C64.2656 30.9238 64.1973 30.7168 64.1074 30.5176C64.0215 30.3145 63.9082 30.1348 63.7676 29.9785C63.6309 29.8184 63.4609 29.6914 63.2578 29.5977C63.0586 29.5039 62.8223 29.457 62.5488 29.457C62.252 29.457 61.9961 29.5195 61.7812 29.6445C61.5703 29.7656 61.3965 29.9336 61.2598 30.1484C61.123 30.3594 61.0215 30.6055 60.9551 30.8867C60.8926 31.1641 60.8613 31.4609 60.8613 31.7773ZM72.3281 34.2266C72.5859 34.2266 72.8242 34.1738 73.043 34.0684C73.2617 33.9629 73.4414 33.8184 73.582 33.6348C73.7227 33.4473 73.8027 33.2344 73.8223 32.9961H74.8535C74.834 33.3711 74.707 33.7207 74.4727 34.0449C74.2422 34.3652 73.9395 34.625 73.5645 34.8242C73.1895 35.0195 72.7773 35.1172 72.3281 35.1172C71.8516 35.1172 71.4355 35.0332 71.0801 34.8652C70.7285 34.6973 70.4355 34.4668 70.2012 34.1738C69.9707 33.8809 69.7969 33.5449 69.6797 33.166C69.5664 32.7832 69.5098 32.3789 69.5098 31.9531V31.707C69.5098 31.2812 69.5664 30.8789 69.6797 30.5C69.7969 30.1172 69.9707 29.7793 70.2012 29.4863C70.4355 29.1934 70.7285 28.9629 71.0801 28.7949C71.4355 28.627 71.8516 28.543 72.3281 28.543C72.8242 28.543 73.2578 28.6445 73.6289 28.8477C74 29.0469 74.291 29.3203 74.502 29.668C74.7168 30.0117 74.834 30.4023 74.8535 30.8398H73.8223C73.8027 30.5781 73.7285 30.3418 73.5996 30.1309C73.4746 29.9199 73.3027 29.752 73.084 29.627C72.8691 29.498 72.6172 29.4336 72.3281 29.4336C71.9961 29.4336 71.7168 29.5 71.4902 29.6328C71.2676 29.7617 71.0898 29.9375 70.957 30.1602C70.8281 30.3789 70.7344 30.623 70.6758 30.8926C70.6211 31.1582 70.5938 31.4297 70.5938 31.707V31.9531C70.5938 32.2305 70.6211 32.5039 70.6758 32.7734C70.7305 33.043 70.8223 33.2871 70.9512 33.5059C71.084 33.7246 71.2617 33.9004 71.4844 34.0332C71.7109 34.1621 71.9922 34.2266 72.3281 34.2266ZM75.7852 31.9004V31.7656C75.7852 31.3086 75.8516 30.8848 75.9844 30.4941C76.1172 30.0996 76.3086 29.7578 76.5586 29.4688C76.8086 29.1758 77.1113 28.9492 77.4668 28.7891C77.8223 28.625 78.2207 28.543 78.6621 28.543C79.1074 28.543 79.5078 28.625 79.8633 28.7891C80.2227 28.9492 80.5273 29.1758 80.7773 29.4688C81.0312 29.7578 81.2246 30.0996 81.3574 30.4941C81.4902 30.8848 81.5566 31.3086 81.5566 31.7656V31.9004C81.5566 32.3574 81.4902 32.7812 81.3574 33.1719C81.2246 33.5625 81.0312 33.9043 80.7773 34.1973C80.5273 34.4863 80.2246 34.7129 79.8691 34.877C79.5176 35.0371 79.1191 35.1172 78.6738 35.1172C78.2285 35.1172 77.8281 35.0371 77.4727 34.877C77.1172 34.7129 76.8125 34.4863 76.5586 34.1973C76.3086 33.9043 76.1172 33.5625 75.9844 33.1719C75.8516 32.7812 75.7852 32.3574 75.7852 31.9004ZM76.8691 31.7656V31.9004C76.8691 32.2168 76.9062 32.5156 76.9805 32.7969C77.0547 33.0742 77.166 33.3203 77.3145 33.5352C77.4668 33.75 77.6562 33.9199 77.8828 34.0449C78.1094 34.166 78.373 34.2266 78.6738 34.2266C78.9707 34.2266 79.2305 34.166 79.4531 34.0449C79.6797 33.9199 79.8672 33.75 80.0156 33.5352C80.1641 33.3203 80.2754 33.0742 80.3496 32.7969C80.4277 32.5156 80.4668 32.2168 80.4668 31.9004V31.7656C80.4668 31.4531 80.4277 31.1582 80.3496 30.8809C80.2754 30.5996 80.1621 30.3516 80.0098 30.1367C79.8613 29.918 79.6738 29.7461 79.4473 29.6211C79.2246 29.4961 78.9629 29.4336 78.6621 29.4336C78.3652 29.4336 78.1035 29.4961 77.877 29.6211C77.6543 29.7461 77.4668 29.918 77.3145 30.1367C77.166 30.3516 77.0547 30.5996 76.9805 30.8809C76.9062 31.1582 76.8691 31.4531 76.8691 31.7656ZM84 30.0137V35H82.916V28.6602H83.9414L84 30.0137ZM83.7422 31.5898L83.291 31.5723C83.2949 31.1387 83.3594 30.7383 83.4844 30.3711C83.6094 30 83.7852 29.6777 84.0117 29.4043C84.2383 29.1309 84.5078 28.9199 84.8203 28.7715C85.1367 28.6191 85.4863 28.543 85.8691 28.543C86.1816 28.543 86.4629 28.5859 86.7129 28.6719C86.9629 28.7539 87.1758 28.8867 87.3516 29.0703C87.5312 29.2539 87.668 29.4922 87.7617 29.7852C87.8555 30.0742 87.9023 30.4277 87.9023 30.8457V35H86.8125V30.834C86.8125 30.502 86.7637 30.2363 86.666 30.0371C86.5684 29.834 86.4258 29.6875 86.2383 29.5977C86.0508 29.5039 85.8203 29.457 85.5469 29.457C85.2773 29.457 85.0312 29.5137 84.8086 29.627C84.5898 29.7402 84.4004 29.8965 84.2402 30.0957C84.084 30.2949 83.9609 30.5234 83.8711 30.7812C83.7852 31.0352 83.7422 31.3047 83.7422 31.5898ZM93.5449 33.7695V26H94.6348V35H93.6387L93.5449 33.7695ZM89.2793 31.9004V31.7773C89.2793 31.293 89.3379 30.8535 89.4551 30.459C89.5762 30.0605 89.7461 29.7188 89.9648 29.4336C90.1875 29.1484 90.4512 28.9297 90.7559 28.7773C91.0645 28.6211 91.4082 28.543 91.7871 28.543C92.1855 28.543 92.5332 28.6133 92.8301 28.7539C93.1309 28.8906 93.3848 29.0918 93.5918 29.3574C93.8027 29.6191 93.9688 29.9355 94.0898 30.3066C94.2109 30.6777 94.2949 31.0977 94.3418 31.5664V32.1055C94.2988 32.5703 94.2148 32.9883 94.0898 33.3594C93.9688 33.7305 93.8027 34.0469 93.5918 34.3086C93.3848 34.5703 93.1309 34.7715 92.8301 34.9121C92.5293 35.0488 92.1777 35.1172 91.7754 35.1172C91.4043 35.1172 91.0645 35.0371 90.7559 34.877C90.4512 34.7168 90.1875 34.4922 89.9648 34.2031C89.7461 33.9141 89.5762 33.5742 89.4551 33.1836C89.3379 32.7891 89.2793 32.3613 89.2793 31.9004ZM90.3691 31.7773V31.9004C90.3691 32.2168 90.4004 32.5137 90.4629 32.791C90.5293 33.0684 90.6309 33.3125 90.7676 33.5234C90.9043 33.7344 91.0781 33.9004 91.2891 34.0215C91.5 34.1387 91.752 34.1973 92.0449 34.1973C92.4043 34.1973 92.6992 34.1211 92.9297 33.9688C93.1641 33.8164 93.3516 33.6152 93.4922 33.3652C93.6328 33.1152 93.7422 32.8438 93.8203 32.5508V31.1387C93.7734 30.9238 93.7051 30.7168 93.6152 30.5176C93.5293 30.3145 93.416 30.1348 93.2754 29.9785C93.1387 29.8184 92.9688 29.6914 92.7656 29.5977C92.5664 29.5039 92.3301 29.457 92.0566 29.457C91.7598 29.457 91.5039 29.5195 91.2891 29.6445C91.0781 29.7656 90.9043 29.9336 90.7676 30.1484C90.6309 30.3594 90.5293 30.6055 90.4629 30.8867C90.4004 31.1641 90.3691 31.4609 90.3691 31.7773ZM97.5 28.6602V35H96.4102V28.6602H97.5ZM96.3281 26.9785C96.3281 26.8027 96.3809 26.6543 96.4863 26.5332C96.5957 26.4121 96.7559 26.3516 96.9668 26.3516C97.1738 26.3516 97.332 26.4121 97.4414 26.5332C97.5547 26.6543 97.6113 26.8027 97.6113 26.9785C97.6113 27.1465 97.5547 27.291 97.4414 27.4121C97.332 27.5293 97.1738 27.5879 96.9668 27.5879C96.7559 27.5879 96.5957 27.5293 96.4863 27.4121C96.3809 27.291 96.3281 27.1465 96.3281 26.9785ZM101.895 28.6602V29.4922H98.4668V28.6602H101.895ZM99.627 27.1191H100.711V33.4297C100.711 33.6445 100.744 33.8066 100.811 33.916C100.877 34.0254 100.963 34.0977 101.068 34.1328C101.174 34.168 101.287 34.1855 101.408 34.1855C101.498 34.1855 101.592 34.1777 101.689 34.1621C101.791 34.1426 101.867 34.127 101.918 34.1152L101.924 35C101.838 35.0273 101.725 35.0527 101.584 35.0762C101.447 35.1035 101.281 35.1172 101.086 35.1172C100.82 35.1172 100.576 35.0645 100.354 34.959C100.131 34.8535 99.9531 34.6777 99.8203 34.4316C99.6914 34.1816 99.627 33.8457 99.627 33.4238V27.1191ZM104.344 28.6602V35H103.254V28.6602H104.344ZM103.172 26.9785C103.172 26.8027 103.225 26.6543 103.33 26.5332C103.439 26.4121 103.6 26.3516 103.811 26.3516C104.018 26.3516 104.176 26.4121 104.285 26.5332C104.398 26.6543 104.455 26.8027 104.455 26.9785C104.455 27.1465 104.398 27.291 104.285 27.4121C104.176 27.5293 104.018 27.5879 103.811 27.5879C103.6 27.5879 103.439 27.5293 103.33 27.4121C103.225 27.291 103.172 27.1465 103.172 26.9785ZM105.797 31.9004V31.7656C105.797 31.3086 105.863 30.8848 105.996 30.4941C106.129 30.0996 106.32 29.7578 106.57 29.4688C106.82 29.1758 107.123 28.9492 107.479 28.7891C107.834 28.625 108.232 28.543 108.674 28.543C109.119 28.543 109.52 28.625 109.875 28.7891C110.234 28.9492 110.539 29.1758 110.789 29.4688C111.043 29.7578 111.236 30.0996 111.369 30.4941C111.502 30.8848 111.568 31.3086 111.568 31.7656V31.9004C111.568 32.3574 111.502 32.7812 111.369 33.1719C111.236 33.5625 111.043 33.9043 110.789 34.1973C110.539 34.4863 110.236 34.7129 109.881 34.877C109.529 35.0371 109.131 35.1172 108.686 35.1172C108.24 35.1172 107.84 35.0371 107.484 34.877C107.129 34.7129 106.824 34.4863 106.57 34.1973C106.32 33.9043 106.129 33.5625 105.996 33.1719C105.863 32.7812 105.797 32.3574 105.797 31.9004ZM106.881 31.7656V31.9004C106.881 32.2168 106.918 32.5156 106.992 32.7969C107.066 33.0742 107.178 33.3203 107.326 33.5352C107.479 33.75 107.668 33.9199 107.895 34.0449C108.121 34.166 108.385 34.2266 108.686 34.2266C108.982 34.2266 109.242 34.166 109.465 34.0449C109.691 33.9199 109.879 33.75 110.027 33.5352C110.176 33.3203 110.287 33.0742 110.361 32.7969C110.439 32.5156 110.479 32.2168 110.479 31.9004V31.7656C110.479 31.4531 110.439 31.1582 110.361 30.8809C110.287 30.5996 110.174 30.3516 110.021 30.1367C109.873 29.918 109.686 29.7461 109.459 29.6211C109.236 29.4961 108.975 29.4336 108.674 29.4336C108.377 29.4336 108.115 29.4961 107.889 29.6211C107.666 29.7461 107.479 29.918 107.326 30.1367C107.178 30.3516 107.066 30.5996 106.992 30.8809C106.918 31.1582 106.881 31.4531 106.881 31.7656ZM114.012 30.0137V35H112.928V28.6602H113.953L114.012 30.0137ZM113.754 31.5898L113.303 31.5723C113.307 31.1387 113.371 30.7383 113.496 30.3711C113.621 30 113.797 29.6777 114.023 29.4043C114.25 29.1309 114.52 28.9199 114.832 28.7715C115.148 28.6191 115.498 28.543 115.881 28.543C116.193 28.543 116.475 28.5859 116.725 28.6719C116.975 28.7539 117.188 28.8867 117.363 29.0703C117.543 29.2539 117.68 29.4922 117.773 29.7852C117.867 30.0742 117.914 30.4277 117.914 30.8457V35H116.824V30.834C116.824 30.502 116.775 30.2363 116.678 30.0371C116.58 29.834 116.438 29.6875 116.25 29.5977C116.062 29.5039 115.832 29.457 115.559 29.457C115.289 29.457 115.043 29.5137 114.82 29.627C114.602 29.7402 114.412 29.8965 114.252 30.0957C114.096 30.2949 113.973 30.5234 113.883 30.7812C113.797 31.0352 113.754 31.3047 113.754 31.5898ZM123.252 33.3184C123.252 33.1621 123.217 33.0176 123.146 32.8848C123.08 32.748 122.941 32.625 122.73 32.5156C122.523 32.4023 122.211 32.3047 121.793 32.2227C121.441 32.1484 121.123 32.0605 120.838 31.959C120.557 31.8574 120.316 31.7344 120.117 31.5898C119.922 31.4453 119.771 31.2754 119.666 31.0801C119.561 30.8848 119.508 30.6562 119.508 30.3945C119.508 30.1445 119.562 29.9082 119.672 29.6855C119.785 29.4629 119.943 29.2656 120.146 29.0938C120.354 28.9219 120.602 28.7871 120.891 28.6895C121.18 28.5918 121.502 28.543 121.857 28.543C122.365 28.543 122.799 28.6328 123.158 28.8125C123.518 28.9922 123.793 29.2324 123.984 29.5332C124.176 29.8301 124.271 30.1602 124.271 30.5234H123.188C123.188 30.3477 123.135 30.1777 123.029 30.0137C122.928 29.8457 122.777 29.707 122.578 29.5977C122.383 29.4883 122.143 29.4336 121.857 29.4336C121.557 29.4336 121.312 29.4805 121.125 29.5742C120.941 29.6641 120.807 29.7793 120.721 29.9199C120.639 30.0605 120.598 30.209 120.598 30.3652C120.598 30.4824 120.617 30.5879 120.656 30.6816C120.699 30.7715 120.773 30.8555 120.879 30.9336C120.984 31.0078 121.133 31.0781 121.324 31.1445C121.516 31.2109 121.76 31.2773 122.057 31.3438C122.576 31.4609 123.004 31.6016 123.34 31.7656C123.676 31.9297 123.926 32.1309 124.09 32.3691C124.254 32.6074 124.336 32.8965 124.336 33.2363C124.336 33.5137 124.277 33.7676 124.16 33.998C124.047 34.2285 123.881 34.4277 123.662 34.5957C123.447 34.7598 123.189 34.8887 122.889 34.9824C122.592 35.0723 122.258 35.1172 121.887 35.1172C121.328 35.1172 120.855 35.0176 120.469 34.8184C120.082 34.6191 119.789 34.3613 119.59 34.0449C119.391 33.7285 119.291 33.3945 119.291 33.043H120.381C120.396 33.3398 120.482 33.5762 120.639 33.752C120.795 33.9238 120.986 34.0469 121.213 34.1211C121.439 34.1914 121.664 34.2266 121.887 34.2266C122.184 34.2266 122.432 34.1875 122.631 34.1094C122.834 34.0312 122.988 33.9238 123.094 33.7871C123.199 33.6504 123.252 33.4941 123.252 33.3184ZM125.777 34.4258C125.777 34.2422 125.834 34.0879 125.947 33.9629C126.064 33.834 126.232 33.7695 126.451 33.7695C126.67 33.7695 126.836 33.834 126.949 33.9629C127.066 34.0879 127.125 34.2422 127.125 34.4258C127.125 34.6055 127.066 34.7578 126.949 34.8828C126.836 35.0078 126.67 35.0703 126.451 35.0703C126.232 35.0703 126.064 35.0078 125.947 34.8828C125.834 34.7578 125.777 34.6055 125.777 34.4258Z" fill="#787878"/>
</svg>
