<svg width="22" height="22" viewBox="0 0 22 22" fill="none" xmlns="http://www.w3.org/2000/svg">
<g id="fluent:cart-24-regular">
<path id="Vector" d="M2.29163 3.896C2.29163 3.71366 2.36406 3.53879 2.49299 3.40986C2.62192 3.28093 2.79679 3.2085 2.97913 3.2085H3.49063C4.36146 3.2085 4.88396 3.79425 5.18188 4.33875C5.38079 4.70175 5.52471 5.1225 5.63746 5.50383C5.66796 5.50142 5.69853 5.5002 5.72913 5.50016H17.1856C17.9465 5.50016 18.4965 6.228 18.2875 6.96041L16.6118 12.8353C16.4616 13.3623 16.1437 13.8259 15.7064 14.1561C15.2691 14.4862 14.7361 14.6649 14.1881 14.665H8.73579C8.18349 14.665 7.64647 14.4837 7.20727 14.1488C6.76807 13.8139 6.451 13.3441 6.30479 12.8115L5.60813 10.2705L4.45313 6.3765L4.45221 6.36916C4.30921 5.84941 4.17538 5.36266 3.97554 4.99966C3.78396 4.64675 3.62996 4.5835 3.49154 4.5835H2.97913C2.79679 4.5835 2.62192 4.51106 2.49299 4.38213C2.36406 4.2532 2.29163 4.07833 2.29163 3.896ZM6.94188 9.93683L7.63029 12.4476C7.76779 12.9444 8.21971 13.29 8.73579 13.29H14.1881C14.4372 13.29 14.6795 13.2088 14.8783 13.0588C15.0771 12.9088 15.2216 12.6981 15.29 12.4586L16.8822 6.87516H6.03621L6.92904 9.88825L6.94188 9.93683ZM10.0833 17.4168C10.0833 17.9031 9.89014 18.3694 9.54632 18.7132C9.2025 19.057 8.73619 19.2502 8.24996 19.2502C7.76373 19.2502 7.29741 19.057 6.9536 18.7132C6.60978 18.3694 6.41663 17.9031 6.41663 17.4168C6.41663 16.9306 6.60978 16.4643 6.9536 16.1205C7.29741 15.7767 7.76373 15.5835 8.24996 15.5835C8.73619 15.5835 9.2025 15.7767 9.54632 16.1205C9.89014 16.4643 10.0833 16.9306 10.0833 17.4168ZM8.70829 17.4168C8.70829 17.2953 8.66 17.1787 8.57405 17.0927C8.4881 17.0068 8.37152 16.9585 8.24996 16.9585C8.1284 16.9585 8.01182 17.0068 7.92587 17.0927C7.83991 17.1787 7.79163 17.2953 7.79163 17.4168C7.79163 17.5384 7.83991 17.655 7.92587 17.7409C8.01182 17.8269 8.1284 17.8752 8.24996 17.8752C8.37152 17.8752 8.4881 17.8269 8.57405 17.7409C8.66 17.655 8.70829 17.5384 8.70829 17.4168ZM16.5 17.4168C16.5 17.9031 16.3068 18.3694 15.963 18.7132C15.6192 19.057 15.1529 19.2502 14.6666 19.2502C14.1804 19.2502 13.7141 19.057 13.3703 18.7132C13.0264 18.3694 12.8333 17.9031 12.8333 17.4168C12.8333 16.9306 13.0264 16.4643 13.3703 16.1205C13.7141 15.7767 14.1804 15.5835 14.6666 15.5835C15.1529 15.5835 15.6192 15.7767 15.963 16.1205C16.3068 16.4643 16.5 16.9306 16.5 17.4168ZM15.125 17.4168C15.125 17.2953 15.0767 17.1787 14.9907 17.0927C14.9048 17.0068 14.7882 16.9585 14.6666 16.9585C14.5451 16.9585 14.4285 17.0068 14.3425 17.0927C14.2566 17.1787 14.2083 17.2953 14.2083 17.4168C14.2083 17.5384 14.2566 17.655 14.3425 17.7409C14.4285 17.8269 14.5451 17.8752 14.6666 17.8752C14.7882 17.8752 14.9048 17.8269 14.9907 17.7409C15.0767 17.655 15.125 17.5384 15.125 17.4168Z" fill="black"/>
</g>
</svg>
