<svg width="21" height="25" viewBox="0 0 21 25" fill="none" xmlns="http://www.w3.org/2000/svg">
<path id="Vector" d="M3.84245 24.5C3.18612 24.5 2.62629 24.2606 2.16294 23.7817C1.70057 23.3028 1.46939 22.723 1.46939 22.0422V3.19372H0V1.67185H5.87755V0.5H14.6939V1.67185H20.5714V3.19372H19.102V22.0422C19.102 22.7422 18.8758 23.3266 18.4232 23.7954C17.9696 24.2651 17.4049 24.5 16.729 24.5H3.84245ZM17.6327 3.19372H2.93878V22.0422C2.93878 22.3151 3.02351 22.5393 3.19298 22.7148C3.36245 22.8904 3.57894 22.9781 3.84245 22.9781H16.729C16.9543 22.9781 17.1615 22.8807 17.3505 22.6859C17.5386 22.4901 17.6327 22.2755 17.6327 22.0422V3.19372ZM7.06481 19.9344H8.5342V6.23748H7.06481V19.9344ZM12.0372 19.9344H13.5066V6.23748H12.0372V19.9344Z" fill="#FA902D"/>
</svg>
