<svg width="34" height="44" viewBox="0 0 34 44" fill="none" xmlns="http://www.w3.org/2000/svg">
<path d="M20 12.832H20.3516V15.1406H20.1523C19.1445 15.1406 18.2734 15.2969 17.5391 15.6094C16.8125 15.9219 16.2148 16.3516 15.7461 16.8984C15.2773 17.4453 14.9258 18.0859 14.6914 18.8203C14.4648 19.5469 14.3516 20.3203 14.3516 21.1406V23.8242C14.3516 24.5039 14.4258 25.1055 14.5742 25.6289C14.7227 26.1445 14.9297 26.5781 15.1953 26.9297C15.4688 27.2734 15.7812 27.5352 16.1328 27.7148C16.4844 27.8945 16.8633 27.9844 17.2695 27.9844C17.6914 27.9844 18.0742 27.8984 18.418 27.7266C18.7617 27.5469 19.0547 27.3008 19.2969 26.9883C19.5391 26.6758 19.7227 26.3047 19.8477 25.875C19.9727 25.4453 20.0352 24.9766 20.0352 24.4688C20.0352 23.9844 19.9727 23.5312 19.8477 23.1094C19.7305 22.6797 19.5547 22.3047 19.3203 21.9844C19.0859 21.6562 18.793 21.4023 18.4414 21.2227C18.0977 21.0352 17.6992 20.9414 17.2461 20.9414C16.6836 20.9414 16.1719 21.0742 15.7109 21.3398C15.2578 21.6055 14.8906 21.9531 14.6094 22.3828C14.3359 22.8047 14.1875 23.2539 14.1641 23.7305L13.0859 23.3789C13.1484 22.6523 13.3086 22 13.5664 21.4219C13.832 20.8438 14.1797 20.3516 14.6094 19.9453C15.0391 19.5391 15.5352 19.2305 16.0977 19.0195C16.668 18.8008 17.293 18.6914 17.9727 18.6914C18.8008 18.6914 19.5195 18.8477 20.1289 19.1602C20.7383 19.4727 21.2422 19.8984 21.6406 20.4375C22.0469 20.9688 22.3477 21.5781 22.543 22.2656C22.7461 22.9453 22.8477 23.6562 22.8477 24.3984C22.8477 25.2188 22.7227 25.9844 22.4727 26.6953C22.2227 27.3984 21.8555 28.0156 21.3711 28.5469C20.8945 29.0781 20.3125 29.4922 19.625 29.7891C18.9453 30.0859 18.1719 30.2344 17.3047 30.2344C16.3906 30.2344 15.5742 30.0586 14.8555 29.707C14.1445 29.3555 13.5391 28.8711 13.0391 28.2539C12.5469 27.6367 12.1719 26.9258 11.9141 26.1211C11.6562 25.3164 11.5273 24.4648 11.5273 23.5664V22.3945C11.5273 21.0977 11.6914 19.875 12.0195 18.7266C12.3477 17.5703 12.8516 16.5508 13.5312 15.668C14.2188 14.7852 15.0977 14.0938 16.168 13.5938C17.2383 13.0859 18.5156 12.832 20 12.832Z" fill="black"/>
<path d="M34 42H0V46H34V42Z" fill="black" mask="url(#path-1-inside-1_114_216)"/>
</svg>
