<svg width="28" height="28" viewBox="0 0 28 28" fill="none" xmlns="http://www.w3.org/2000/svg">
<g id="octicon:heart-24">
<path id="Vector" d="M14 24.1533L14.4002 24.9315C14.2765 24.9954 14.1392 25.0287 14 25.0287C13.8608 25.0287 13.7236 24.9954 13.5999 24.9315L13.5964 24.9292L13.5882 24.9257L13.559 24.9105C11.3874 23.7311 9.34171 22.3332 7.45385 20.7385C4.43335 18.1683 1.16669 14.3872 1.16669 9.93284V9.93167C1.16669 5.895 4.46719 2.9165 7.85869 2.9165C10.535 2.9165 12.6945 4.34684 14 6.539C15.3067 4.34684 17.465 2.9165 20.1414 2.9165C23.5317 2.9165 26.8334 5.89384 26.8334 9.93284C26.8334 14.3872 23.5655 18.1695 20.5462 20.7385C18.6583 22.3331 16.6126 23.731 14.441 24.9105L14.4119 24.9257L14.4037 24.9292L14.4014 24.9303L14 24.1533ZM7.85869 4.6665C5.43319 4.6665 2.91669 6.85984 2.91669 9.93284C2.91669 13.5577 5.62802 16.8862 8.58785 19.4062C10.2436 20.805 12.0271 22.0452 13.9149 23.1103L14 23.1582L14.0852 23.1115C14.4014 22.933 14.8564 22.6682 15.4035 22.3252C16.5002 21.6392 17.9585 20.644 19.4122 19.4062C22.372 16.8862 25.0834 13.5577 25.0834 9.93284C25.0834 6.85984 22.5669 4.6665 20.1414 4.6665C17.6844 4.6665 15.7069 6.287 14.8295 8.91667C14.7706 9.0899 14.6589 9.24034 14.5102 9.34688C14.3614 9.45342 14.183 9.51071 14 9.51071C13.817 9.51071 13.6387 9.45342 13.4899 9.34688C13.3411 9.24034 13.2294 9.0899 13.1705 8.91667C12.2932 6.287 10.3145 4.6665 7.85869 4.6665Z" fill="#FA902D"/>
</g>
</svg>
