<svg width="22" height="22" viewBox="0 0 22 22" fill="none" xmlns="http://www.w3.org/2000/svg">
<path d="M5.83672 18.5C4.82235 18.5 4 17.6561 4 16.6142V9.03481C4 8.46218 4.25402 7.91969 4.68888 7.56233L9.74094 3.41356C10.0637 3.14627 10.4697 3 10.8888 3C11.3079 3 11.7138 3.14627 12.0366 3.41356L17.0878 7.56233C17.5235 7.91969 17.7776 8.46218 17.7776 9.03481V16.6142C17.7776 17.6561 16.9552 18.5 15.9408 18.5H5.83672Z" stroke="#EC994B" stroke-width="1.5" stroke-linecap="round" stroke-linejoin="round"/>
<path d="M8.73608 18.5002V13.7642C8.73608 13.3074 8.91753 12.8694 9.2405 12.5464C9.56348 12.2234 10.0015 12.042 10.4583 12.042H11.3194C11.7761 12.042 12.2142 12.2234 12.5372 12.5464C12.8601 12.8694 13.0416 13.3074 13.0416 13.7642V18.5002" stroke="#EC994B" stroke-width="1.5" stroke-linecap="round" stroke-linejoin="round"/>
</svg>
