<svg width="200" height="190" viewBox="0 0 200 190" fill="none" xmlns="http://www.w3.org/2000/svg">
<path d="M102.159 37.5753C101.578 37.0526 100.804 36.7609 99.9992 36.7609C99.1945 36.7609 98.4209 37.0526 97.8394 37.5753L25.9373 102.121C25.632 102.396 25.389 102.726 25.2232 103.091C25.0574 103.456 24.9722 103.849 24.9727 104.246L24.9609 164.825C24.9609 167.94 26.2777 170.927 28.6215 173.13C30.9653 175.332 34.1442 176.57 37.4589 176.57H74.9917C76.649 176.57 78.2384 175.951 79.4103 174.85C80.5823 173.748 81.2406 172.255 81.2406 170.697V120.784C81.2406 120.005 81.5698 119.258 82.1558 118.708C82.7417 118.157 83.5364 117.848 84.3651 117.848H115.61C116.439 117.848 117.233 118.157 117.819 118.708C118.405 119.258 118.734 120.005 118.734 120.784V170.697C118.734 172.255 119.393 173.748 120.565 174.85C121.737 175.951 123.326 176.57 124.983 176.57H162.501C165.815 176.57 168.994 175.332 171.338 173.13C173.682 170.927 174.998 167.94 174.998 164.825V104.246C174.999 103.849 174.914 103.456 174.748 103.091C174.582 102.726 174.339 102.396 174.034 102.121L102.159 37.5753Z" fill="#FA902D"/>
<path d="M191.762 90.6025L162.543 64.0471V23.75C162.543 22.1753 161.885 20.6651 160.712 19.5516C159.54 18.4381 157.951 17.8125 156.293 17.8125H137.543C135.885 17.8125 134.296 18.4381 133.124 19.5516C131.951 20.6651 131.293 22.1753 131.293 23.75V35.625L108.668 15.0738C106.551 13.0402 103.402 11.875 100 11.875C96.6094 11.875 93.4688 13.0402 91.3516 15.0775L8.26562 90.5951C5.83593 92.8217 5.53125 96.4844 7.74218 98.8965C8.29738 99.5053 8.97719 100 9.74022 100.352C10.5033 100.703 11.3336 100.903 12.1806 100.94C13.0277 100.977 13.8737 100.85 14.6674 100.566C15.461 100.282 16.1855 99.848 16.7969 99.2898L97.8516 25.7094C98.4331 25.1809 99.2069 24.8859 100.012 24.8859C100.817 24.8859 101.59 25.1809 102.172 25.7094L183.234 99.2898C184.428 100.378 186.028 100.971 187.682 100.941C189.336 100.91 190.91 100.258 192.059 99.1266C194.457 96.7664 194.258 92.8699 191.762 90.6025Z" fill="#FF6635"/>
<g clip-path="url(#clip0_56_64)">
<path fill-rule="evenodd" clip-rule="evenodd" d="M118.108 64.9595C118.322 65.2397 118.476 65.5566 118.559 65.892C118.642 66.2274 118.654 66.5749 118.593 66.9144C118.532 67.254 118.4 67.5791 118.204 67.8711C118.008 68.1631 117.753 68.4164 117.452 68.6164L111.542 72.5511C110.633 73.1553 109.941 74.0019 109.559 74.9794C109.176 75.9569 109.12 77.0195 109.398 78.0272L118.803 69.2638C119.062 69.0135 119.372 68.8138 119.716 68.6764C120.059 68.539 120.428 68.4667 120.802 68.4637C121.175 68.4606 121.546 68.527 121.891 68.6588C122.237 68.7906 122.551 68.9852 122.815 69.2314C123.079 69.4775 123.288 69.7702 123.43 70.0923C123.571 70.4145 123.642 70.7597 123.639 71.1077C123.636 71.4558 123.558 71.7998 123.411 72.1196C123.263 72.4394 123.049 72.7287 122.78 72.9705L113.376 81.7339C114.457 81.993 115.598 81.9408 116.647 81.5843C117.696 81.2277 118.604 80.5835 119.253 79.7364L123.475 74.2288C123.917 73.6829 124.57 73.3192 125.295 73.2155C126.02 73.1117 126.76 73.276 127.357 73.6733C127.954 74.0706 128.361 74.6695 128.491 75.3423C128.621 76.0151 128.463 76.7086 128.052 77.2749L123.833 82.7851C122.213 84.8972 119.804 86.3686 117.08 86.9099C114.355 87.4513 111.512 87.0235 109.108 85.7106L102.646 91.732L114.341 102.629C114.853 103.124 115.137 103.786 115.13 104.473C115.124 105.16 114.828 105.818 114.307 106.304C113.785 106.79 113.079 107.066 112.342 107.072C111.604 107.078 110.894 106.813 110.363 106.336L98.6684 95.4386L86.974 106.336C86.7144 106.586 86.404 106.786 86.0608 106.923C85.7176 107.061 85.3484 107.133 84.9749 107.136C84.6014 107.139 84.2309 107.073 83.8852 106.941C83.5395 106.809 83.2254 106.614 82.9612 106.368C82.6971 106.122 82.4882 105.83 82.3467 105.507C82.2053 105.185 82.1341 104.84 82.1374 104.492C82.1406 104.144 82.2182 103.8 82.3656 103.48C82.5131 103.16 82.7274 102.871 82.9961 102.629L94.6906 91.732L90.1613 87.5115C88.8588 88.1669 87.3003 88.6649 85.6433 88.8458C83.9606 89.0433 82.2517 88.8738 80.6514 88.3507C79.051 87.8275 77.603 86.965 76.4216 85.8312C73.8082 83.3933 72.3143 80.3288 71.943 77.385C71.5773 74.4883 72.2806 71.3846 74.5593 69.2638C76.8352 67.1405 80.1632 66.4851 83.2718 66.8259C86.431 67.1746 89.7225 68.5665 92.3359 71.0018C93.5527 72.1027 94.4783 73.452 95.0398 74.9432C95.6012 76.4345 95.7831 78.0269 95.5711 79.5948C95.3811 81.0689 94.8943 82.4963 94.1364 83.8022L98.6684 88.0227L105.13 82.0039C103.722 79.7647 103.264 77.1158 103.845 74.5775C104.425 72.0393 106.004 69.7952 108.27 68.2861L114.183 64.3513C114.79 63.9471 115.545 63.784 116.281 63.8981C117.017 64.0121 117.674 64.3939 118.108 64.9595ZM77.53 76.7716C77.7551 78.5541 78.6863 80.5281 80.3995 82.1219C81.868 83.4902 83.4912 83.7996 84.9878 83.637C86.6195 83.4588 87.9586 82.7248 88.4818 82.2398C89.0051 81.7523 89.79 80.5045 89.9813 78.984C90.1585 77.5868 89.8265 76.0743 88.358 74.7085C86.642 73.1121 84.5265 72.2444 82.6135 72.0347C80.6499 71.8197 79.2405 72.3125 78.5343 72.9705C77.831 73.6285 77.2993 74.9392 77.53 76.7716Z" fill="white"/>
</g>
<ellipse cx="88.6722" cy="145.121" rx="3.75094" ry="3.49522" fill="#FF6635"/>
<defs>
<clipPath id="clip0_56_64">
<rect width="67.5169" height="62.9139" fill="white" transform="translate(66.3166 56.3429)"/>
</clipPath>
</defs>
</svg>
