<svg width="24" height="24" viewBox="0 0 24 24" fill="none" xmlns="http://www.w3.org/2000/svg">
<g id="fluent:info-16-regular">
<path id="Vector" d="M12 10.5C12.1989 10.5 12.3897 10.579 12.5303 10.7197C12.671 10.8603 12.75 11.0511 12.75 11.25V15.75C12.75 15.9489 12.671 16.1397 12.5303 16.2803C12.3897 16.421 12.1989 16.5 12 16.5C11.8011 16.5 11.6103 16.421 11.4697 16.2803C11.329 16.1397 11.25 15.9489 11.25 15.75V11.25C11.25 11.0511 11.329 10.8603 11.4697 10.7197C11.6103 10.579 11.8011 10.5 12 10.5ZM12 9.375C12.1477 9.375 12.294 9.3459 12.4305 9.28936C12.567 9.23283 12.691 9.14996 12.7955 9.0455C12.9 8.94103 12.9828 8.81701 13.0394 8.68052C13.0959 8.54403 13.125 8.39774 13.125 8.25C13.125 8.10226 13.0959 7.95597 13.0394 7.81948C12.9828 7.68299 12.9 7.55897 12.7955 7.4545C12.691 7.35004 12.567 7.26717 12.4305 7.21064C12.294 7.1541 12.1477 7.125 12 7.125C11.702 7.125 11.4163 7.24337 11.2056 7.45407C10.9949 7.66476 10.8765 7.95053 10.8765 8.2485C10.8765 8.54647 10.9949 8.83224 11.2056 9.04293C11.4163 9.25363 11.702 9.372 12 9.372V9.375ZM3 12C3 10.8181 3.23279 9.64778 3.68508 8.55585C4.13738 7.46392 4.80031 6.47177 5.63604 5.63604C6.47177 4.80031 7.46392 4.13738 8.55585 3.68508C9.64778 3.23279 10.8181 3 12 3C13.1819 3 14.3522 3.23279 15.4442 3.68508C16.5361 4.13738 17.5282 4.80031 18.364 5.63604C19.1997 6.47177 19.8626 7.46392 20.3149 8.55585C20.7672 9.64778 21 10.8181 21 12C21 14.3869 20.0518 16.6761 18.364 18.364C16.6761 20.0518 14.3869 21 12 21C9.61305 21 7.32387 20.0518 5.63604 18.364C3.94821 16.6761 3 14.3869 3 12ZM12 4.5C10.0109 4.5 8.10322 5.29018 6.6967 6.6967C5.29018 8.10322 4.5 10.0109 4.5 12C4.5 13.9891 5.29018 15.8968 6.6967 17.3033C8.10322 18.7098 10.0109 19.5 12 19.5C13.9891 19.5 15.8968 18.7098 17.3033 17.3033C18.7098 15.8968 19.5 13.9891 19.5 12C19.5 10.0109 18.7098 8.10322 17.3033 6.6967C15.8968 5.29018 13.9891 4.5 12 4.5Z" fill="#F5A62E"/>
</g>
</svg>
