<svg width="16" height="16" viewBox="0 0 16 16" fill="none" xmlns="http://www.w3.org/2000/svg">
<path id="Vector" d="M8 12.6667C6.14348 12.6667 4.36301 12.0931 3.05025 11.072C1.7375 10.051 1 8.66618 1 7.22222V6.44444M8 12.6667C9.85652 12.6667 11.637 12.0931 12.9497 11.072C14.2625 10.051 15 8.66618 15 7.22222V6.44444M8 12.6667V15M5 3.33333C5 2.71449 5.31607 2.121 5.87868 1.68342C6.44129 1.24583 7.20435 1 8 1C8.79565 1 9.55871 1.24583 10.1213 1.68342C10.6839 2.121 11 2.71449 11 3.33333V7.22222C11 7.84106 10.6839 8.43455 10.1213 8.87214C9.55871 9.30972 8.79565 9.55556 8 9.55556C7.20435 9.55556 6.44129 9.30972 5.87868 8.87214C5.31607 8.43455 5 7.84106 5 7.22222V3.33333Z" stroke="#FA902D" stroke-linecap="round" stroke-linejoin="round"/>
</svg>
