<svg width="300" height="72" viewBox="0 0 300 72" fill="none" xmlns="http://www.w3.org/2000/svg">
<rect width="300" height="72" rx="8" fill="#EBEBEB"/>
<rect x="17.5927" y="12" width="44.4444" height="48" rx="22.2222" fill="#327434"/>
<path d="M40.3773 26.2656L32.8461 47H29.7679L38.4398 24.25H40.4242L40.3773 26.2656ZM46.6898 47L39.1429 26.2656L39.0961 24.25H41.0804L49.7836 47H46.6898ZM46.2992 38.5781V41.0469H33.5179V38.5781H46.2992Z" fill="white"/>
<path d="M82.0631 21.625V33H79.7194V21.625H82.0631ZM86.5944 26.4844V28.3125H81.4225V26.4844H86.5944ZM87.1412 21.625V23.4609H81.4225V21.625H87.1412ZM90.735 24.5469V33H88.4772V24.5469H90.735ZM88.3365 22.3438C88.3365 22.0156 88.4511 21.7448 88.6803 21.5312C88.9095 21.3177 89.2168 21.2109 89.6022 21.2109C89.9824 21.2109 90.2871 21.3177 90.5162 21.5312C90.7506 21.7448 90.8678 22.0156 90.8678 22.3438C90.8678 22.6719 90.7506 22.9427 90.5162 23.1562C90.2871 23.3698 89.9824 23.4766 89.6022 23.4766C89.2168 23.4766 88.9095 23.3698 88.6803 23.1562C88.4511 22.9427 88.3365 22.6719 88.3365 22.3438ZM94.8444 26.3906V33H92.5944V24.5469H94.7115L94.8444 26.3906ZM97.3912 24.4922L97.3522 26.5781C97.2428 26.5625 97.11 26.5495 96.9537 26.5391C96.8027 26.5234 96.6647 26.5156 96.5397 26.5156C96.222 26.5156 95.9459 26.5573 95.7115 26.6406C95.4824 26.7188 95.2897 26.8359 95.1334 26.9922C94.9824 27.1484 94.8678 27.3385 94.7897 27.5625C94.7168 27.7865 94.6751 28.0417 94.6647 28.3281L94.2115 28.1875C94.2115 27.6406 94.2662 27.138 94.3756 26.6797C94.485 26.2161 94.6438 25.8125 94.8522 25.4688C95.0657 25.125 95.3261 24.8594 95.6334 24.6719C95.9407 24.4844 96.2923 24.3906 96.6881 24.3906C96.8131 24.3906 96.9407 24.401 97.0709 24.4219C97.2011 24.4375 97.3079 24.4609 97.3912 24.4922ZM103.024 30.6641C103.024 30.5026 102.977 30.3568 102.883 30.2266C102.79 30.0964 102.615 29.9766 102.36 29.8672C102.11 29.7526 101.748 29.6484 101.274 29.5547C100.847 29.4609 100.449 29.3438 100.079 29.2031C99.7142 29.0573 99.3964 28.8828 99.1256 28.6797C98.86 28.4766 98.6517 28.237 98.5006 27.9609C98.3496 27.6797 98.274 27.3594 98.274 27C98.274 26.6458 98.3496 26.3125 98.5006 26C98.6569 25.6875 98.8782 25.4115 99.1647 25.1719C99.4563 24.9271 99.8105 24.737 100.227 24.6016C100.649 24.4609 101.123 24.3906 101.649 24.3906C102.383 24.3906 103.014 24.5078 103.54 24.7422C104.071 24.9766 104.477 25.2995 104.758 25.7109C105.045 26.1172 105.188 26.5807 105.188 27.1016H102.938C102.938 26.8828 102.891 26.6875 102.797 26.5156C102.709 26.3385 102.568 26.2005 102.376 26.1016C102.188 25.9974 101.943 25.9453 101.641 25.9453C101.391 25.9453 101.175 25.9896 100.993 26.0781C100.811 26.1615 100.67 26.276 100.571 26.4219C100.477 26.5625 100.43 26.7188 100.43 26.8906C100.43 27.0208 100.456 27.138 100.508 27.2422C100.566 27.3411 100.657 27.4323 100.782 27.5156C100.907 27.599 101.068 27.6771 101.266 27.75C101.469 27.8177 101.719 27.8802 102.016 27.9375C102.626 28.0625 103.17 28.2266 103.649 28.4297C104.128 28.6276 104.508 28.8984 104.79 29.2422C105.071 29.5807 105.212 30.026 105.212 30.5781C105.212 30.9531 105.128 31.2969 104.962 31.6094C104.795 31.9219 104.555 32.1953 104.243 32.4297C103.93 32.6589 103.555 32.8385 103.118 32.9688C102.686 33.0938 102.199 33.1562 101.657 33.1562C100.87 33.1562 100.204 33.0156 99.6569 32.7344C99.1152 32.4531 98.7037 32.0964 98.4225 31.6641C98.1464 31.2266 98.0084 30.7786 98.0084 30.3203H100.141C100.152 30.6276 100.23 30.875 100.376 31.0625C100.527 31.25 100.717 31.3854 100.946 31.4688C101.18 31.5521 101.433 31.5938 101.704 31.5938C101.995 31.5938 102.238 31.5547 102.43 31.4766C102.623 31.3932 102.769 31.2839 102.868 31.1484C102.972 31.0078 103.024 30.8464 103.024 30.6641ZM110.813 24.5469V26.1406H105.891V24.5469H110.813ZM107.11 22.4609H109.36V30.4531C109.36 30.6979 109.391 30.8854 109.454 31.0156C109.521 31.1458 109.62 31.237 109.751 31.2891C109.881 31.3359 110.045 31.3594 110.243 31.3594C110.383 31.3594 110.508 31.3542 110.618 31.3438C110.732 31.3281 110.829 31.3125 110.907 31.2969L110.915 32.9531C110.722 33.0156 110.514 33.0651 110.29 33.1016C110.066 33.138 109.818 33.1562 109.547 33.1562C109.053 33.1562 108.62 33.0755 108.251 32.9141C107.886 32.7474 107.605 32.4818 107.407 32.1172C107.209 31.7526 107.11 31.2734 107.11 30.6797V22.4609ZM114.297 26.3516V33H112.047V24.5469H114.157L114.297 26.3516ZM113.969 28.4766H113.36C113.36 27.8516 113.441 27.2891 113.602 26.7891C113.764 26.2839 113.99 25.8542 114.282 25.5C114.574 25.1406 114.92 24.8672 115.321 24.6797C115.727 24.487 116.18 24.3906 116.68 24.3906C117.076 24.3906 117.438 24.4479 117.766 24.5625C118.094 24.6771 118.376 24.8594 118.61 25.1094C118.85 25.3594 119.032 25.6901 119.157 26.1016C119.287 26.513 119.352 27.0156 119.352 27.6094V33H117.087V27.6016C117.087 27.2266 117.034 26.9349 116.93 26.7266C116.826 26.5182 116.672 26.3724 116.469 26.2891C116.271 26.2005 116.027 26.1562 115.735 26.1562C115.433 26.1562 115.17 26.2161 114.946 26.3359C114.727 26.4557 114.545 26.6224 114.399 26.8359C114.258 27.0443 114.152 27.2891 114.079 27.5703C114.006 27.8516 113.969 28.1536 113.969 28.4766ZM125.626 31.0938V27.3281C125.626 27.0573 125.581 26.8255 125.493 26.6328C125.404 26.4349 125.266 26.2812 125.079 26.1719C124.896 26.0625 124.659 26.0078 124.368 26.0078C124.118 26.0078 123.902 26.0521 123.719 26.1406C123.537 26.224 123.396 26.3464 123.297 26.5078C123.199 26.6641 123.149 26.849 123.149 27.0625H120.899C120.899 26.7031 120.982 26.362 121.149 26.0391C121.316 25.7161 121.558 25.4323 121.876 25.1875C122.193 24.9375 122.571 24.7422 123.008 24.6016C123.451 24.4609 123.946 24.3906 124.493 24.3906C125.149 24.3906 125.732 24.5 126.243 24.7188C126.753 24.9375 127.154 25.2656 127.446 25.7031C127.743 26.1406 127.891 26.6875 127.891 27.3438V30.9609C127.891 31.4245 127.92 31.8047 127.977 32.1016C128.034 32.3932 128.118 32.6484 128.227 32.8672V33H125.954C125.844 32.7708 125.761 32.4844 125.704 32.1406C125.652 31.7917 125.626 31.4427 125.626 31.0938ZM125.922 27.8516L125.938 29.125H124.68C124.383 29.125 124.126 29.1589 123.907 29.2266C123.688 29.2943 123.508 29.3906 123.368 29.5156C123.227 29.6354 123.123 29.776 123.055 29.9375C122.993 30.099 122.962 30.276 122.962 30.4688C122.962 30.6615 123.006 30.8359 123.094 30.9922C123.183 31.1432 123.311 31.263 123.477 31.3516C123.644 31.4349 123.839 31.4766 124.063 31.4766C124.402 31.4766 124.696 31.4089 124.946 31.2734C125.196 31.138 125.389 30.9714 125.524 30.7734C125.665 30.5755 125.738 30.388 125.743 30.2109L126.337 31.1641C126.253 31.3776 126.139 31.599 125.993 31.8281C125.852 32.0573 125.672 32.2734 125.454 32.4766C125.235 32.6745 124.972 32.8385 124.665 32.9688C124.357 33.0938 123.993 33.1562 123.571 33.1562C123.034 33.1562 122.547 33.0495 122.11 32.8359C121.678 32.6172 121.334 32.3177 121.079 31.9375C120.829 31.5521 120.704 31.1146 120.704 30.625C120.704 30.1823 120.787 29.7891 120.954 29.4453C121.12 29.1016 121.365 28.8125 121.688 28.5781C122.016 28.3385 122.425 28.1589 122.915 28.0391C123.404 27.9141 123.972 27.8516 124.618 27.8516H125.922ZM131.876 26.2969V33H129.618V24.5469H131.735L131.876 26.2969ZM131.563 28.4766H130.938C130.938 27.888 131.008 27.3464 131.149 26.8516C131.295 26.3516 131.506 25.9193 131.782 25.5547C132.063 25.1849 132.409 24.8984 132.821 24.6953C133.232 24.4922 133.709 24.3906 134.251 24.3906C134.626 24.3906 134.969 24.4479 135.282 24.5625C135.594 24.6719 135.863 24.8464 136.087 25.0859C136.316 25.3203 136.493 25.6276 136.618 26.0078C136.743 26.3828 136.805 26.8333 136.805 27.3594V33H134.555V27.6094C134.555 27.224 134.503 26.9271 134.399 26.7188C134.295 26.5104 134.146 26.3646 133.954 26.2812C133.766 26.1979 133.54 26.1562 133.274 26.1562C132.982 26.1562 132.727 26.2161 132.508 26.3359C132.295 26.4557 132.118 26.6224 131.977 26.8359C131.837 27.0443 131.732 27.2891 131.665 27.5703C131.597 27.8516 131.563 28.1536 131.563 28.4766ZM136.594 28.2188L135.79 28.3203C135.79 27.7682 135.857 27.2552 135.993 26.7812C136.133 26.3073 136.339 25.8906 136.61 25.5312C136.886 25.1719 137.227 24.8932 137.633 24.6953C138.04 24.4922 138.508 24.3906 139.04 24.3906C139.446 24.3906 139.816 24.4505 140.149 24.5703C140.482 24.6849 140.766 24.8698 141.001 25.125C141.24 25.375 141.422 25.7031 141.547 26.1094C141.678 26.5156 141.743 27.013 141.743 27.6016V33H139.485V27.6016C139.485 27.2109 139.433 26.9141 139.329 26.7109C139.23 26.5026 139.084 26.3594 138.891 26.2812C138.704 26.1979 138.48 26.1562 138.219 26.1562C137.949 26.1562 137.712 26.2109 137.508 26.3203C137.305 26.4245 137.136 26.5703 137.001 26.7578C136.865 26.9453 136.764 27.1641 136.696 27.4141C136.628 27.6589 136.594 27.9271 136.594 28.2188ZM147.376 33.1562C146.719 33.1562 146.131 33.0521 145.61 32.8438C145.089 32.6302 144.646 32.3359 144.282 31.9609C143.922 31.5859 143.646 31.151 143.454 30.6562C143.261 30.1562 143.165 29.625 143.165 29.0625V28.75C143.165 28.1094 143.256 27.5234 143.438 26.9922C143.62 26.4609 143.881 26 144.219 25.6094C144.563 25.2188 144.98 24.9193 145.469 24.7109C145.959 24.4974 146.511 24.3906 147.126 24.3906C147.725 24.3906 148.256 24.4896 148.719 24.6875C149.183 24.8854 149.571 25.1667 149.883 25.5312C150.201 25.8958 150.441 26.3333 150.602 26.8438C150.764 27.349 150.844 27.9115 150.844 28.5312V29.4688H144.126V27.9688H148.633V27.7969C148.633 27.4844 148.576 27.2057 148.462 26.9609C148.352 26.7109 148.186 26.513 147.962 26.3672C147.738 26.2214 147.451 26.1484 147.102 26.1484C146.805 26.1484 146.55 26.2135 146.337 26.3438C146.123 26.474 145.949 26.6562 145.813 26.8906C145.683 27.125 145.584 27.401 145.516 27.7188C145.454 28.0312 145.422 28.375 145.422 28.75V29.0625C145.422 29.401 145.469 29.7135 145.563 30C145.662 30.2865 145.8 30.5339 145.977 30.7422C146.159 30.9505 146.378 31.112 146.633 31.2266C146.894 31.3411 147.188 31.3984 147.516 31.3984C147.922 31.3984 148.3 31.3203 148.649 31.1641C149.003 31.0026 149.308 30.7604 149.563 30.4375L150.657 31.625C150.48 31.8802 150.238 32.125 149.93 32.3594C149.628 32.5938 149.264 32.7865 148.837 32.9375C148.409 33.0833 147.922 33.1562 147.376 33.1562ZM163.547 31.1719V33H157.821V31.1719H163.547ZM158.579 21.625V33H156.235V21.625H158.579ZM169.313 31.0938V27.3281C169.313 27.0573 169.269 26.8255 169.18 26.6328C169.092 26.4349 168.954 26.2812 168.766 26.1719C168.584 26.0625 168.347 26.0078 168.055 26.0078C167.805 26.0078 167.589 26.0521 167.407 26.1406C167.225 26.224 167.084 26.3464 166.985 26.5078C166.886 26.6641 166.837 26.849 166.837 27.0625H164.587C164.587 26.7031 164.67 26.362 164.837 26.0391C165.003 25.7161 165.245 25.4323 165.563 25.1875C165.881 24.9375 166.258 24.7422 166.696 24.6016C167.139 24.4609 167.633 24.3906 168.18 24.3906C168.837 24.3906 169.42 24.5 169.93 24.7188C170.441 24.9375 170.842 25.2656 171.133 25.7031C171.43 26.1406 171.579 26.6875 171.579 27.3438V30.9609C171.579 31.4245 171.607 31.8047 171.665 32.1016C171.722 32.3932 171.805 32.6484 171.915 32.8672V33H169.641C169.532 32.7708 169.449 32.4844 169.391 32.1406C169.339 31.7917 169.313 31.4427 169.313 31.0938ZM169.61 27.8516L169.626 29.125H168.368C168.071 29.125 167.813 29.1589 167.594 29.2266C167.376 29.2943 167.196 29.3906 167.055 29.5156C166.915 29.6354 166.811 29.776 166.743 29.9375C166.68 30.099 166.649 30.276 166.649 30.4688C166.649 30.6615 166.693 30.8359 166.782 30.9922C166.87 31.1432 166.998 31.263 167.165 31.3516C167.331 31.4349 167.527 31.4766 167.751 31.4766C168.089 31.4766 168.383 31.4089 168.633 31.2734C168.883 31.138 169.076 30.9714 169.212 30.7734C169.352 30.5755 169.425 30.388 169.43 30.2109L170.024 31.1641C169.941 31.3776 169.826 31.599 169.68 31.8281C169.54 32.0573 169.36 32.2734 169.141 32.4766C168.922 32.6745 168.659 32.8385 168.352 32.9688C168.045 33.0938 167.68 33.1562 167.258 33.1562C166.722 33.1562 166.235 33.0495 165.797 32.8359C165.365 32.6172 165.021 32.3177 164.766 31.9375C164.516 31.5521 164.391 31.1146 164.391 30.625C164.391 30.1823 164.475 29.7891 164.641 29.4453C164.808 29.1016 165.053 28.8125 165.376 28.5781C165.704 28.3385 166.113 28.1589 166.602 28.0391C167.092 27.9141 167.659 27.8516 168.305 27.8516H169.61ZM177.883 30.6641C177.883 30.5026 177.837 30.3568 177.743 30.2266C177.649 30.0964 177.475 29.9766 177.219 29.8672C176.969 29.7526 176.607 29.6484 176.133 29.5547C175.706 29.4609 175.308 29.3438 174.938 29.2031C174.574 29.0573 174.256 28.8828 173.985 28.6797C173.719 28.4766 173.511 28.237 173.36 27.9609C173.209 27.6797 173.133 27.3594 173.133 27C173.133 26.6458 173.209 26.3125 173.36 26C173.516 25.6875 173.738 25.4115 174.024 25.1719C174.316 24.9271 174.67 24.737 175.087 24.6016C175.508 24.4609 175.982 24.3906 176.508 24.3906C177.243 24.3906 177.873 24.5078 178.399 24.7422C178.93 24.9766 179.337 25.2995 179.618 25.7109C179.904 26.1172 180.047 26.5807 180.047 27.1016H177.797C177.797 26.8828 177.751 26.6875 177.657 26.5156C177.568 26.3385 177.428 26.2005 177.235 26.1016C177.047 25.9974 176.803 25.9453 176.501 25.9453C176.251 25.9453 176.034 25.9896 175.852 26.0781C175.67 26.1615 175.529 26.276 175.43 26.4219C175.337 26.5625 175.29 26.7188 175.29 26.8906C175.29 27.0208 175.316 27.138 175.368 27.2422C175.425 27.3411 175.516 27.4323 175.641 27.5156C175.766 27.599 175.928 27.6771 176.126 27.75C176.329 27.8177 176.579 27.8802 176.876 27.9375C177.485 28.0625 178.029 28.2266 178.508 28.4297C178.988 28.6276 179.368 28.8984 179.649 29.2422C179.93 29.5807 180.071 30.026 180.071 30.5781C180.071 30.9531 179.988 31.2969 179.821 31.6094C179.654 31.9219 179.415 32.1953 179.102 32.4297C178.79 32.6589 178.415 32.8385 177.977 32.9688C177.545 33.0938 177.058 33.1562 176.516 33.1562C175.73 33.1562 175.063 33.0156 174.516 32.7344C173.975 32.4531 173.563 32.0964 173.282 31.6641C173.006 31.2266 172.868 30.7786 172.868 30.3203H175.001C175.011 30.6276 175.089 30.875 175.235 31.0625C175.386 31.25 175.576 31.3854 175.805 31.4688C176.04 31.5521 176.292 31.5938 176.563 31.5938C176.855 31.5938 177.097 31.5547 177.29 31.4766C177.482 31.3932 177.628 31.2839 177.727 31.1484C177.831 31.0078 177.883 30.8464 177.883 30.6641ZM185.672 24.5469V26.1406H180.751V24.5469H185.672ZM181.969 22.4609H184.219V30.4531C184.219 30.6979 184.251 30.8854 184.313 31.0156C184.381 31.1458 184.48 31.237 184.61 31.2891C184.74 31.3359 184.904 31.3594 185.102 31.3594C185.243 31.3594 185.368 31.3542 185.477 31.3438C185.592 31.3281 185.688 31.3125 185.766 31.2969L185.774 32.9531C185.581 33.0156 185.373 33.0651 185.149 33.1016C184.925 33.138 184.678 33.1562 184.407 33.1562C183.912 33.1562 183.48 33.0755 183.11 32.9141C182.745 32.7474 182.464 32.4818 182.266 32.1172C182.068 31.7526 181.969 31.2734 181.969 30.6797V22.4609ZM189.157 26.3516V33H186.907V24.5469H189.016L189.157 26.3516ZM188.829 28.4766H188.219C188.219 27.8516 188.3 27.2891 188.462 26.7891C188.623 26.2839 188.85 25.8542 189.141 25.5C189.433 25.1406 189.779 24.8672 190.18 24.6797C190.587 24.487 191.04 24.3906 191.54 24.3906C191.936 24.3906 192.297 24.4479 192.626 24.5625C192.954 24.6771 193.235 24.8594 193.469 25.1094C193.709 25.3594 193.891 25.6901 194.016 26.1016C194.146 26.513 194.212 27.0156 194.212 27.6094V33H191.946V27.6016C191.946 27.2266 191.894 26.9349 191.79 26.7266C191.686 26.5182 191.532 26.3724 191.329 26.2891C191.131 26.2005 190.886 26.1562 190.594 26.1562C190.292 26.1562 190.029 26.2161 189.805 26.3359C189.587 26.4557 189.404 26.6224 189.258 26.8359C189.118 27.0443 189.011 27.2891 188.938 27.5703C188.865 27.8516 188.829 28.1536 188.829 28.4766ZM200.485 31.0938V27.3281C200.485 27.0573 200.441 26.8255 200.352 26.6328C200.264 26.4349 200.126 26.2812 199.938 26.1719C199.756 26.0625 199.519 26.0078 199.227 26.0078C198.977 26.0078 198.761 26.0521 198.579 26.1406C198.396 26.224 198.256 26.3464 198.157 26.5078C198.058 26.6641 198.008 26.849 198.008 27.0625H195.758C195.758 26.7031 195.842 26.362 196.008 26.0391C196.175 25.7161 196.417 25.4323 196.735 25.1875C197.053 24.9375 197.43 24.7422 197.868 24.6016C198.311 24.4609 198.805 24.3906 199.352 24.3906C200.008 24.3906 200.592 24.5 201.102 24.7188C201.613 24.9375 202.014 25.2656 202.305 25.7031C202.602 26.1406 202.751 26.6875 202.751 27.3438V30.9609C202.751 31.4245 202.779 31.8047 202.837 32.1016C202.894 32.3932 202.977 32.6484 203.087 32.8672V33H200.813C200.704 32.7708 200.62 32.4844 200.563 32.1406C200.511 31.7917 200.485 31.4427 200.485 31.0938ZM200.782 27.8516L200.797 29.125H199.54C199.243 29.125 198.985 29.1589 198.766 29.2266C198.547 29.2943 198.368 29.3906 198.227 29.5156C198.087 29.6354 197.982 29.776 197.915 29.9375C197.852 30.099 197.821 30.276 197.821 30.4688C197.821 30.6615 197.865 30.8359 197.954 30.9922C198.042 31.1432 198.17 31.263 198.337 31.3516C198.503 31.4349 198.699 31.4766 198.922 31.4766C199.261 31.4766 199.555 31.4089 199.805 31.2734C200.055 31.138 200.248 30.9714 200.383 30.7734C200.524 30.5755 200.597 30.388 200.602 30.2109L201.196 31.1641C201.113 31.3776 200.998 31.599 200.852 31.8281C200.712 32.0573 200.532 32.2734 200.313 32.4766C200.094 32.6745 199.831 32.8385 199.524 32.9688C199.217 33.0938 198.852 33.1562 198.43 33.1562C197.894 33.1562 197.407 33.0495 196.969 32.8359C196.537 32.6172 196.193 32.3177 195.938 31.9375C195.688 31.5521 195.563 31.1146 195.563 30.625C195.563 30.1823 195.646 29.7891 195.813 29.4453C195.98 29.1016 196.225 28.8125 196.547 28.5781C196.876 28.3385 197.284 28.1589 197.774 28.0391C198.264 27.9141 198.831 27.8516 199.477 27.8516H200.782ZM206.735 26.2969V33H204.477V24.5469H206.594L206.735 26.2969ZM206.422 28.4766H205.797C205.797 27.888 205.868 27.3464 206.008 26.8516C206.154 26.3516 206.365 25.9193 206.641 25.5547C206.922 25.1849 207.269 24.8984 207.68 24.6953C208.092 24.4922 208.568 24.3906 209.11 24.3906C209.485 24.3906 209.829 24.4479 210.141 24.5625C210.454 24.6719 210.722 24.8464 210.946 25.0859C211.175 25.3203 211.352 25.6276 211.477 26.0078C211.602 26.3828 211.665 26.8333 211.665 27.3594V33H209.415V27.6094C209.415 27.224 209.363 26.9271 209.258 26.7188C209.154 26.5104 209.006 26.3646 208.813 26.2812C208.626 26.1979 208.399 26.1562 208.133 26.1562C207.842 26.1562 207.587 26.2161 207.368 26.3359C207.154 26.4557 206.977 26.6224 206.837 26.8359C206.696 27.0443 206.592 27.2891 206.524 27.5703C206.456 27.8516 206.422 28.1536 206.422 28.4766ZM211.454 28.2188L210.649 28.3203C210.649 27.7682 210.717 27.2552 210.852 26.7812C210.993 26.3073 211.199 25.8906 211.469 25.5312C211.745 25.1719 212.087 24.8932 212.493 24.6953C212.899 24.4922 213.368 24.3906 213.899 24.3906C214.305 24.3906 214.675 24.4505 215.008 24.5703C215.342 24.6849 215.626 24.8698 215.86 25.125C216.1 25.375 216.282 25.7031 216.407 26.1094C216.537 26.5156 216.602 27.013 216.602 27.6016V33H214.344V27.6016C214.344 27.2109 214.292 26.9141 214.188 26.7109C214.089 26.5026 213.943 26.3594 213.751 26.2812C213.563 26.1979 213.339 26.1562 213.079 26.1562C212.808 26.1562 212.571 26.2109 212.368 26.3203C212.165 26.4245 211.995 26.5703 211.86 26.7578C211.725 26.9453 211.623 27.1641 211.555 27.4141C211.488 27.6589 211.454 27.9271 211.454 28.2188ZM222.235 33.1562C221.579 33.1562 220.99 33.0521 220.469 32.8438C219.949 32.6302 219.506 32.3359 219.141 31.9609C218.782 31.5859 218.506 31.151 218.313 30.6562C218.12 30.1562 218.024 29.625 218.024 29.0625V28.75C218.024 28.1094 218.115 27.5234 218.297 26.9922C218.48 26.4609 218.74 26 219.079 25.6094C219.422 25.2188 219.839 24.9193 220.329 24.7109C220.818 24.4974 221.37 24.3906 221.985 24.3906C222.584 24.3906 223.115 24.4896 223.579 24.6875C224.042 24.8854 224.43 25.1667 224.743 25.5312C225.061 25.8958 225.3 26.3333 225.462 26.8438C225.623 27.349 225.704 27.9115 225.704 28.5312V29.4688H218.985V27.9688H223.493V27.7969C223.493 27.4844 223.436 27.2057 223.321 26.9609C223.212 26.7109 223.045 26.513 222.821 26.3672C222.597 26.2214 222.311 26.1484 221.962 26.1484C221.665 26.1484 221.409 26.2135 221.196 26.3438C220.982 26.474 220.808 26.6562 220.672 26.8906C220.542 27.125 220.443 27.401 220.376 27.7188C220.313 28.0312 220.282 28.375 220.282 28.75V29.0625C220.282 29.401 220.329 29.7135 220.422 30C220.521 30.2865 220.659 30.5339 220.837 30.7422C221.019 30.9505 221.238 31.112 221.493 31.2266C221.753 31.3411 222.047 31.3984 222.376 31.3984C222.782 31.3984 223.159 31.3203 223.508 31.1641C223.863 31.0026 224.167 30.7604 224.422 30.4375L225.516 31.625C225.339 31.8802 225.097 32.125 224.79 32.3594C224.488 32.5938 224.123 32.7865 223.696 32.9375C223.269 33.0833 222.782 33.1562 222.235 33.1562ZM81.2506 44.875V52H79.8053V43.5469H81.2115L81.2506 44.875ZM83.8912 43.5L83.8834 44.8438C83.7636 44.8177 83.649 44.8021 83.5397 44.7969C83.4355 44.7865 83.3157 44.7812 83.1803 44.7812C82.847 44.7812 82.5527 44.8333 82.2975 44.9375C82.0423 45.0417 81.8261 45.1875 81.649 45.375C81.472 45.5625 81.3313 45.7865 81.2272 46.0469C81.1282 46.3021 81.0631 46.5833 81.0319 46.8906L80.6256 47.125C80.6256 46.6146 80.6751 46.1354 80.774 45.6875C80.8782 45.2396 81.0371 44.8438 81.2506 44.5C81.4642 44.151 81.735 43.8802 82.0631 43.6875C82.3964 43.4896 82.7923 43.3906 83.2506 43.3906C83.3548 43.3906 83.4746 43.4036 83.61 43.4297C83.7454 43.4505 83.8392 43.474 83.8912 43.5ZM89.899 50.5547V46.2031C89.899 45.8698 89.8313 45.5807 89.6959 45.3359C89.5657 45.0859 89.3678 44.8932 89.1022 44.7578C88.8365 44.6224 88.5084 44.5547 88.1178 44.5547C87.7532 44.5547 87.4329 44.6172 87.1569 44.7422C86.886 44.8672 86.6725 45.0312 86.5162 45.2344C86.3652 45.4375 86.2897 45.6562 86.2897 45.8906H84.8444C84.8444 45.5885 84.9225 45.2891 85.0787 44.9922C85.235 44.6953 85.4589 44.4271 85.7506 44.1875C86.0475 43.9427 86.4017 43.75 86.8131 43.6094C87.2298 43.4635 87.6933 43.3906 88.2037 43.3906C88.8183 43.3906 89.36 43.4948 89.8287 43.7031C90.3027 43.9115 90.6725 44.2266 90.9381 44.6484C91.2089 45.0651 91.3444 45.5885 91.3444 46.2188V50.1562C91.3444 50.4375 91.3678 50.737 91.4147 51.0547C91.4668 51.3724 91.5423 51.6458 91.6412 51.875V52H90.1334C90.0605 51.8333 90.0032 51.612 89.9615 51.3359C89.9199 51.0547 89.899 50.7943 89.899 50.5547ZM90.149 46.875L90.1647 47.8906H88.7037C88.2923 47.8906 87.9251 47.9245 87.6022 47.9922C87.2793 48.0547 87.0084 48.151 86.7897 48.2812C86.5709 48.4115 86.4043 48.5755 86.2897 48.7734C86.1751 48.9661 86.1178 49.1927 86.1178 49.4531C86.1178 49.7188 86.1777 49.9609 86.2975 50.1797C86.4173 50.3984 86.597 50.5729 86.8365 50.7031C87.0813 50.8281 87.3808 50.8906 87.735 50.8906C88.1777 50.8906 88.5683 50.7969 88.9069 50.6094C89.2454 50.4219 89.5136 50.1927 89.7115 49.9219C89.9147 49.651 90.024 49.388 90.0397 49.1328L90.6569 49.8281C90.6204 50.0469 90.5214 50.2891 90.36 50.5547C90.1985 50.8203 89.9824 51.0755 89.7115 51.3203C89.4459 51.5599 89.1282 51.7604 88.7584 51.9219C88.3938 52.0781 87.9824 52.1562 87.524 52.1562C86.9511 52.1562 86.4485 52.0443 86.0162 51.8203C85.5892 51.5964 85.2558 51.2969 85.0162 50.9219C84.7819 50.5417 84.6647 50.1172 84.6647 49.6484C84.6647 49.1953 84.7532 48.7969 84.9303 48.4531C85.1074 48.1042 85.3626 47.8151 85.6959 47.5859C86.0293 47.3516 86.4303 47.1745 86.899 47.0547C87.3678 46.9349 87.8912 46.875 88.4694 46.875H90.149ZM97.1569 43.5469V44.6562H92.5865V43.5469H97.1569ZM94.1334 41.4922H95.5787V49.9062C95.5787 50.1927 95.623 50.4089 95.7115 50.5547C95.8001 50.7005 95.9147 50.7969 96.0553 50.8438C96.1959 50.8906 96.347 50.9141 96.5084 50.9141C96.6282 50.9141 96.7532 50.9036 96.8834 50.8828C97.0188 50.8568 97.1204 50.8359 97.1881 50.8203L97.1959 52C97.0813 52.0365 96.9303 52.0703 96.7428 52.1016C96.5605 52.138 96.3392 52.1562 96.0787 52.1562C95.7246 52.1562 95.399 52.0859 95.1022 51.9453C94.8053 51.8047 94.5683 51.5703 94.3912 51.2422C94.2194 50.9089 94.1334 50.4609 94.1334 49.8984V41.4922ZM102.36 52.1562C101.771 52.1562 101.238 52.0573 100.758 51.8594C100.284 51.6562 99.8756 51.3724 99.5319 51.0078C99.1933 50.6432 98.9329 50.2109 98.7506 49.7109C98.5683 49.2109 98.4772 48.6641 98.4772 48.0703V47.7422C98.4772 47.0547 98.5787 46.4427 98.7819 45.9062C98.985 45.3646 99.261 44.9062 99.61 44.5312C99.9589 44.1562 100.355 43.8724 100.797 43.6797C101.24 43.487 101.699 43.3906 102.172 43.3906C102.777 43.3906 103.297 43.4948 103.735 43.7031C104.178 43.9115 104.54 44.2031 104.821 44.5781C105.102 44.9479 105.311 45.3854 105.446 45.8906C105.581 46.3906 105.649 46.9375 105.649 47.5312V48.1797H99.3365V47H104.204V46.8906C104.183 46.5156 104.105 46.151 103.969 45.7969C103.839 45.4427 103.631 45.151 103.344 44.9219C103.058 44.6927 102.667 44.5781 102.172 44.5781C101.844 44.5781 101.542 44.6484 101.266 44.7891C100.99 44.9245 100.753 45.1276 100.555 45.3984C100.357 45.6693 100.204 46 100.094 46.3906C99.985 46.7812 99.9303 47.2318 99.9303 47.7422V48.0703C99.9303 48.4714 99.985 48.849 100.094 49.2031C100.209 49.5521 100.373 49.8594 100.587 50.125C100.805 50.3906 101.068 50.599 101.376 50.75C101.688 50.901 102.042 50.9766 102.438 50.9766C102.949 50.9766 103.381 50.8724 103.735 50.6641C104.089 50.4557 104.399 50.1771 104.665 49.8281L105.54 50.5234C105.357 50.7995 105.126 51.0625 104.844 51.3125C104.563 51.5625 104.217 51.7656 103.805 51.9219C103.399 52.0781 102.917 52.1562 102.36 52.1562ZM112.665 50.3594V40H114.118V52H112.79L112.665 50.3594ZM106.977 47.8672V47.7031C106.977 47.0573 107.055 46.4714 107.212 45.9453C107.373 45.4141 107.6 44.9583 107.891 44.5781C108.188 44.1979 108.54 43.9062 108.946 43.7031C109.357 43.4948 109.816 43.3906 110.321 43.3906C110.852 43.3906 111.316 43.4844 111.712 43.6719C112.113 43.8542 112.451 44.1224 112.727 44.4766C113.008 44.8255 113.23 45.2474 113.391 45.7422C113.553 46.237 113.665 46.7969 113.727 47.4219V48.1406C113.67 48.7604 113.558 49.3177 113.391 49.8125C113.23 50.3073 113.008 50.7292 112.727 51.0781C112.451 51.4271 112.113 51.6953 111.712 51.8828C111.311 52.0651 110.842 52.1562 110.305 52.1562C109.811 52.1562 109.357 52.0495 108.946 51.8359C108.54 51.6224 108.188 51.3229 107.891 50.9375C107.6 50.5521 107.373 50.099 107.212 49.5781C107.055 49.0521 106.977 48.4818 106.977 47.8672ZM108.43 47.7031V47.8672C108.43 48.2891 108.472 48.6849 108.555 49.0547C108.644 49.4245 108.779 49.75 108.962 50.0312C109.144 50.3125 109.376 50.5339 109.657 50.6953C109.938 50.8516 110.274 50.9297 110.665 50.9297C111.144 50.9297 111.537 50.8281 111.844 50.625C112.157 50.4219 112.407 50.1536 112.594 49.8203C112.782 49.487 112.928 49.125 113.032 48.7344V46.8516C112.969 46.5651 112.878 46.2891 112.758 46.0234C112.644 45.7526 112.493 45.513 112.305 45.3047C112.123 45.0911 111.896 44.9219 111.626 44.7969C111.36 44.6719 111.045 44.6094 110.68 44.6094C110.284 44.6094 109.943 44.6927 109.657 44.8594C109.376 45.0208 109.144 45.2448 108.962 45.5312C108.779 45.8125 108.644 46.1406 108.555 46.5156C108.472 46.8854 108.43 47.2812 108.43 47.7031ZM127.868 48.1719V49.3594H119.649V48.5078L124.743 40.625H125.922L124.657 42.9062L121.29 48.1719H127.868ZM126.282 40.625V52H124.837V40.625H126.282ZM138.227 49.7578C138.227 49.5495 138.18 49.3568 138.087 49.1797C137.998 48.9974 137.813 48.8333 137.532 48.6875C137.256 48.5365 136.839 48.4062 136.282 48.2969C135.813 48.1979 135.389 48.0807 135.008 47.9453C134.633 47.8099 134.313 47.6458 134.047 47.4531C133.787 47.2604 133.587 47.0339 133.446 46.7734C133.305 46.513 133.235 46.2083 133.235 45.8594C133.235 45.526 133.308 45.2109 133.454 44.9141C133.605 44.6172 133.816 44.3542 134.087 44.125C134.363 43.8958 134.693 43.7161 135.079 43.5859C135.464 43.4557 135.894 43.3906 136.368 43.3906C137.045 43.3906 137.623 43.5104 138.102 43.75C138.581 43.9896 138.949 44.3099 139.204 44.7109C139.459 45.1068 139.587 45.5469 139.587 46.0312H138.141C138.141 45.7969 138.071 45.5703 137.93 45.3516C137.795 45.1276 137.594 44.9427 137.329 44.7969C137.068 44.651 136.748 44.5781 136.368 44.5781C135.967 44.5781 135.641 44.6406 135.391 44.7656C135.146 44.8854 134.967 45.0391 134.852 45.2266C134.743 45.4141 134.688 45.612 134.688 45.8203C134.688 45.9766 134.714 46.1172 134.766 46.2422C134.824 46.362 134.922 46.474 135.063 46.5781C135.204 46.6771 135.402 46.7708 135.657 46.8594C135.912 46.9479 136.238 47.0365 136.633 47.125C137.326 47.2812 137.896 47.4688 138.344 47.6875C138.792 47.9062 139.126 48.1745 139.344 48.4922C139.563 48.8099 139.672 49.1953 139.672 49.6484C139.672 50.0182 139.594 50.3568 139.438 50.6641C139.287 50.9714 139.066 51.237 138.774 51.4609C138.488 51.6797 138.144 51.8516 137.743 51.9766C137.347 52.0964 136.902 52.1562 136.407 52.1562C135.662 52.1562 135.032 52.0234 134.516 51.7578C134.001 51.4922 133.61 51.1484 133.344 50.7266C133.079 50.3047 132.946 49.8594 132.946 49.3906H134.399C134.42 49.7865 134.534 50.1016 134.743 50.3359C134.951 50.5651 135.206 50.7292 135.508 50.8281C135.811 50.9219 136.11 50.9688 136.407 50.9688C136.803 50.9688 137.133 50.9167 137.399 50.8125C137.67 50.7083 137.876 50.5651 138.016 50.3828C138.157 50.2005 138.227 49.9922 138.227 49.7578ZM145.11 43.5469V44.6562H140.54V43.5469H145.11ZM142.087 41.4922H143.532V49.9062C143.532 50.1927 143.576 50.4089 143.665 50.5547C143.753 50.7005 143.868 50.7969 144.008 50.8438C144.149 50.8906 144.3 50.9141 144.462 50.9141C144.581 50.9141 144.706 50.9036 144.837 50.8828C144.972 50.8568 145.074 50.8359 145.141 50.8203L145.149 52C145.034 52.0365 144.883 52.0703 144.696 52.1016C144.514 52.138 144.292 52.1562 144.032 52.1562C143.678 52.1562 143.352 52.0859 143.055 51.9453C142.758 51.8047 142.521 51.5703 142.344 51.2422C142.172 50.9089 142.087 50.4609 142.087 49.8984V41.4922ZM151.79 50.5547V46.2031C151.79 45.8698 151.722 45.5807 151.587 45.3359C151.456 45.0859 151.258 44.8932 150.993 44.7578C150.727 44.6224 150.399 44.5547 150.008 44.5547C149.644 44.5547 149.324 44.6172 149.047 44.7422C148.777 44.8672 148.563 45.0312 148.407 45.2344C148.256 45.4375 148.18 45.6562 148.18 45.8906H146.735C146.735 45.5885 146.813 45.2891 146.969 44.9922C147.126 44.6953 147.35 44.4271 147.641 44.1875C147.938 43.9427 148.292 43.75 148.704 43.6094C149.12 43.4635 149.584 43.3906 150.094 43.3906C150.709 43.3906 151.251 43.4948 151.719 43.7031C152.193 43.9115 152.563 44.2266 152.829 44.6484C153.1 45.0651 153.235 45.5885 153.235 46.2188V50.1562C153.235 50.4375 153.258 50.737 153.305 51.0547C153.357 51.3724 153.433 51.6458 153.532 51.875V52H152.024C151.951 51.8333 151.894 51.612 151.852 51.3359C151.811 51.0547 151.79 50.7943 151.79 50.5547ZM152.04 46.875L152.055 47.8906H150.594C150.183 47.8906 149.816 47.9245 149.493 47.9922C149.17 48.0547 148.899 48.151 148.68 48.2812C148.462 48.4115 148.295 48.5755 148.18 48.7734C148.066 48.9661 148.008 49.1927 148.008 49.4531C148.008 49.7188 148.068 49.9609 148.188 50.1797C148.308 50.3984 148.488 50.5729 148.727 50.7031C148.972 50.8281 149.271 50.8906 149.626 50.8906C150.068 50.8906 150.459 50.7969 150.797 50.6094C151.136 50.4219 151.404 50.1927 151.602 49.9219C151.805 49.651 151.915 49.388 151.93 49.1328L152.547 49.8281C152.511 50.0469 152.412 50.2891 152.251 50.5547C152.089 50.8203 151.873 51.0755 151.602 51.3203C151.337 51.5599 151.019 51.7604 150.649 51.9219C150.284 52.0781 149.873 52.1562 149.415 52.1562C148.842 52.1562 148.339 52.0443 147.907 51.8203C147.48 51.5964 147.146 51.2969 146.907 50.9219C146.672 50.5417 146.555 50.1172 146.555 49.6484C146.555 49.1953 146.644 48.7969 146.821 48.4531C146.998 48.1042 147.253 47.8151 147.587 47.5859C147.92 47.3516 148.321 47.1745 148.79 47.0547C149.258 46.9349 149.782 46.875 150.36 46.875H152.04ZM156.954 44.875V52H155.508V43.5469H156.915L156.954 44.875ZM159.594 43.5L159.587 44.8438C159.467 44.8177 159.352 44.8021 159.243 44.7969C159.139 44.7865 159.019 44.7812 158.883 44.7812C158.55 44.7812 158.256 44.8333 158.001 44.9375C157.745 45.0417 157.529 45.1875 157.352 45.375C157.175 45.5625 157.034 45.7865 156.93 46.0469C156.831 46.3021 156.766 46.5833 156.735 46.8906L156.329 47.125C156.329 46.6146 156.378 46.1354 156.477 45.6875C156.581 45.2396 156.74 44.8438 156.954 44.5C157.167 44.151 157.438 43.8802 157.766 43.6875C158.1 43.4896 158.495 43.3906 158.954 43.3906C159.058 43.3906 159.178 43.4036 159.313 43.4297C159.449 43.4505 159.542 43.474 159.594 43.5ZM165.852 49.7578C165.852 49.5495 165.805 49.3568 165.712 49.1797C165.623 48.9974 165.438 48.8333 165.157 48.6875C164.881 48.5365 164.464 48.4062 163.907 48.2969C163.438 48.1979 163.014 48.0807 162.633 47.9453C162.258 47.8099 161.938 47.6458 161.672 47.4531C161.412 47.2604 161.212 47.0339 161.071 46.7734C160.93 46.513 160.86 46.2083 160.86 45.8594C160.86 45.526 160.933 45.2109 161.079 44.9141C161.23 44.6172 161.441 44.3542 161.712 44.125C161.988 43.8958 162.318 43.7161 162.704 43.5859C163.089 43.4557 163.519 43.3906 163.993 43.3906C164.67 43.3906 165.248 43.5104 165.727 43.75C166.206 43.9896 166.574 44.3099 166.829 44.7109C167.084 45.1068 167.212 45.5469 167.212 46.0312H165.766C165.766 45.7969 165.696 45.5703 165.555 45.3516C165.42 45.1276 165.219 44.9427 164.954 44.7969C164.693 44.651 164.373 44.5781 163.993 44.5781C163.592 44.5781 163.266 44.6406 163.016 44.7656C162.771 44.8854 162.592 45.0391 162.477 45.2266C162.368 45.4141 162.313 45.612 162.313 45.8203C162.313 45.9766 162.339 46.1172 162.391 46.2422C162.449 46.362 162.547 46.474 162.688 46.5781C162.829 46.6771 163.027 46.7708 163.282 46.8594C163.537 46.9479 163.863 47.0365 164.258 47.125C164.951 47.2812 165.521 47.4688 165.969 47.6875C166.417 47.9062 166.751 48.1745 166.969 48.4922C167.188 48.8099 167.297 49.1953 167.297 49.6484C167.297 50.0182 167.219 50.3568 167.063 50.6641C166.912 50.9714 166.691 51.237 166.399 51.4609C166.113 51.6797 165.769 51.8516 165.368 51.9766C164.972 52.0964 164.527 52.1562 164.032 52.1562C163.287 52.1562 162.657 52.0234 162.141 51.7578C161.626 51.4922 161.235 51.1484 160.969 50.7266C160.704 50.3047 160.571 49.8594 160.571 49.3906H162.024C162.045 49.7865 162.159 50.1016 162.368 50.3359C162.576 50.5651 162.831 50.7292 163.133 50.8281C163.436 50.9219 163.735 50.9688 164.032 50.9688C164.428 50.9688 164.758 50.9167 165.024 50.8125C165.295 50.7083 165.501 50.5651 165.641 50.3828C165.782 50.2005 165.852 49.9922 165.852 49.7578ZM176.704 43.5469V44.6562H172.133V43.5469H176.704ZM173.68 41.4922H175.126V49.9062C175.126 50.1927 175.17 50.4089 175.258 50.5547C175.347 50.7005 175.462 50.7969 175.602 50.8438C175.743 50.8906 175.894 50.9141 176.055 50.9141C176.175 50.9141 176.3 50.9036 176.43 50.8828C176.566 50.8568 176.667 50.8359 176.735 50.8203L176.743 52C176.628 52.0365 176.477 52.0703 176.29 52.1016C176.107 52.138 175.886 52.1562 175.626 52.1562C175.271 52.1562 174.946 52.0859 174.649 51.9453C174.352 51.8047 174.115 51.5703 173.938 51.2422C173.766 50.9089 173.68 50.4609 173.68 49.8984V41.4922ZM177.86 47.8672V47.6875C177.86 47.0781 177.949 46.513 178.126 45.9922C178.303 45.4661 178.558 45.0104 178.891 44.625C179.225 44.2344 179.628 43.9323 180.102 43.7188C180.576 43.5 181.107 43.3906 181.696 43.3906C182.29 43.3906 182.824 43.5 183.297 43.7188C183.777 43.9323 184.183 44.2344 184.516 44.625C184.855 45.0104 185.113 45.4661 185.29 45.9922C185.467 46.513 185.555 47.0781 185.555 47.6875V47.8672C185.555 48.4766 185.467 49.0417 185.29 49.5625C185.113 50.0833 184.855 50.5391 184.516 50.9297C184.183 51.3151 183.779 51.6172 183.305 51.8359C182.837 52.0495 182.305 52.1562 181.712 52.1562C181.118 52.1562 180.584 52.0495 180.11 51.8359C179.636 51.6172 179.23 51.3151 178.891 50.9297C178.558 50.5391 178.303 50.0833 178.126 49.5625C177.949 49.0417 177.86 48.4766 177.86 47.8672ZM179.305 47.6875V47.8672C179.305 48.2891 179.355 48.6875 179.454 49.0625C179.553 49.4323 179.701 49.7604 179.899 50.0469C180.102 50.3333 180.355 50.5599 180.657 50.7266C180.959 50.888 181.311 50.9688 181.712 50.9688C182.107 50.9688 182.454 50.888 182.751 50.7266C183.053 50.5599 183.303 50.3333 183.501 50.0469C183.699 49.7604 183.847 49.4323 183.946 49.0625C184.05 48.6875 184.102 48.2891 184.102 47.8672V47.6875C184.102 47.2708 184.05 46.8776 183.946 46.5078C183.847 46.1328 183.696 45.8021 183.493 45.5156C183.295 45.224 183.045 44.9948 182.743 44.8281C182.446 44.6615 182.097 44.5781 181.696 44.5781C181.3 44.5781 180.951 44.6615 180.649 44.8281C180.352 44.9948 180.102 45.224 179.899 45.5156C179.701 45.8021 179.553 46.1328 179.454 46.5078C179.355 46.8776 179.305 47.2708 179.305 47.6875ZM191.329 40H192.782V50.3594L192.657 52H191.329V40ZM198.493 47.7031V47.8672C198.493 48.4818 198.42 49.0521 198.274 49.5781C198.128 50.099 197.915 50.5521 197.633 50.9375C197.352 51.3229 197.008 51.6224 196.602 51.8359C196.196 52.0495 195.73 52.1562 195.204 52.1562C194.667 52.1562 194.196 52.0651 193.79 51.8828C193.389 51.6953 193.05 51.4271 192.774 51.0781C192.498 50.7292 192.277 50.3073 192.11 49.8125C191.949 49.3177 191.837 48.7604 191.774 48.1406V47.4219C191.837 46.7969 191.949 46.237 192.11 45.7422C192.277 45.2474 192.498 44.8255 192.774 44.4766C193.05 44.1224 193.389 43.8542 193.79 43.6719C194.191 43.4844 194.657 43.3906 195.188 43.3906C195.719 43.3906 196.191 43.4948 196.602 43.7031C197.014 43.9062 197.357 44.1979 197.633 44.5781C197.915 44.9583 198.128 45.4141 198.274 45.9453C198.42 46.4714 198.493 47.0573 198.493 47.7031ZM197.04 47.8672V47.7031C197.04 47.2812 197.001 46.8854 196.922 46.5156C196.844 46.1406 196.719 45.8125 196.547 45.5312C196.376 45.2448 196.149 45.0208 195.868 44.8594C195.587 44.6927 195.24 44.6094 194.829 44.6094C194.464 44.6094 194.146 44.6719 193.876 44.7969C193.61 44.9219 193.383 45.0911 193.196 45.3047C193.008 45.513 192.855 45.7526 192.735 46.0234C192.62 46.2891 192.534 46.5651 192.477 46.8516V48.7344C192.561 49.099 192.696 49.4505 192.883 49.7891C193.076 50.1224 193.331 50.3958 193.649 50.6094C193.972 50.8229 194.37 50.9297 194.844 50.9297C195.235 50.9297 195.568 50.8516 195.844 50.6953C196.126 50.5339 196.352 50.3125 196.524 50.0312C196.701 49.75 196.831 49.4245 196.915 49.0547C196.998 48.6849 197.04 48.2891 197.04 47.8672ZM205.493 50.0469V43.5469H206.946V52H205.563L205.493 50.0469ZM205.766 48.2656L206.368 48.25C206.368 48.8125 206.308 49.3333 206.188 49.8125C206.074 50.2865 205.886 50.6979 205.626 51.0469C205.365 51.3958 205.024 51.6693 204.602 51.8672C204.18 52.0599 203.667 52.1562 203.063 52.1562C202.652 52.1562 202.274 52.0964 201.93 51.9766C201.592 51.8568 201.3 51.6719 201.055 51.4219C200.811 51.1719 200.62 50.8464 200.485 50.4453C200.355 50.0443 200.29 49.5625 200.29 49V43.5469H201.735V49.0156C201.735 49.3958 201.777 49.7109 201.86 49.9609C201.949 50.2057 202.066 50.401 202.212 50.5469C202.363 50.6875 202.529 50.7865 202.712 50.8438C202.899 50.901 203.092 50.9297 203.29 50.9297C203.904 50.9297 204.391 50.8125 204.751 50.5781C205.11 50.3385 205.368 50.0182 205.524 49.6172C205.686 49.2109 205.766 48.7604 205.766 48.2656ZM210.594 44.875V52H209.149V43.5469H210.555L210.594 44.875ZM213.235 43.5L213.227 44.8438C213.107 44.8177 212.993 44.8021 212.883 44.7969C212.779 44.7865 212.659 44.7812 212.524 44.7812C212.191 44.7812 211.896 44.8333 211.641 44.9375C211.386 45.0417 211.17 45.1875 210.993 45.375C210.816 45.5625 210.675 45.7865 210.571 46.0469C210.472 46.3021 210.407 46.5833 210.376 46.8906L209.969 47.125C209.969 46.6146 210.019 46.1354 210.118 45.6875C210.222 45.2396 210.381 44.8438 210.594 44.5C210.808 44.151 211.079 43.8802 211.407 43.6875C211.74 43.4896 212.136 43.3906 212.594 43.3906C212.699 43.3906 212.818 43.4036 212.954 43.4297C213.089 43.4505 213.183 43.474 213.235 43.5ZM219.891 43.5469H221.204V51.8203C221.204 52.5651 221.053 53.2005 220.751 53.7266C220.449 54.2526 220.027 54.651 219.485 54.9219C218.949 55.1979 218.329 55.3359 217.626 55.3359C217.334 55.3359 216.99 55.2891 216.594 55.1953C216.204 55.1068 215.818 54.9531 215.438 54.7344C215.063 54.5208 214.748 54.2318 214.493 53.8672L215.251 53.0078C215.605 53.4349 215.975 53.7318 216.36 53.8984C216.751 54.0651 217.136 54.1484 217.516 54.1484C217.975 54.1484 218.37 54.0625 218.704 53.8906C219.037 53.7188 219.295 53.4635 219.477 53.125C219.665 52.7917 219.758 52.3802 219.758 51.8906V45.4062L219.891 43.5469ZM214.071 47.8672V47.7031C214.071 47.0573 214.146 46.4714 214.297 45.9453C214.454 45.4141 214.675 44.9583 214.962 44.5781C215.253 44.1979 215.605 43.9062 216.016 43.7031C216.428 43.4948 216.891 43.3906 217.407 43.3906C217.938 43.3906 218.402 43.4844 218.797 43.6719C219.199 43.8542 219.537 44.1224 219.813 44.4766C220.094 44.8255 220.316 45.2474 220.477 45.7422C220.639 46.237 220.751 46.7969 220.813 47.4219V48.1406C220.756 48.7604 220.644 49.3177 220.477 49.8125C220.316 50.3073 220.094 50.7292 219.813 51.0781C219.537 51.4271 219.199 51.6953 218.797 51.8828C218.396 52.0651 217.928 52.1562 217.391 52.1562C216.886 52.1562 216.428 52.0495 216.016 51.8359C215.61 51.6224 215.261 51.3229 214.969 50.9375C214.678 50.5521 214.454 50.099 214.297 49.5781C214.146 49.0521 214.071 48.4818 214.071 47.8672ZM215.516 47.7031V47.8672C215.516 48.2891 215.558 48.6849 215.641 49.0547C215.73 49.4245 215.863 49.75 216.04 50.0312C216.222 50.3125 216.454 50.5339 216.735 50.6953C217.016 50.8516 217.352 50.9297 217.743 50.9297C218.222 50.9297 218.618 50.8281 218.93 50.625C219.243 50.4219 219.49 50.1536 219.672 49.8203C219.86 49.487 220.006 49.125 220.11 48.7344V46.8516C220.053 46.5651 219.964 46.2891 219.844 46.0234C219.73 45.7526 219.579 45.513 219.391 45.3047C219.209 45.0911 218.982 44.9219 218.712 44.7969C218.441 44.6719 218.123 44.6094 217.758 44.6094C217.363 44.6094 217.021 44.6927 216.735 44.8594C216.454 45.0208 216.222 45.2448 216.04 45.5312C215.863 45.8125 215.73 46.1406 215.641 46.5156C215.558 46.8854 215.516 47.2812 215.516 47.7031ZM226.907 52.1562C226.318 52.1562 225.784 52.0573 225.305 51.8594C224.831 51.6562 224.422 51.3724 224.079 51.0078C223.74 50.6432 223.48 50.2109 223.297 49.7109C223.115 49.2109 223.024 48.6641 223.024 48.0703V47.7422C223.024 47.0547 223.126 46.4427 223.329 45.9062C223.532 45.3646 223.808 44.9062 224.157 44.5312C224.506 44.1562 224.902 43.8724 225.344 43.6797C225.787 43.487 226.245 43.3906 226.719 43.3906C227.324 43.3906 227.844 43.4948 228.282 43.7031C228.725 43.9115 229.087 44.2031 229.368 44.5781C229.649 44.9479 229.857 45.3854 229.993 45.8906C230.128 46.3906 230.196 46.9375 230.196 47.5312V48.1797H223.883V47H228.751V46.8906C228.73 46.5156 228.652 46.151 228.516 45.7969C228.386 45.4427 228.178 45.151 227.891 44.9219C227.605 44.6927 227.214 44.5781 226.719 44.5781C226.391 44.5781 226.089 44.6484 225.813 44.7891C225.537 44.9245 225.3 45.1276 225.102 45.3984C224.904 45.6693 224.751 46 224.641 46.3906C224.532 46.7812 224.477 47.2318 224.477 47.7422V48.0703C224.477 48.4714 224.532 48.849 224.641 49.2031C224.756 49.5521 224.92 49.8594 225.133 50.125C225.352 50.3906 225.615 50.599 225.922 50.75C226.235 50.901 226.589 50.9766 226.985 50.9766C227.495 50.9766 227.928 50.8724 228.282 50.6641C228.636 50.4557 228.946 50.1771 229.212 49.8281L230.087 50.5234C229.904 50.7995 229.672 51.0625 229.391 51.3125C229.11 51.5625 228.764 51.7656 228.352 51.9219C227.946 52.0781 227.464 52.1562 226.907 52.1562ZM233.329 44.875V52H231.883V43.5469H233.29L233.329 44.875ZM235.969 43.5L235.962 44.8438C235.842 44.8177 235.727 44.8021 235.618 44.7969C235.514 44.7865 235.394 44.7812 235.258 44.7812C234.925 44.7812 234.631 44.8333 234.376 44.9375C234.12 45.0417 233.904 45.1875 233.727 45.375C233.55 45.5625 233.409 45.7865 233.305 46.0469C233.206 46.3021 233.141 46.5833 233.11 46.8906L232.704 47.125C232.704 46.6146 232.753 46.1354 232.852 45.6875C232.956 45.2396 233.115 44.8438 233.329 44.5C233.542 44.151 233.813 43.8802 234.141 43.6875C234.475 43.4896 234.87 43.3906 235.329 43.3906C235.433 43.3906 235.553 43.4036 235.688 43.4297C235.824 43.4505 235.917 43.474 235.969 43.5ZM236.36 51.2344C236.36 50.9896 236.436 50.7839 236.587 50.6172C236.743 50.4453 236.967 50.3594 237.258 50.3594C237.55 50.3594 237.771 50.4453 237.922 50.6172C238.079 50.7839 238.157 50.9896 238.157 51.2344C238.157 51.474 238.079 51.6771 237.922 51.8438C237.771 52.0104 237.55 52.0938 237.258 52.0938C236.967 52.0938 236.743 52.0104 236.587 51.8438C236.436 51.6771 236.36 51.474 236.36 51.2344Z" fill="#46474B"/>
<path d="M279.041 22.3516V29.5H278.138V23.4795L276.316 24.1436V23.3281L278.899 22.3516H279.041ZM282.698 22V29.5H281.795V22H282.698ZM282.483 26.6582L282.107 26.6436C282.111 26.2822 282.164 25.9486 282.269 25.6426C282.373 25.3333 282.519 25.0648 282.708 24.8369C282.897 24.609 283.121 24.4333 283.382 24.3096C283.646 24.1826 283.937 24.1191 284.256 24.1191C284.516 24.1191 284.751 24.1549 284.959 24.2266C285.167 24.2949 285.345 24.4056 285.491 24.5586C285.641 24.7116 285.755 24.9102 285.833 25.1543C285.911 25.3952 285.95 25.6898 285.95 26.0381V29.5H285.042V26.0283C285.042 25.7516 285.001 25.5303 284.92 25.3643C284.839 25.195 284.72 25.0729 284.563 24.998C284.407 24.9199 284.215 24.8809 283.987 24.8809C283.763 24.8809 283.558 24.9281 283.372 25.0225C283.19 25.1169 283.032 25.2471 282.898 25.4131C282.768 25.5791 282.666 25.7695 282.591 25.9844C282.519 26.196 282.483 26.4206 282.483 26.6582Z" fill="#787878"/>
</svg>
