<svg width="16" height="16" viewBox="0 0 16 16" fill="none" xmlns="http://www.w3.org/2000/svg">
<path id="Vector" d="M16 8C16 8.47503 15.7219 8.90345 15.3256 9.29408C15.0885 9.52718 14.812 9.75063 14.5685 9.97729C14.374 10.1581 14.1987 10.3358 14.1167 10.5335C14.0307 10.7401 14.0251 10.9965 14.0324 11.2674C14.0412 11.6017 14.0774 11.9546 14.0798 12.2841C14.0846 12.8395 13.9809 13.3323 13.657 13.657C13.3323 13.9809 12.8395 14.0846 12.2841 14.0798C11.9546 14.0766 11.6017 14.0412 11.2682 14.0324C10.9973 14.0251 10.7401 14.0307 10.5335 14.1167C10.3358 14.1987 10.1581 14.374 9.97729 14.5685C9.75063 14.812 9.52718 15.0885 9.29408 15.3248C8.90345 15.7219 8.47503 16 8 16C7.52497 16 7.09655 15.7219 6.70592 15.3248C6.47282 15.0885 6.24937 14.812 6.02271 14.5685C5.84186 14.374 5.66342 14.1987 5.46649 14.1167C5.25992 14.0307 5.00271 14.0251 4.73264 14.0324C4.39827 14.0412 4.04541 14.0766 3.71586 14.0798C3.16045 14.0846 2.66693 13.9809 2.34301 13.657C2.01829 13.3323 1.9154 12.8395 1.92023 12.2841C1.92264 11.9546 1.95881 11.6017 1.96765 11.2674C1.97488 10.9965 1.96926 10.7401 1.88325 10.5327C1.80127 10.3358 1.62604 10.1581 1.43153 9.97729C1.18879 9.75063 0.912288 9.52718 0.675173 9.29408C0.278911 8.90345 0 8.47503 0 8C0 7.52497 0.278911 7.09655 0.675173 6.70592C0.912288 6.47282 1.18879 6.24937 1.43153 6.02271C1.62604 5.84186 1.80127 5.66422 1.88325 5.4673C1.96926 5.25992 1.97488 5.00352 1.96765 4.73264C1.95881 4.39827 1.92264 4.04541 1.92023 3.71586C1.9154 3.16045 2.01829 2.66774 2.34301 2.34301C2.66693 2.01909 3.16045 1.9154 3.71586 1.92023C4.04541 1.92344 4.39827 1.95881 4.73264 1.96765C5.00271 1.97488 5.25992 1.96926 5.46649 1.88325C5.66342 1.80127 5.84186 1.62604 6.02271 1.43153C6.24937 1.18798 6.47282 0.911484 6.70592 0.675173C7.09655 0.278107 7.52497 0 8 0C8.47503 0 8.90345 0.278107 9.29408 0.675173C9.52718 0.911484 9.75063 1.18798 9.97729 1.43153C10.1581 1.62604 10.3358 1.80127 10.5335 1.88325C10.7401 1.96926 10.9973 1.97488 11.2682 1.96765C11.6017 1.95881 11.9546 1.92344 12.2841 1.92023C12.8395 1.9154 13.3323 2.01909 13.657 2.34301C13.9809 2.66774 14.0846 3.16045 14.0798 3.71586C14.0774 4.04541 14.0412 4.39827 14.0324 4.73264C14.0251 5.00352 14.0307 5.25992 14.1167 5.46649C14.1987 5.66422 14.374 5.84186 14.5685 6.02271C14.812 6.24937 15.0885 6.47282 15.3256 6.70592C15.7219 7.09655 16 7.52497 16 8ZM15.1962 8C15.1962 7.84889 15.1255 7.71466 15.0306 7.58364C14.8988 7.40199 14.7188 7.23239 14.5307 7.0644C14.0621 6.64564 13.5621 6.22847 13.3741 5.77514C13.1795 5.30493 13.2318 4.65066 13.2647 4.02452C13.2784 3.77133 13.2864 3.52457 13.2527 3.30513C13.2294 3.15161 13.1884 3.01176 13.0887 2.91209C12.9882 2.81161 12.8484 2.77062 12.6949 2.74731C12.4754 2.71355 12.2287 2.72159 11.9755 2.73526C11.3493 2.76821 10.6951 2.82046 10.2257 2.62594C9.77153 2.43786 9.35437 1.93871 8.9356 1.46931C8.76761 1.28122 8.59801 1.10118 8.41636 0.969356C8.28534 0.87451 8.15111 0.803778 8 0.803778C7.84969 0.803778 7.71466 0.87451 7.58364 0.969356C7.40199 1.10118 7.23239 1.28122 7.0644 1.46931C6.64564 1.93871 6.22847 2.43786 5.77434 2.62594C5.30493 2.82046 4.65066 2.76821 4.02452 2.73526C3.77133 2.72159 3.52457 2.71355 3.30513 2.74731C3.15081 2.77062 3.01176 2.81161 2.91128 2.91209C2.81081 3.01176 2.77062 3.15161 2.74731 3.30513C2.71355 3.52457 2.72159 3.77133 2.73445 4.02452C2.76821 4.65066 2.82046 5.30493 2.62594 5.77434C2.43786 6.22847 1.93871 6.64564 1.46931 7.0644C1.28122 7.23239 1.10118 7.40199 0.969356 7.58364C0.87451 7.71466 0.803778 7.84889 0.803778 8C0.803778 8.15111 0.87451 8.28534 0.969356 8.41636C1.10118 8.59801 1.28122 8.76761 1.46931 8.9356C1.93871 9.35437 2.43786 9.77153 2.62594 10.2257C2.82046 10.6951 2.76821 11.3493 2.73445 11.9755C2.72159 12.2287 2.71355 12.4754 2.74731 12.6949C2.77062 12.8484 2.81081 12.9882 2.91128 13.0879C3.01176 13.1884 3.15081 13.2294 3.30513 13.2527C3.52457 13.2864 3.77133 13.2784 4.02452 13.2647C4.65066 13.2318 5.30493 13.1795 5.77434 13.3741C6.22847 13.5621 6.64564 14.0613 7.0644 14.5307C7.23239 14.7188 7.40199 14.8988 7.58364 15.0306C7.71466 15.1255 7.84969 15.1962 8 15.1962C8.15111 15.1962 8.28534 15.1255 8.41636 15.0306C8.59801 14.8988 8.76761 14.7188 8.9356 14.5307C9.35437 14.0613 9.77153 13.5621 10.2257 13.3741C10.6951 13.1795 11.3493 13.2318 11.9755 13.2647C12.2287 13.2784 12.4754 13.2864 12.6949 13.2527C12.8484 13.2294 12.9882 13.1884 13.0887 13.0879C13.1884 12.9882 13.2294 12.8484 13.2527 12.6949C13.2864 12.4754 13.2784 12.2287 13.2647 11.9755C13.2318 11.3493 13.1795 10.6951 13.3741 10.2249C13.5621 9.77153 14.0621 9.35437 14.5307 8.9356C14.7188 8.76761 14.8988 8.59801 15.0306 8.41636C15.1255 8.28534 15.1962 8.15111 15.1962 8ZM6.73164 6.58374C6.65585 6.65948 6.56589 6.71954 6.46689 6.76051C6.36789 6.80148 6.26179 6.82254 6.15464 6.82251C6.0475 6.82247 5.94142 6.80133 5.84244 6.76029C5.74347 6.71926 5.65355 6.65913 5.57782 6.58334C5.50208 6.50756 5.44202 6.41759 5.40105 6.31859C5.36008 6.21959 5.33902 6.11349 5.33905 6.00635C5.33909 5.89921 5.36023 5.79312 5.40127 5.69415C5.4423 5.59517 5.50243 5.50525 5.57822 5.42952C5.73128 5.27657 5.93883 5.19068 6.15521 5.19076C6.3716 5.19083 6.57909 5.27686 6.73204 5.42992C6.88499 5.58298 6.97088 5.79053 6.97081 6.00692C6.97073 6.2233 6.8847 6.43079 6.73164 6.58374ZM10.3253 5.1064C10.4011 5.03319 10.5026 4.99268 10.608 4.9936C10.7134 4.99452 10.8142 5.03678 10.8887 5.1113C10.9632 5.18581 11.0055 5.28661 11.0064 5.39198C11.0073 5.49736 10.9668 5.59887 10.8936 5.67467L5.67467 10.8936C5.59887 10.9668 5.49736 11.0073 5.39198 11.0064C5.28661 11.0055 5.18581 10.9632 5.1113 10.8887C5.03678 10.8142 4.99452 10.7134 4.9936 10.608C4.99268 10.5026 5.03319 10.4011 5.1064 10.3253L10.3253 5.1064ZM9.26836 9.41706C9.34415 9.34133 9.43411 9.28126 9.53311 9.24029C9.63211 9.19933 9.73821 9.17826 9.84536 9.1783C9.9525 9.17833 10.0586 9.19947 10.1576 9.24051C10.2565 9.28155 10.3465 9.34168 10.4222 9.41746C10.4979 9.49325 10.558 9.58321 10.599 9.68221C10.6399 9.78121 10.661 9.88732 10.6609 9.99446C10.6609 10.1016 10.6398 10.2077 10.5987 10.3067C10.5577 10.4056 10.4976 10.4956 10.4218 10.5713C10.2687 10.7242 10.0612 10.8101 9.84479 10.81C9.6284 10.81 9.42091 10.7239 9.26796 10.5709C9.11501 10.4178 9.02912 10.2103 9.0292 9.99389C9.02927 9.7775 9.1153 9.57001 9.26836 9.41706Z" fill="#FA902D"/>
</svg>
