<svg width="22" height="22" viewBox="0 0 22 22" fill="none" xmlns="http://www.w3.org/2000/svg">
<g id="solar:bag-check-outline">
<path id="Vector" fill-rule="evenodd" clip-rule="evenodd" d="M11.4451 4.14436C10.9898 4.14436 10.5532 4.32521 10.2313 4.64713C9.90939 4.96904 9.72854 5.40565 9.72854 5.86091V6.05926C10.1535 6.05163 10.6196 6.05163 11.1323 6.05163H11.7586C12.2698 6.05163 12.7367 6.05163 13.1624 6.05926V5.86091C13.1624 5.63542 13.118 5.41215 13.0317 5.20384C12.9453 4.99553 12.8188 4.80626 12.6594 4.64686C12.4999 4.48745 12.3106 4.36103 12.1022 4.27481C11.8939 4.18859 11.6706 4.14426 11.4451 4.14436ZM14.306 6.11114V5.86091C14.306 5.10215 14.0046 4.37446 13.4681 3.83794C12.9315 3.30142 12.2038 3 11.4451 3C10.6863 3 9.95864 3.30142 9.42212 3.83794C8.8856 4.37446 8.58418 5.10215 8.58418 5.86091V6.11114C8.47508 6.12029 8.37057 6.13098 8.26834 6.14394C7.4978 6.23931 6.86306 6.43919 6.32292 6.88702C5.78354 7.33484 5.46999 7.92228 5.23425 8.6623C5.00538 9.37944 4.83296 10.3003 4.61629 11.4591L4.60027 11.543C4.29358 13.178 4.05251 14.4665 4.00749 15.4819C3.96172 16.5233 4.11735 17.3854 4.70479 18.0926C5.29223 18.8006 6.11083 19.1119 7.14228 19.2591C8.14932 19.4025 9.45924 19.4025 11.1231 19.4025H11.7678C13.4309 19.4025 14.7416 19.4025 15.7479 19.2591C16.7793 19.1119 17.5987 18.8006 18.1861 18.0926C18.7736 17.3854 18.9277 16.5233 18.8827 15.4819C18.8384 14.4665 18.5966 13.178 18.2899 11.543L18.2746 11.4591C18.0572 10.3003 17.884 9.37868 17.6567 8.6623C17.4202 7.92228 17.1074 7.33484 16.5673 6.88702C16.0279 6.43919 15.3924 6.23855 14.6218 6.14394C14.5168 6.13106 14.4115 6.12012 14.306 6.11114ZM8.40871 7.27992C7.75642 7.36002 7.362 7.51184 7.05379 7.76818C6.74633 8.02299 6.52433 8.38232 6.32445 9.00943C6.12075 9.65027 5.95978 10.5032 5.73395 11.7078C5.41658 13.3992 5.19153 14.6069 5.15109 15.5323C5.11142 16.4402 5.2579 16.9666 5.58519 17.3625C5.91324 17.7569 6.40379 17.9972 7.30402 18.1254C8.21951 18.2566 9.44932 18.2582 11.1697 18.2582H11.7205C13.4409 18.2582 14.6699 18.2566 15.5862 18.1262C16.4864 17.9972 16.9769 17.7569 17.305 17.3625C17.633 16.9673 17.7787 16.4409 17.7398 15.5315C17.6986 14.6076 17.4736 13.3992 17.1562 11.7078C16.9304 10.5024 16.7702 9.65103 16.5657 9.00943C16.3658 8.38232 16.1446 8.02299 15.8364 7.76741C15.5282 7.51184 15.1345 7.36002 14.4815 7.27915C13.8132 7.19676 12.9457 7.196 11.7197 7.196H11.1704C9.94445 7.196 9.07702 7.19676 8.40871 7.27992ZM13.3508 11.1555C13.4641 11.2562 13.5328 11.3978 13.5419 11.5491C13.5509 11.7005 13.4994 11.8492 13.3989 11.9626L11.3642 14.2514C11.3141 14.3078 11.2534 14.3537 11.1855 14.3865C11.1176 14.4194 11.0439 14.4385 10.9686 14.4427C10.8933 14.447 10.8179 14.4363 10.7468 14.4113C10.6756 14.3863 10.6101 14.3475 10.554 14.2971L9.53629 13.3817C9.48039 13.3314 9.43493 13.2705 9.40253 13.2027C9.37013 13.1348 9.35141 13.0613 9.34744 12.9862C9.34348 12.9111 9.35434 12.8359 9.37941 12.765C9.40448 12.6941 9.44327 12.6289 9.49357 12.573C9.59514 12.4601 9.7374 12.3921 9.88906 12.3841C9.96415 12.3802 10.0393 12.391 10.1102 12.4161C10.1811 12.4412 10.2463 12.48 10.3022 12.5302L10.8912 13.0612L12.5437 11.2028C12.6444 11.0895 12.786 11.0208 12.9373 11.0118C13.0886 11.0028 13.2374 11.0549 13.3508 11.1555Z" fill="black"/>
</g>
</svg>
