<svg width="17" height="17" viewBox="0 0 17 17" fill="none" xmlns="http://www.w3.org/2000/svg">
<g id="bi:plus">
<path id="Vector" d="M8.57141 4.5C8.70402 4.5 8.8312 4.55268 8.92496 4.64645C9.01873 4.74021 9.07141 4.86739 9.07141 5V8H12.0714C12.204 8 12.3312 8.05268 12.425 8.14645C12.5187 8.24021 12.5714 8.36739 12.5714 8.5C12.5714 8.63261 12.5187 8.75979 12.425 8.85355C12.3312 8.94732 12.204 9 12.0714 9H9.07141V12C9.07141 12.1326 9.01873 12.2598 8.92496 12.3536C8.8312 12.4473 8.70402 12.5 8.57141 12.5C8.4388 12.5 8.31163 12.4473 8.21786 12.3536C8.12409 12.2598 8.07141 12.1326 8.07141 12V9H5.07141C4.9388 9 4.81163 8.94732 4.71786 8.85355C4.62409 8.75979 4.57141 8.63261 4.57141 8.5C4.57141 8.36739 4.62409 8.24021 4.71786 8.14645C4.81163 8.05268 4.9388 8 5.07141 8H8.07141V5C8.07141 4.86739 8.12409 4.74021 8.21786 4.64645C8.31163 4.55268 8.4388 4.5 8.57141 4.5Z" fill="white"/>
</g>
</svg>
