<svg width="22" height="22" viewBox="0 0 22 22" fill="none" xmlns="http://www.w3.org/2000/svg">
<g id="iconamoon:profile-circle-thin">
<g id="Group">
<path id="Vector" d="M19.25 11C19.2527 12.6379 18.7656 14.2392 17.8512 15.598C17.0971 16.7227 16.0775 17.6443 14.8825 18.2813C13.6876 18.9183 12.3541 19.251 11 19.25C9.64589 19.251 8.31241 18.9183 7.11746 18.2813C5.92252 17.6443 4.90293 16.7227 4.14883 15.598C3.43084 14.5278 2.97358 13.3041 2.81371 12.0253C2.65385 10.7464 2.79583 9.4479 3.22827 8.2338C3.66071 7.0197 4.37158 5.92381 5.3039 5.03397C6.23621 4.14412 7.36404 3.48509 8.59697 3.10968C9.82989 2.73428 11.1336 2.65296 12.4036 2.87224C13.6737 3.09151 14.8746 3.60529 15.9103 4.37237C16.946 5.13946 17.7875 6.13852 18.3675 7.28947C18.9475 8.44041 19.2497 9.71123 19.25 11Z" stroke="black"/>
<path id="Vector_2" d="M12.3751 8.25016C12.3751 8.61484 12.2302 8.96457 11.9723 9.22243C11.7145 9.4803 11.3647 9.62516 11.0001 9.62516V10.5418C11.301 10.5418 11.599 10.4826 11.877 10.3674C12.1551 10.2522 12.4077 10.0834 12.6205 9.87062C12.8333 9.65781 13.0021 9.40518 13.1173 9.12715C13.2325 8.84911 13.2917 8.55111 13.2917 8.25016H12.3751ZM11.0001 9.62516C10.6354 9.62516 10.2856 9.4803 10.0278 9.22243C9.76992 8.96457 9.62506 8.61484 9.62506 8.25016H8.70839C8.70839 8.55111 8.76767 8.84911 8.88283 9.12715C8.998 9.40518 9.16681 9.65781 9.37961 9.87062C9.80938 10.3004 10.3923 10.5418 11.0001 10.5418V9.62516ZM9.62506 8.25016C9.62506 7.88549 9.76992 7.53575 10.0278 7.27789C10.2856 7.02003 10.6354 6.87516 11.0001 6.87516V5.9585C10.3923 5.9585 9.80938 6.19994 9.37961 6.62971C8.94984 7.05948 8.70839 7.64237 8.70839 8.25016H9.62506ZM11.0001 6.87516C11.3647 6.87516 11.7145 7.02003 11.9723 7.27789C12.2302 7.53575 12.3751 7.88549 12.3751 8.25016H13.2917C13.2917 7.64237 13.0503 7.05948 12.6205 6.62971C12.1907 6.19994 11.6078 5.9585 11.0001 5.9585V6.87516ZM4.73556 16.3682L4.29556 16.238L4.22498 16.4772L4.38723 16.667L4.73556 16.3682ZM17.2646 16.3682L17.6129 16.667L17.7751 16.4772L17.7036 16.238L17.2646 16.3682ZM8.25006 14.2085H13.7501V13.2918H8.25006V14.2085ZM8.25006 13.2918C7.36175 13.292 6.4972 13.5788 5.78491 14.1096C5.07262 14.6404 4.5497 15.3868 4.29556 16.238L5.17464 16.4992C5.37251 15.8373 5.77865 15.2569 6.33271 14.8442C6.88677 14.4315 7.55919 14.2086 8.25006 14.2085V13.2918ZM11.0001 18.7918C9.87555 18.793 8.76418 18.5502 7.74262 18.0802C6.72106 17.6102 5.81364 16.9241 5.08298 16.0693L4.38723 16.667C5.20402 17.6219 6.21821 18.3884 7.35986 18.9135C8.5015 19.4386 9.74345 19.7098 11.0001 19.7085V18.7918ZM13.7501 14.2085C14.441 14.2086 15.1136 14.4317 15.6676 14.8446C16.2217 15.2574 16.6278 15.8381 16.8255 16.5002L17.7036 16.238C17.4495 15.3868 16.9275 14.6404 16.2152 14.1096C15.5029 13.5788 14.6384 13.292 13.7501 13.2918V14.2085ZM16.9171 16.0693C16.1865 16.9241 15.2791 17.6102 14.2575 18.0802C13.2359 18.5502 12.1246 18.793 11.0001 18.7918V19.7085C12.2567 19.7098 13.4986 19.4386 14.6403 18.9135C15.7819 18.3884 16.7961 17.6219 17.6129 16.667L16.9162 16.0702L16.9171 16.0693Z" fill="black"/>
</g>
</g>
</svg>
