<svg width="22" height="22" viewBox="0 0 22 22" fill="none" xmlns="http://www.w3.org/2000/svg">
<g id="material-symbols-light:qr-code-scanner">
<path id="Vector" d="M3 6.4996V3H6.4996V3.86667H3.86667V6.4996H3ZM3 18.6V15.1004H3.86667V17.7333H6.4996V18.6H3ZM15.1004 18.6V17.7333H17.7333V15.1004H18.6V18.6H15.1004ZM17.7333 6.4996V3.86667H15.1004V3H18.6V6.4996H17.7333ZM15.0831 15.0831H16.1335V16.1335H15.0831V15.0831ZM15.0831 12.9831H16.1335V14.0335H15.0831V12.9831ZM14.0335 14.0335H15.0831V15.0831H14.0335V14.0335ZM12.9831 15.0831H14.0335V16.1335H12.9831V15.0831ZM11.9336 14.0335H12.9831V15.0831H11.9336V14.0335ZM14.0335 11.9336H15.0831V12.9831H14.0335V11.9336ZM12.9831 12.9831H14.0335V14.0335H12.9831V12.9831ZM11.9336 11.9336H12.9831V12.9831H11.9336V11.9336ZM16.1335 5.46653V9.6664H11.9336V5.46653H16.1335ZM9.6664 11.9336V16.1335H5.46653V11.9336H9.6664ZM9.6664 5.46653V9.6664H5.46653V5.46653H9.6664ZM8.90027 15.3673V12.7006H6.23267V15.3673H8.90027ZM8.90027 8.90113V6.23267H6.23267V8.8994H8.8994L8.90027 8.90113ZM15.3665 8.90113V6.23267H12.6997V8.8994H15.3665V8.90113Z" fill="black"/>
</g>
</svg>
