<svg width="153" height="166" viewBox="0 0 153 166" fill="none" xmlns="http://www.w3.org/2000/svg">
<g id="Group-5">
<g id="Group-4">
<path id="Shape" d="M118.032 87.3975H35.0079C29.2765 87.3975 24.6299 82.9681 24.6299 77.5045V49.8039C24.6299 22.5288 47.9077 0.338684 76.5199 0.338684C105.132 0.338684 128.41 22.5288 128.41 49.8039V77.5045C128.41 82.9681 123.763 87.3975 118.032 87.3975ZM45.3859 67.6114H107.654V49.8039C107.654 33.4389 93.6871 20.1248 76.5199 20.1248C59.3526 20.1248 45.3859 33.4389 45.3859 49.8039V67.6114Z" fill="#D25C3E"/>
<path id="Path" d="M76.52 0.338684V20.1248C93.6873 20.1248 107.654 33.4389 107.654 49.8039V67.6114H76.52V87.3975H118.032C123.763 87.3975 128.41 82.9681 128.41 77.5045V49.8039C128.41 22.5288 105.132 0.338684 76.52 0.338684Z" fill="#D25C3E"/>
<path id="Path_2" d="M142.247 165.882H10.7925C5.06112 165.882 0.414551 161.453 0.414551 155.989V77.5044C0.414551 72.0408 5.06112 67.6114 10.7925 67.6114H142.247C147.979 67.6114 152.625 72.0408 152.625 77.5044V155.989C152.625 161.453 147.979 165.882 142.247 165.882Z" fill="#FA902D"/>
<g id="Group">
<path id="Path_3" d="M142.247 67.6114H76.52V165.882H142.247C147.979 165.882 152.625 161.453 152.625 155.989V77.5044C152.625 72.0408 147.979 67.6114 142.247 67.6114Z" fill="#FA902D"/>
</g>
</g>
<path id="Path_4" d="M93.8165 110.481C93.8165 105.018 89.1699 100.588 83.4385 100.588H69.6011C63.8697 100.588 59.2231 105.018 59.2231 110.481C59.2231 114.787 62.1138 118.44 66.1418 119.799V123.672C66.1418 129.136 70.7884 133.565 76.5198 133.565C82.2512 133.565 86.8978 129.136 86.8978 123.672V119.799C90.9258 118.44 93.8165 114.787 93.8165 110.481Z" fill="white"/>
</g>
</svg>
