<svg width="252" height="69" viewBox="0 0 252 69" fill="none" xmlns="http://www.w3.org/2000/svg">
<g id="Group-7">
<path id="Path" d="M212.097 68.4181H39.7479C18.1494 68.4181 0.577637 53.1031 0.577637 34.2787C0.577637 15.4543 18.1494 0.139343 39.7479 0.139343H212.097C233.696 0.139343 251.267 15.4543 251.267 34.2787C251.267 53.1031 233.696 68.4181 212.097 68.4181Z" fill="#D25C3E"/>
<path id="Oval" d="M101.157 46.2364C107.917 46.2364 113.397 41.0121 113.397 34.5677C113.397 28.1232 107.917 22.8989 101.157 22.8989C94.3964 22.8989 88.916 28.1232 88.916 34.5677C88.916 41.0121 94.3964 46.2364 101.157 46.2364Z" fill="white"/>
<path id="Oval_2" d="M52.2129 46.2364C58.9732 46.2364 64.4536 41.0121 64.4536 34.5677C64.4536 28.1232 58.9732 22.8989 52.2129 22.8989C45.4525 22.8989 39.9722 28.1232 39.9722 34.5677C39.9722 41.0121 45.4525 46.2364 52.2129 46.2364Z" fill="white"/>
<g id="Group">
<path id="Oval_3" d="M150.101 45.0984C156.861 45.0984 162.342 39.8742 162.342 33.4297C162.342 26.9853 156.861 21.761 150.101 21.761C143.341 21.761 137.86 26.9853 137.86 33.4297C137.86 39.8742 143.341 45.0984 150.101 45.0984Z" fill="white"/>
<path id="Oval_4" d="M199.063 45.0984C205.824 45.0984 211.304 39.8742 211.304 33.4297C211.304 26.9853 205.824 21.761 199.063 21.761C192.303 21.761 186.823 26.9853 186.823 33.4297C186.823 39.8742 192.303 45.0984 199.063 45.0984Z" fill="white"/>
</g>
</g>
</svg>
